%TF.GenerationSoftware,KiCad,Pcbnew,7.0.5*%
%TF.CreationDate,2023-06-02T21:27:50+04:00*%
%TF.ProjectId,Line Follower PID,4c696e65-2046-46f6-9c6c-6f7765722050,rev?*%
%TF.SameCoordinates,Original*%
%TF.FileFunction,Drillmap*%
%TF.FilePolarity,Positive*%
%FSLAX45Y45*%
G04 Gerber Fmt 4.5, Leading zero omitted, Abs format (unit mm)*
G04 Created by KiCad (PCBNEW 7.0.5) date 2023-06-02 21:27:50*
%MOMM*%
%LPD*%
G01*
G04 APERTURE LIST*
%ADD10C,0.100000*%
%ADD11C,0.200000*%
%ADD12C,0.040000*%
%ADD13C,0.060000*%
%ADD14C,0.080000*%
%ADD15C,0.102000*%
%ADD16C,0.110000*%
%ADD17C,0.152000*%
G04 APERTURE END LIST*
D10*
X10212605Y-7620000D02*
G75*
G03*
X10212605Y-7620000I-179605J0D01*
G01*
X10212605Y-12827000D02*
G75*
G03*
X10212605Y-12827000I-179605J0D01*
G01*
X9779000Y-7366000D02*
X16764000Y-7366000D01*
X16764000Y-13081000D01*
X9779000Y-13081000D01*
X9779000Y-7366000D01*
X16562605Y-12827000D02*
G75*
G03*
X16562605Y-12827000I-179605J0D01*
G01*
D11*
D12*
X11816400Y-8565200D02*
X11856400Y-8605200D01*
X11856400Y-8565200D02*
X11816400Y-8605200D01*
X14204000Y-8743000D02*
X14244000Y-8783000D01*
X14244000Y-8743000D02*
X14204000Y-8783000D01*
X14204000Y-10140000D02*
X14244000Y-10180000D01*
X14244000Y-10140000D02*
X14204000Y-10180000D01*
X15067600Y-8920800D02*
X15107600Y-8960800D01*
X15107600Y-8920800D02*
X15067600Y-8960800D01*
X15067600Y-10038400D02*
X15107600Y-10078400D01*
X15107600Y-10038400D02*
X15067600Y-10078400D01*
X15155650Y-10394000D02*
X15195650Y-10434000D01*
X15195650Y-10394000D02*
X15155650Y-10434000D01*
X15191782Y-10531677D02*
X15231782Y-10571677D01*
X15231782Y-10531677D02*
X15191782Y-10571677D01*
X15220000Y-10966350D02*
X15260000Y-11006350D01*
X15260000Y-10966350D02*
X15220000Y-11006350D01*
X15474000Y-9886000D02*
X15514000Y-9926000D01*
X15514000Y-9886000D02*
X15474000Y-9926000D01*
X15474000Y-10013000D02*
X15514000Y-10053000D01*
X15514000Y-10013000D02*
X15474000Y-10053000D01*
X15474000Y-10140000D02*
X15514000Y-10180000D01*
X15514000Y-10140000D02*
X15474000Y-10180000D01*
X15474000Y-10394000D02*
X15514000Y-10434000D01*
X15514000Y-10394000D02*
X15474000Y-10434000D01*
X15474000Y-10648000D02*
X15514000Y-10688000D01*
X15514000Y-10648000D02*
X15474000Y-10688000D01*
X15700050Y-10140000D02*
X15740050Y-10180000D01*
X15740050Y-10140000D02*
X15700050Y-10180000D01*
X15810700Y-10730700D02*
X15850700Y-10770700D01*
X15850700Y-10730700D02*
X15810700Y-10770700D01*
X15855000Y-10267000D02*
X15895000Y-10307000D01*
X15895000Y-10267000D02*
X15855000Y-10307000D01*
X15880400Y-8870000D02*
X15920400Y-8910000D01*
X15920400Y-8870000D02*
X15880400Y-8910000D01*
D13*
X14358000Y-8382000D02*
G75*
G03*
X14358000Y-8382000I-30000J0D01*
G01*
X14508000Y-8382000D02*
G75*
G03*
X14508000Y-8382000I-30000J0D01*
G01*
D14*
X10541000Y-9393000D02*
X10541000Y-9473000D01*
X10501000Y-9433000D02*
X10581000Y-9433000D01*
X10541000Y-9593000D02*
X10541000Y-9673000D01*
X10501000Y-9633000D02*
X10581000Y-9633000D01*
X10541000Y-9793000D02*
X10541000Y-9873000D01*
X10501000Y-9833000D02*
X10581000Y-9833000D01*
X10541000Y-9993000D02*
X10541000Y-10073000D01*
X10501000Y-10033000D02*
X10581000Y-10033000D01*
X10541000Y-10193000D02*
X10541000Y-10273000D01*
X10501000Y-10233000D02*
X10581000Y-10233000D01*
X10541000Y-10393000D02*
X10541000Y-10473000D01*
X10501000Y-10433000D02*
X10581000Y-10433000D01*
X10541000Y-10593000D02*
X10541000Y-10673000D01*
X10501000Y-10633000D02*
X10581000Y-10633000D01*
X10541000Y-10793000D02*
X10541000Y-10873000D01*
X10501000Y-10833000D02*
X10581000Y-10833000D01*
X16256000Y-8469000D02*
X16256000Y-8549000D01*
X16216000Y-8509000D02*
X16296000Y-8509000D01*
X16256000Y-8719000D02*
X16256000Y-8799000D01*
X16216000Y-8759000D02*
X16296000Y-8759000D01*
X16256000Y-9339000D02*
X16256000Y-9419000D01*
X16216000Y-9379000D02*
X16296000Y-9379000D01*
X16256000Y-9539000D02*
X16256000Y-9619000D01*
X16216000Y-9579000D02*
X16296000Y-9579000D01*
X16256000Y-9739000D02*
X16256000Y-9819000D01*
X16216000Y-9779000D02*
X16296000Y-9779000D01*
X16256000Y-9939000D02*
X16256000Y-10019000D01*
X16216000Y-9979000D02*
X16296000Y-9979000D01*
X16256000Y-10139000D02*
X16256000Y-10219000D01*
X16216000Y-10179000D02*
X16296000Y-10179000D01*
X16256000Y-10339000D02*
X16256000Y-10419000D01*
X16216000Y-10379000D02*
X16296000Y-10379000D01*
X16256000Y-10539000D02*
X16256000Y-10619000D01*
X16216000Y-10579000D02*
X16296000Y-10579000D01*
X16256000Y-10739000D02*
X16256000Y-10819000D01*
X16216000Y-10779000D02*
X16296000Y-10779000D01*
D10*
X10576356Y-7655356D02*
X10576356Y-7584644D01*
X10505644Y-7584644D01*
X10505644Y-7655356D01*
X10576356Y-7655356D01*
X10830356Y-7655356D02*
X10830356Y-7584644D01*
X10759644Y-7584644D01*
X10759644Y-7655356D01*
X10830356Y-7655356D01*
X14511856Y-7655356D02*
X14511856Y-7584644D01*
X14441144Y-7584644D01*
X14441144Y-7655356D01*
X14511856Y-7655356D01*
X14765856Y-7655356D02*
X14765856Y-7584644D01*
X14695144Y-7584644D01*
X14695144Y-7655356D01*
X14765856Y-7655356D01*
X15019856Y-7655356D02*
X15019856Y-7584644D01*
X14949144Y-7584644D01*
X14949144Y-7655356D01*
X15019856Y-7655356D01*
X15273856Y-7655356D02*
X15273856Y-7584644D01*
X15203144Y-7584644D01*
X15203144Y-7655356D01*
X15273856Y-7655356D01*
X15527856Y-7655356D02*
X15527856Y-7584644D01*
X15457144Y-7584644D01*
X15457144Y-7655356D01*
X15527856Y-7655356D01*
X15781856Y-7655356D02*
X15781856Y-7584644D01*
X15711144Y-7584644D01*
X15711144Y-7655356D01*
X15781856Y-7655356D01*
X16035856Y-7655356D02*
X16035856Y-7584644D01*
X15965144Y-7584644D01*
X15965144Y-7655356D01*
X16035856Y-7655356D01*
X16289856Y-7655356D02*
X16289856Y-7584644D01*
X16219144Y-7584644D01*
X16219144Y-7655356D01*
X16289856Y-7655356D01*
D15*
X11430000Y-8433000D02*
X11481000Y-8382000D01*
X11430000Y-8331000D01*
X11379000Y-8382000D01*
X11430000Y-8433000D01*
X11430000Y-8687000D02*
X11481000Y-8636000D01*
X11430000Y-8585000D01*
X11379000Y-8636000D01*
X11430000Y-8687000D01*
X11430000Y-8941000D02*
X11481000Y-8890000D01*
X11430000Y-8839000D01*
X11379000Y-8890000D01*
X11430000Y-8941000D01*
X11430000Y-9195000D02*
X11481000Y-9144000D01*
X11430000Y-9093000D01*
X11379000Y-9144000D01*
X11430000Y-9195000D01*
X11430000Y-9449000D02*
X11481000Y-9398000D01*
X11430000Y-9347000D01*
X11379000Y-9398000D01*
X11430000Y-9449000D01*
X11430000Y-9703000D02*
X11481000Y-9652000D01*
X11430000Y-9601000D01*
X11379000Y-9652000D01*
X11430000Y-9703000D01*
X11430000Y-9957000D02*
X11481000Y-9906000D01*
X11430000Y-9855000D01*
X11379000Y-9906000D01*
X11430000Y-9957000D01*
X11430000Y-10211000D02*
X11481000Y-10160000D01*
X11430000Y-10109000D01*
X11379000Y-10160000D01*
X11430000Y-10211000D01*
X11430000Y-10465000D02*
X11481000Y-10414000D01*
X11430000Y-10363000D01*
X11379000Y-10414000D01*
X11430000Y-10465000D01*
X11430000Y-10719000D02*
X11481000Y-10668000D01*
X11430000Y-10617000D01*
X11379000Y-10668000D01*
X11430000Y-10719000D01*
X11430000Y-10973000D02*
X11481000Y-10922000D01*
X11430000Y-10871000D01*
X11379000Y-10922000D01*
X11430000Y-10973000D01*
X11430000Y-11227000D02*
X11481000Y-11176000D01*
X11430000Y-11125000D01*
X11379000Y-11176000D01*
X11430000Y-11227000D01*
X11430000Y-11481000D02*
X11481000Y-11430000D01*
X11430000Y-11379000D01*
X11379000Y-11430000D01*
X11430000Y-11481000D01*
X11430000Y-11735000D02*
X11481000Y-11684000D01*
X11430000Y-11633000D01*
X11379000Y-11684000D01*
X11430000Y-11735000D01*
X11430000Y-11989000D02*
X11481000Y-11938000D01*
X11430000Y-11887000D01*
X11379000Y-11938000D01*
X11430000Y-11989000D01*
X13970000Y-8433000D02*
X14021000Y-8382000D01*
X13970000Y-8331000D01*
X13919000Y-8382000D01*
X13970000Y-8433000D01*
X13970000Y-8687000D02*
X14021000Y-8636000D01*
X13970000Y-8585000D01*
X13919000Y-8636000D01*
X13970000Y-8687000D01*
X13970000Y-8941000D02*
X14021000Y-8890000D01*
X13970000Y-8839000D01*
X13919000Y-8890000D01*
X13970000Y-8941000D01*
X13970000Y-9195000D02*
X14021000Y-9144000D01*
X13970000Y-9093000D01*
X13919000Y-9144000D01*
X13970000Y-9195000D01*
X13970000Y-9449000D02*
X14021000Y-9398000D01*
X13970000Y-9347000D01*
X13919000Y-9398000D01*
X13970000Y-9449000D01*
X13970000Y-9703000D02*
X14021000Y-9652000D01*
X13970000Y-9601000D01*
X13919000Y-9652000D01*
X13970000Y-9703000D01*
X13970000Y-9957000D02*
X14021000Y-9906000D01*
X13970000Y-9855000D01*
X13919000Y-9906000D01*
X13970000Y-9957000D01*
X13970000Y-10211000D02*
X14021000Y-10160000D01*
X13970000Y-10109000D01*
X13919000Y-10160000D01*
X13970000Y-10211000D01*
X13970000Y-10465000D02*
X14021000Y-10414000D01*
X13970000Y-10363000D01*
X13919000Y-10414000D01*
X13970000Y-10465000D01*
X13970000Y-10719000D02*
X14021000Y-10668000D01*
X13970000Y-10617000D01*
X13919000Y-10668000D01*
X13970000Y-10719000D01*
X13970000Y-10973000D02*
X14021000Y-10922000D01*
X13970000Y-10871000D01*
X13919000Y-10922000D01*
X13970000Y-10973000D01*
X13970000Y-11227000D02*
X14021000Y-11176000D01*
X13970000Y-11125000D01*
X13919000Y-11176000D01*
X13970000Y-11227000D01*
X13970000Y-11481000D02*
X14021000Y-11430000D01*
X13970000Y-11379000D01*
X13919000Y-11430000D01*
X13970000Y-11481000D01*
X13970000Y-11735000D02*
X14021000Y-11684000D01*
X13970000Y-11633000D01*
X13919000Y-11684000D01*
X13970000Y-11735000D01*
X13970000Y-11989000D02*
X14021000Y-11938000D01*
X13970000Y-11887000D01*
X13919000Y-11938000D01*
X13970000Y-11989000D01*
D16*
X14931000Y-8581000D02*
X15041000Y-8691000D01*
X15041000Y-8581000D02*
X14931000Y-8691000D01*
X15041000Y-8636000D02*
G75*
G03*
X15041000Y-8636000I-55000J0D01*
G01*
X15185000Y-8581000D02*
X15295000Y-8691000D01*
X15295000Y-8581000D02*
X15185000Y-8691000D01*
X15295000Y-8636000D02*
G75*
G03*
X15295000Y-8636000I-55000J0D01*
G01*
X15439000Y-8581000D02*
X15549000Y-8691000D01*
X15549000Y-8581000D02*
X15439000Y-8691000D01*
X15549000Y-8636000D02*
G75*
G03*
X15549000Y-8636000I-55000J0D01*
G01*
D17*
X10338000Y-8306000D02*
X10490000Y-8458000D01*
X10490000Y-8306000D02*
X10338000Y-8458000D01*
X10414000Y-8306000D02*
X10414000Y-8458000D01*
X10338000Y-8382000D02*
X10490000Y-8382000D01*
X10338000Y-8814000D02*
X10490000Y-8966000D01*
X10490000Y-8814000D02*
X10338000Y-8966000D01*
X10414000Y-8814000D02*
X10414000Y-8966000D01*
X10338000Y-8890000D02*
X10490000Y-8890000D01*
X10592000Y-11481000D02*
X10744000Y-11633000D01*
X10744000Y-11481000D02*
X10592000Y-11633000D01*
X10668000Y-11481000D02*
X10668000Y-11633000D01*
X10592000Y-11557000D02*
X10744000Y-11557000D01*
X10592000Y-11989000D02*
X10744000Y-12141000D01*
X10744000Y-11989000D02*
X10592000Y-12141000D01*
X10668000Y-11989000D02*
X10668000Y-12141000D01*
X10592000Y-12065000D02*
X10744000Y-12065000D01*
X15926000Y-11354000D02*
X16078000Y-11506000D01*
X16078000Y-11354000D02*
X15926000Y-11506000D01*
X16002000Y-11354000D02*
X16002000Y-11506000D01*
X15926000Y-11430000D02*
X16078000Y-11430000D01*
X15926000Y-11862000D02*
X16078000Y-12014000D01*
X16078000Y-11862000D02*
X15926000Y-12014000D01*
X16002000Y-11862000D02*
X16002000Y-12014000D01*
X15926000Y-11938000D02*
X16078000Y-11938000D01*
D11*
X10034777Y-13397484D02*
X10034777Y-13197484D01*
X10034777Y-13197484D02*
X10082396Y-13197484D01*
X10082396Y-13197484D02*
X10110967Y-13207008D01*
X10110967Y-13207008D02*
X10130015Y-13226055D01*
X10130015Y-13226055D02*
X10139539Y-13245103D01*
X10139539Y-13245103D02*
X10149063Y-13283198D01*
X10149063Y-13283198D02*
X10149063Y-13311769D01*
X10149063Y-13311769D02*
X10139539Y-13349865D01*
X10139539Y-13349865D02*
X10130015Y-13368912D01*
X10130015Y-13368912D02*
X10110967Y-13387960D01*
X10110967Y-13387960D02*
X10082396Y-13397484D01*
X10082396Y-13397484D02*
X10034777Y-13397484D01*
X10234777Y-13397484D02*
X10234777Y-13264150D01*
X10234777Y-13302246D02*
X10244301Y-13283198D01*
X10244301Y-13283198D02*
X10253824Y-13273674D01*
X10253824Y-13273674D02*
X10272872Y-13264150D01*
X10272872Y-13264150D02*
X10291920Y-13264150D01*
X10358586Y-13397484D02*
X10358586Y-13264150D01*
X10358586Y-13197484D02*
X10349063Y-13207008D01*
X10349063Y-13207008D02*
X10358586Y-13216531D01*
X10358586Y-13216531D02*
X10368110Y-13207008D01*
X10368110Y-13207008D02*
X10358586Y-13197484D01*
X10358586Y-13197484D02*
X10358586Y-13216531D01*
X10482396Y-13397484D02*
X10463348Y-13387960D01*
X10463348Y-13387960D02*
X10453824Y-13368912D01*
X10453824Y-13368912D02*
X10453824Y-13197484D01*
X10587158Y-13397484D02*
X10568110Y-13387960D01*
X10568110Y-13387960D02*
X10558586Y-13368912D01*
X10558586Y-13368912D02*
X10558586Y-13197484D01*
X10815729Y-13397484D02*
X10815729Y-13197484D01*
X10815729Y-13197484D02*
X10882396Y-13340341D01*
X10882396Y-13340341D02*
X10949063Y-13197484D01*
X10949063Y-13197484D02*
X10949063Y-13397484D01*
X11130015Y-13397484D02*
X11130015Y-13292722D01*
X11130015Y-13292722D02*
X11120491Y-13273674D01*
X11120491Y-13273674D02*
X11101444Y-13264150D01*
X11101444Y-13264150D02*
X11063348Y-13264150D01*
X11063348Y-13264150D02*
X11044301Y-13273674D01*
X11130015Y-13387960D02*
X11110967Y-13397484D01*
X11110967Y-13397484D02*
X11063348Y-13397484D01*
X11063348Y-13397484D02*
X11044301Y-13387960D01*
X11044301Y-13387960D02*
X11034777Y-13368912D01*
X11034777Y-13368912D02*
X11034777Y-13349865D01*
X11034777Y-13349865D02*
X11044301Y-13330817D01*
X11044301Y-13330817D02*
X11063348Y-13321293D01*
X11063348Y-13321293D02*
X11110967Y-13321293D01*
X11110967Y-13321293D02*
X11130015Y-13311769D01*
X11225253Y-13264150D02*
X11225253Y-13464150D01*
X11225253Y-13273674D02*
X11244301Y-13264150D01*
X11244301Y-13264150D02*
X11282396Y-13264150D01*
X11282396Y-13264150D02*
X11301443Y-13273674D01*
X11301443Y-13273674D02*
X11310967Y-13283198D01*
X11310967Y-13283198D02*
X11320491Y-13302246D01*
X11320491Y-13302246D02*
X11320491Y-13359388D01*
X11320491Y-13359388D02*
X11310967Y-13378436D01*
X11310967Y-13378436D02*
X11301443Y-13387960D01*
X11301443Y-13387960D02*
X11282396Y-13397484D01*
X11282396Y-13397484D02*
X11244301Y-13397484D01*
X11244301Y-13397484D02*
X11225253Y-13387960D01*
X11406205Y-13378436D02*
X11415729Y-13387960D01*
X11415729Y-13387960D02*
X11406205Y-13397484D01*
X11406205Y-13397484D02*
X11396682Y-13387960D01*
X11396682Y-13387960D02*
X11406205Y-13378436D01*
X11406205Y-13378436D02*
X11406205Y-13397484D01*
X11406205Y-13273674D02*
X11415729Y-13283198D01*
X11415729Y-13283198D02*
X11406205Y-13292722D01*
X11406205Y-13292722D02*
X11396682Y-13283198D01*
X11396682Y-13283198D02*
X11406205Y-13273674D01*
X11406205Y-13273674D02*
X11406205Y-13292722D01*
D12*
X9734000Y-13706000D02*
X9774000Y-13746000D01*
X9774000Y-13706000D02*
X9734000Y-13746000D01*
D11*
X10072872Y-13617484D02*
X10091920Y-13617484D01*
X10091920Y-13617484D02*
X10110967Y-13627008D01*
X10110967Y-13627008D02*
X10120491Y-13636531D01*
X10120491Y-13636531D02*
X10130015Y-13655579D01*
X10130015Y-13655579D02*
X10139539Y-13693674D01*
X10139539Y-13693674D02*
X10139539Y-13741293D01*
X10139539Y-13741293D02*
X10130015Y-13779388D01*
X10130015Y-13779388D02*
X10120491Y-13798436D01*
X10120491Y-13798436D02*
X10110967Y-13807960D01*
X10110967Y-13807960D02*
X10091920Y-13817484D01*
X10091920Y-13817484D02*
X10072872Y-13817484D01*
X10072872Y-13817484D02*
X10053824Y-13807960D01*
X10053824Y-13807960D02*
X10044301Y-13798436D01*
X10044301Y-13798436D02*
X10034777Y-13779388D01*
X10034777Y-13779388D02*
X10025253Y-13741293D01*
X10025253Y-13741293D02*
X10025253Y-13693674D01*
X10025253Y-13693674D02*
X10034777Y-13655579D01*
X10034777Y-13655579D02*
X10044301Y-13636531D01*
X10044301Y-13636531D02*
X10053824Y-13627008D01*
X10053824Y-13627008D02*
X10072872Y-13617484D01*
X10225253Y-13798436D02*
X10234777Y-13807960D01*
X10234777Y-13807960D02*
X10225253Y-13817484D01*
X10225253Y-13817484D02*
X10215729Y-13807960D01*
X10215729Y-13807960D02*
X10225253Y-13798436D01*
X10225253Y-13798436D02*
X10225253Y-13817484D01*
X10406205Y-13684150D02*
X10406205Y-13817484D01*
X10358586Y-13607960D02*
X10310967Y-13750817D01*
X10310967Y-13750817D02*
X10434777Y-13750817D01*
X10549063Y-13617484D02*
X10568110Y-13617484D01*
X10568110Y-13617484D02*
X10587158Y-13627008D01*
X10587158Y-13627008D02*
X10596682Y-13636531D01*
X10596682Y-13636531D02*
X10606205Y-13655579D01*
X10606205Y-13655579D02*
X10615729Y-13693674D01*
X10615729Y-13693674D02*
X10615729Y-13741293D01*
X10615729Y-13741293D02*
X10606205Y-13779388D01*
X10606205Y-13779388D02*
X10596682Y-13798436D01*
X10596682Y-13798436D02*
X10587158Y-13807960D01*
X10587158Y-13807960D02*
X10568110Y-13817484D01*
X10568110Y-13817484D02*
X10549063Y-13817484D01*
X10549063Y-13817484D02*
X10530015Y-13807960D01*
X10530015Y-13807960D02*
X10520491Y-13798436D01*
X10520491Y-13798436D02*
X10510967Y-13779388D01*
X10510967Y-13779388D02*
X10501444Y-13741293D01*
X10501444Y-13741293D02*
X10501444Y-13693674D01*
X10501444Y-13693674D02*
X10510967Y-13655579D01*
X10510967Y-13655579D02*
X10520491Y-13636531D01*
X10520491Y-13636531D02*
X10530015Y-13627008D01*
X10530015Y-13627008D02*
X10549063Y-13617484D01*
X10739539Y-13617484D02*
X10758586Y-13617484D01*
X10758586Y-13617484D02*
X10777634Y-13627008D01*
X10777634Y-13627008D02*
X10787158Y-13636531D01*
X10787158Y-13636531D02*
X10796682Y-13655579D01*
X10796682Y-13655579D02*
X10806205Y-13693674D01*
X10806205Y-13693674D02*
X10806205Y-13741293D01*
X10806205Y-13741293D02*
X10796682Y-13779388D01*
X10796682Y-13779388D02*
X10787158Y-13798436D01*
X10787158Y-13798436D02*
X10777634Y-13807960D01*
X10777634Y-13807960D02*
X10758586Y-13817484D01*
X10758586Y-13817484D02*
X10739539Y-13817484D01*
X10739539Y-13817484D02*
X10720491Y-13807960D01*
X10720491Y-13807960D02*
X10710967Y-13798436D01*
X10710967Y-13798436D02*
X10701444Y-13779388D01*
X10701444Y-13779388D02*
X10691920Y-13741293D01*
X10691920Y-13741293D02*
X10691920Y-13693674D01*
X10691920Y-13693674D02*
X10701444Y-13655579D01*
X10701444Y-13655579D02*
X10710967Y-13636531D01*
X10710967Y-13636531D02*
X10720491Y-13627008D01*
X10720491Y-13627008D02*
X10739539Y-13617484D01*
X10891920Y-13817484D02*
X10891920Y-13684150D01*
X10891920Y-13703198D02*
X10901444Y-13693674D01*
X10901444Y-13693674D02*
X10920491Y-13684150D01*
X10920491Y-13684150D02*
X10949063Y-13684150D01*
X10949063Y-13684150D02*
X10968110Y-13693674D01*
X10968110Y-13693674D02*
X10977634Y-13712722D01*
X10977634Y-13712722D02*
X10977634Y-13817484D01*
X10977634Y-13712722D02*
X10987158Y-13693674D01*
X10987158Y-13693674D02*
X11006205Y-13684150D01*
X11006205Y-13684150D02*
X11034777Y-13684150D01*
X11034777Y-13684150D02*
X11053825Y-13693674D01*
X11053825Y-13693674D02*
X11063348Y-13712722D01*
X11063348Y-13712722D02*
X11063348Y-13817484D01*
X11158586Y-13817484D02*
X11158586Y-13684150D01*
X11158586Y-13703198D02*
X11168110Y-13693674D01*
X11168110Y-13693674D02*
X11187158Y-13684150D01*
X11187158Y-13684150D02*
X11215729Y-13684150D01*
X11215729Y-13684150D02*
X11234777Y-13693674D01*
X11234777Y-13693674D02*
X11244301Y-13712722D01*
X11244301Y-13712722D02*
X11244301Y-13817484D01*
X11244301Y-13712722D02*
X11253824Y-13693674D01*
X11253824Y-13693674D02*
X11272872Y-13684150D01*
X11272872Y-13684150D02*
X11301443Y-13684150D01*
X11301443Y-13684150D02*
X11320491Y-13693674D01*
X11320491Y-13693674D02*
X11330015Y-13712722D01*
X11330015Y-13712722D02*
X11330015Y-13817484D01*
X11720491Y-13607960D02*
X11549063Y-13865103D01*
X11977634Y-13617484D02*
X11996682Y-13617484D01*
X11996682Y-13617484D02*
X12015729Y-13627008D01*
X12015729Y-13627008D02*
X12025253Y-13636531D01*
X12025253Y-13636531D02*
X12034777Y-13655579D01*
X12034777Y-13655579D02*
X12044301Y-13693674D01*
X12044301Y-13693674D02*
X12044301Y-13741293D01*
X12044301Y-13741293D02*
X12034777Y-13779388D01*
X12034777Y-13779388D02*
X12025253Y-13798436D01*
X12025253Y-13798436D02*
X12015729Y-13807960D01*
X12015729Y-13807960D02*
X11996682Y-13817484D01*
X11996682Y-13817484D02*
X11977634Y-13817484D01*
X11977634Y-13817484D02*
X11958586Y-13807960D01*
X11958586Y-13807960D02*
X11949063Y-13798436D01*
X11949063Y-13798436D02*
X11939539Y-13779388D01*
X11939539Y-13779388D02*
X11930015Y-13741293D01*
X11930015Y-13741293D02*
X11930015Y-13693674D01*
X11930015Y-13693674D02*
X11939539Y-13655579D01*
X11939539Y-13655579D02*
X11949063Y-13636531D01*
X11949063Y-13636531D02*
X11958586Y-13627008D01*
X11958586Y-13627008D02*
X11977634Y-13617484D01*
X12130015Y-13798436D02*
X12139539Y-13807960D01*
X12139539Y-13807960D02*
X12130015Y-13817484D01*
X12130015Y-13817484D02*
X12120491Y-13807960D01*
X12120491Y-13807960D02*
X12130015Y-13798436D01*
X12130015Y-13798436D02*
X12130015Y-13817484D01*
X12263348Y-13617484D02*
X12282396Y-13617484D01*
X12282396Y-13617484D02*
X12301444Y-13627008D01*
X12301444Y-13627008D02*
X12310967Y-13636531D01*
X12310967Y-13636531D02*
X12320491Y-13655579D01*
X12320491Y-13655579D02*
X12330015Y-13693674D01*
X12330015Y-13693674D02*
X12330015Y-13741293D01*
X12330015Y-13741293D02*
X12320491Y-13779388D01*
X12320491Y-13779388D02*
X12310967Y-13798436D01*
X12310967Y-13798436D02*
X12301444Y-13807960D01*
X12301444Y-13807960D02*
X12282396Y-13817484D01*
X12282396Y-13817484D02*
X12263348Y-13817484D01*
X12263348Y-13817484D02*
X12244301Y-13807960D01*
X12244301Y-13807960D02*
X12234777Y-13798436D01*
X12234777Y-13798436D02*
X12225253Y-13779388D01*
X12225253Y-13779388D02*
X12215729Y-13741293D01*
X12215729Y-13741293D02*
X12215729Y-13693674D01*
X12215729Y-13693674D02*
X12225253Y-13655579D01*
X12225253Y-13655579D02*
X12234777Y-13636531D01*
X12234777Y-13636531D02*
X12244301Y-13627008D01*
X12244301Y-13627008D02*
X12263348Y-13617484D01*
X12520491Y-13817484D02*
X12406206Y-13817484D01*
X12463348Y-13817484D02*
X12463348Y-13617484D01*
X12463348Y-13617484D02*
X12444301Y-13646055D01*
X12444301Y-13646055D02*
X12425253Y-13665103D01*
X12425253Y-13665103D02*
X12406206Y-13674627D01*
X12701444Y-13617484D02*
X12606206Y-13617484D01*
X12606206Y-13617484D02*
X12596682Y-13712722D01*
X12596682Y-13712722D02*
X12606206Y-13703198D01*
X12606206Y-13703198D02*
X12625253Y-13693674D01*
X12625253Y-13693674D02*
X12672872Y-13693674D01*
X12672872Y-13693674D02*
X12691920Y-13703198D01*
X12691920Y-13703198D02*
X12701444Y-13712722D01*
X12701444Y-13712722D02*
X12710967Y-13731769D01*
X12710967Y-13731769D02*
X12710967Y-13779388D01*
X12710967Y-13779388D02*
X12701444Y-13798436D01*
X12701444Y-13798436D02*
X12691920Y-13807960D01*
X12691920Y-13807960D02*
X12672872Y-13817484D01*
X12672872Y-13817484D02*
X12625253Y-13817484D01*
X12625253Y-13817484D02*
X12606206Y-13807960D01*
X12606206Y-13807960D02*
X12596682Y-13798436D01*
X12777634Y-13617484D02*
X12910967Y-13617484D01*
X12910967Y-13617484D02*
X12825253Y-13817484D01*
X12977634Y-13617484D02*
X12977634Y-13655579D01*
X13053825Y-13617484D02*
X13053825Y-13655579D01*
X13349063Y-13893674D02*
X13339539Y-13884150D01*
X13339539Y-13884150D02*
X13320491Y-13855579D01*
X13320491Y-13855579D02*
X13310968Y-13836531D01*
X13310968Y-13836531D02*
X13301444Y-13807960D01*
X13301444Y-13807960D02*
X13291920Y-13760341D01*
X13291920Y-13760341D02*
X13291920Y-13722246D01*
X13291920Y-13722246D02*
X13301444Y-13674627D01*
X13301444Y-13674627D02*
X13310968Y-13646055D01*
X13310968Y-13646055D02*
X13320491Y-13627008D01*
X13320491Y-13627008D02*
X13339539Y-13598436D01*
X13339539Y-13598436D02*
X13349063Y-13588912D01*
X13530015Y-13817484D02*
X13415729Y-13817484D01*
X13472872Y-13817484D02*
X13472872Y-13617484D01*
X13472872Y-13617484D02*
X13453825Y-13646055D01*
X13453825Y-13646055D02*
X13434777Y-13665103D01*
X13434777Y-13665103D02*
X13415729Y-13674627D01*
X13596682Y-13617484D02*
X13730015Y-13617484D01*
X13730015Y-13617484D02*
X13644301Y-13817484D01*
X13958587Y-13817484D02*
X13958587Y-13617484D01*
X14044301Y-13817484D02*
X14044301Y-13712722D01*
X14044301Y-13712722D02*
X14034777Y-13693674D01*
X14034777Y-13693674D02*
X14015730Y-13684150D01*
X14015730Y-13684150D02*
X13987158Y-13684150D01*
X13987158Y-13684150D02*
X13968110Y-13693674D01*
X13968110Y-13693674D02*
X13958587Y-13703198D01*
X14168110Y-13817484D02*
X14149063Y-13807960D01*
X14149063Y-13807960D02*
X14139539Y-13798436D01*
X14139539Y-13798436D02*
X14130015Y-13779388D01*
X14130015Y-13779388D02*
X14130015Y-13722246D01*
X14130015Y-13722246D02*
X14139539Y-13703198D01*
X14139539Y-13703198D02*
X14149063Y-13693674D01*
X14149063Y-13693674D02*
X14168110Y-13684150D01*
X14168110Y-13684150D02*
X14196682Y-13684150D01*
X14196682Y-13684150D02*
X14215730Y-13693674D01*
X14215730Y-13693674D02*
X14225253Y-13703198D01*
X14225253Y-13703198D02*
X14234777Y-13722246D01*
X14234777Y-13722246D02*
X14234777Y-13779388D01*
X14234777Y-13779388D02*
X14225253Y-13798436D01*
X14225253Y-13798436D02*
X14215730Y-13807960D01*
X14215730Y-13807960D02*
X14196682Y-13817484D01*
X14196682Y-13817484D02*
X14168110Y-13817484D01*
X14349063Y-13817484D02*
X14330015Y-13807960D01*
X14330015Y-13807960D02*
X14320491Y-13788912D01*
X14320491Y-13788912D02*
X14320491Y-13617484D01*
X14501444Y-13807960D02*
X14482396Y-13817484D01*
X14482396Y-13817484D02*
X14444301Y-13817484D01*
X14444301Y-13817484D02*
X14425253Y-13807960D01*
X14425253Y-13807960D02*
X14415730Y-13788912D01*
X14415730Y-13788912D02*
X14415730Y-13712722D01*
X14415730Y-13712722D02*
X14425253Y-13693674D01*
X14425253Y-13693674D02*
X14444301Y-13684150D01*
X14444301Y-13684150D02*
X14482396Y-13684150D01*
X14482396Y-13684150D02*
X14501444Y-13693674D01*
X14501444Y-13693674D02*
X14510968Y-13712722D01*
X14510968Y-13712722D02*
X14510968Y-13731769D01*
X14510968Y-13731769D02*
X14415730Y-13750817D01*
X14587158Y-13807960D02*
X14606206Y-13817484D01*
X14606206Y-13817484D02*
X14644301Y-13817484D01*
X14644301Y-13817484D02*
X14663349Y-13807960D01*
X14663349Y-13807960D02*
X14672872Y-13788912D01*
X14672872Y-13788912D02*
X14672872Y-13779388D01*
X14672872Y-13779388D02*
X14663349Y-13760341D01*
X14663349Y-13760341D02*
X14644301Y-13750817D01*
X14644301Y-13750817D02*
X14615730Y-13750817D01*
X14615730Y-13750817D02*
X14596682Y-13741293D01*
X14596682Y-13741293D02*
X14587158Y-13722246D01*
X14587158Y-13722246D02*
X14587158Y-13712722D01*
X14587158Y-13712722D02*
X14596682Y-13693674D01*
X14596682Y-13693674D02*
X14615730Y-13684150D01*
X14615730Y-13684150D02*
X14644301Y-13684150D01*
X14644301Y-13684150D02*
X14663349Y-13693674D01*
X14739539Y-13893674D02*
X14749063Y-13884150D01*
X14749063Y-13884150D02*
X14768111Y-13855579D01*
X14768111Y-13855579D02*
X14777634Y-13836531D01*
X14777634Y-13836531D02*
X14787158Y-13807960D01*
X14787158Y-13807960D02*
X14796682Y-13760341D01*
X14796682Y-13760341D02*
X14796682Y-13722246D01*
X14796682Y-13722246D02*
X14787158Y-13674627D01*
X14787158Y-13674627D02*
X14777634Y-13646055D01*
X14777634Y-13646055D02*
X14768111Y-13627008D01*
X14768111Y-13627008D02*
X14749063Y-13598436D01*
X14749063Y-13598436D02*
X14739539Y-13588912D01*
D13*
X9774000Y-13990000D02*
G75*
G03*
X9774000Y-13990000I-30000J0D01*
G01*
D11*
X10072872Y-13881484D02*
X10091920Y-13881484D01*
X10091920Y-13881484D02*
X10110967Y-13891008D01*
X10110967Y-13891008D02*
X10120491Y-13900531D01*
X10120491Y-13900531D02*
X10130015Y-13919579D01*
X10130015Y-13919579D02*
X10139539Y-13957674D01*
X10139539Y-13957674D02*
X10139539Y-14005293D01*
X10139539Y-14005293D02*
X10130015Y-14043388D01*
X10130015Y-14043388D02*
X10120491Y-14062436D01*
X10120491Y-14062436D02*
X10110967Y-14071960D01*
X10110967Y-14071960D02*
X10091920Y-14081484D01*
X10091920Y-14081484D02*
X10072872Y-14081484D01*
X10072872Y-14081484D02*
X10053824Y-14071960D01*
X10053824Y-14071960D02*
X10044301Y-14062436D01*
X10044301Y-14062436D02*
X10034777Y-14043388D01*
X10034777Y-14043388D02*
X10025253Y-14005293D01*
X10025253Y-14005293D02*
X10025253Y-13957674D01*
X10025253Y-13957674D02*
X10034777Y-13919579D01*
X10034777Y-13919579D02*
X10044301Y-13900531D01*
X10044301Y-13900531D02*
X10053824Y-13891008D01*
X10053824Y-13891008D02*
X10072872Y-13881484D01*
X10225253Y-14062436D02*
X10234777Y-14071960D01*
X10234777Y-14071960D02*
X10225253Y-14081484D01*
X10225253Y-14081484D02*
X10215729Y-14071960D01*
X10215729Y-14071960D02*
X10225253Y-14062436D01*
X10225253Y-14062436D02*
X10225253Y-14081484D01*
X10406205Y-13881484D02*
X10368110Y-13881484D01*
X10368110Y-13881484D02*
X10349063Y-13891008D01*
X10349063Y-13891008D02*
X10339539Y-13900531D01*
X10339539Y-13900531D02*
X10320491Y-13929103D01*
X10320491Y-13929103D02*
X10310967Y-13967198D01*
X10310967Y-13967198D02*
X10310967Y-14043388D01*
X10310967Y-14043388D02*
X10320491Y-14062436D01*
X10320491Y-14062436D02*
X10330015Y-14071960D01*
X10330015Y-14071960D02*
X10349063Y-14081484D01*
X10349063Y-14081484D02*
X10387158Y-14081484D01*
X10387158Y-14081484D02*
X10406205Y-14071960D01*
X10406205Y-14071960D02*
X10415729Y-14062436D01*
X10415729Y-14062436D02*
X10425253Y-14043388D01*
X10425253Y-14043388D02*
X10425253Y-13995769D01*
X10425253Y-13995769D02*
X10415729Y-13976722D01*
X10415729Y-13976722D02*
X10406205Y-13967198D01*
X10406205Y-13967198D02*
X10387158Y-13957674D01*
X10387158Y-13957674D02*
X10349063Y-13957674D01*
X10349063Y-13957674D02*
X10330015Y-13967198D01*
X10330015Y-13967198D02*
X10320491Y-13976722D01*
X10320491Y-13976722D02*
X10310967Y-13995769D01*
X10549063Y-13881484D02*
X10568110Y-13881484D01*
X10568110Y-13881484D02*
X10587158Y-13891008D01*
X10587158Y-13891008D02*
X10596682Y-13900531D01*
X10596682Y-13900531D02*
X10606205Y-13919579D01*
X10606205Y-13919579D02*
X10615729Y-13957674D01*
X10615729Y-13957674D02*
X10615729Y-14005293D01*
X10615729Y-14005293D02*
X10606205Y-14043388D01*
X10606205Y-14043388D02*
X10596682Y-14062436D01*
X10596682Y-14062436D02*
X10587158Y-14071960D01*
X10587158Y-14071960D02*
X10568110Y-14081484D01*
X10568110Y-14081484D02*
X10549063Y-14081484D01*
X10549063Y-14081484D02*
X10530015Y-14071960D01*
X10530015Y-14071960D02*
X10520491Y-14062436D01*
X10520491Y-14062436D02*
X10510967Y-14043388D01*
X10510967Y-14043388D02*
X10501444Y-14005293D01*
X10501444Y-14005293D02*
X10501444Y-13957674D01*
X10501444Y-13957674D02*
X10510967Y-13919579D01*
X10510967Y-13919579D02*
X10520491Y-13900531D01*
X10520491Y-13900531D02*
X10530015Y-13891008D01*
X10530015Y-13891008D02*
X10549063Y-13881484D01*
X10739539Y-13881484D02*
X10758586Y-13881484D01*
X10758586Y-13881484D02*
X10777634Y-13891008D01*
X10777634Y-13891008D02*
X10787158Y-13900531D01*
X10787158Y-13900531D02*
X10796682Y-13919579D01*
X10796682Y-13919579D02*
X10806205Y-13957674D01*
X10806205Y-13957674D02*
X10806205Y-14005293D01*
X10806205Y-14005293D02*
X10796682Y-14043388D01*
X10796682Y-14043388D02*
X10787158Y-14062436D01*
X10787158Y-14062436D02*
X10777634Y-14071960D01*
X10777634Y-14071960D02*
X10758586Y-14081484D01*
X10758586Y-14081484D02*
X10739539Y-14081484D01*
X10739539Y-14081484D02*
X10720491Y-14071960D01*
X10720491Y-14071960D02*
X10710967Y-14062436D01*
X10710967Y-14062436D02*
X10701444Y-14043388D01*
X10701444Y-14043388D02*
X10691920Y-14005293D01*
X10691920Y-14005293D02*
X10691920Y-13957674D01*
X10691920Y-13957674D02*
X10701444Y-13919579D01*
X10701444Y-13919579D02*
X10710967Y-13900531D01*
X10710967Y-13900531D02*
X10720491Y-13891008D01*
X10720491Y-13891008D02*
X10739539Y-13881484D01*
X10891920Y-14081484D02*
X10891920Y-13948150D01*
X10891920Y-13967198D02*
X10901444Y-13957674D01*
X10901444Y-13957674D02*
X10920491Y-13948150D01*
X10920491Y-13948150D02*
X10949063Y-13948150D01*
X10949063Y-13948150D02*
X10968110Y-13957674D01*
X10968110Y-13957674D02*
X10977634Y-13976722D01*
X10977634Y-13976722D02*
X10977634Y-14081484D01*
X10977634Y-13976722D02*
X10987158Y-13957674D01*
X10987158Y-13957674D02*
X11006205Y-13948150D01*
X11006205Y-13948150D02*
X11034777Y-13948150D01*
X11034777Y-13948150D02*
X11053825Y-13957674D01*
X11053825Y-13957674D02*
X11063348Y-13976722D01*
X11063348Y-13976722D02*
X11063348Y-14081484D01*
X11158586Y-14081484D02*
X11158586Y-13948150D01*
X11158586Y-13967198D02*
X11168110Y-13957674D01*
X11168110Y-13957674D02*
X11187158Y-13948150D01*
X11187158Y-13948150D02*
X11215729Y-13948150D01*
X11215729Y-13948150D02*
X11234777Y-13957674D01*
X11234777Y-13957674D02*
X11244301Y-13976722D01*
X11244301Y-13976722D02*
X11244301Y-14081484D01*
X11244301Y-13976722D02*
X11253824Y-13957674D01*
X11253824Y-13957674D02*
X11272872Y-13948150D01*
X11272872Y-13948150D02*
X11301443Y-13948150D01*
X11301443Y-13948150D02*
X11320491Y-13957674D01*
X11320491Y-13957674D02*
X11330015Y-13976722D01*
X11330015Y-13976722D02*
X11330015Y-14081484D01*
X11720491Y-13871960D02*
X11549063Y-14129103D01*
X11977634Y-13881484D02*
X11996682Y-13881484D01*
X11996682Y-13881484D02*
X12015729Y-13891008D01*
X12015729Y-13891008D02*
X12025253Y-13900531D01*
X12025253Y-13900531D02*
X12034777Y-13919579D01*
X12034777Y-13919579D02*
X12044301Y-13957674D01*
X12044301Y-13957674D02*
X12044301Y-14005293D01*
X12044301Y-14005293D02*
X12034777Y-14043388D01*
X12034777Y-14043388D02*
X12025253Y-14062436D01*
X12025253Y-14062436D02*
X12015729Y-14071960D01*
X12015729Y-14071960D02*
X11996682Y-14081484D01*
X11996682Y-14081484D02*
X11977634Y-14081484D01*
X11977634Y-14081484D02*
X11958586Y-14071960D01*
X11958586Y-14071960D02*
X11949063Y-14062436D01*
X11949063Y-14062436D02*
X11939539Y-14043388D01*
X11939539Y-14043388D02*
X11930015Y-14005293D01*
X11930015Y-14005293D02*
X11930015Y-13957674D01*
X11930015Y-13957674D02*
X11939539Y-13919579D01*
X11939539Y-13919579D02*
X11949063Y-13900531D01*
X11949063Y-13900531D02*
X11958586Y-13891008D01*
X11958586Y-13891008D02*
X11977634Y-13881484D01*
X12130015Y-14062436D02*
X12139539Y-14071960D01*
X12139539Y-14071960D02*
X12130015Y-14081484D01*
X12130015Y-14081484D02*
X12120491Y-14071960D01*
X12120491Y-14071960D02*
X12130015Y-14062436D01*
X12130015Y-14062436D02*
X12130015Y-14081484D01*
X12263348Y-13881484D02*
X12282396Y-13881484D01*
X12282396Y-13881484D02*
X12301444Y-13891008D01*
X12301444Y-13891008D02*
X12310967Y-13900531D01*
X12310967Y-13900531D02*
X12320491Y-13919579D01*
X12320491Y-13919579D02*
X12330015Y-13957674D01*
X12330015Y-13957674D02*
X12330015Y-14005293D01*
X12330015Y-14005293D02*
X12320491Y-14043388D01*
X12320491Y-14043388D02*
X12310967Y-14062436D01*
X12310967Y-14062436D02*
X12301444Y-14071960D01*
X12301444Y-14071960D02*
X12282396Y-14081484D01*
X12282396Y-14081484D02*
X12263348Y-14081484D01*
X12263348Y-14081484D02*
X12244301Y-14071960D01*
X12244301Y-14071960D02*
X12234777Y-14062436D01*
X12234777Y-14062436D02*
X12225253Y-14043388D01*
X12225253Y-14043388D02*
X12215729Y-14005293D01*
X12215729Y-14005293D02*
X12215729Y-13957674D01*
X12215729Y-13957674D02*
X12225253Y-13919579D01*
X12225253Y-13919579D02*
X12234777Y-13900531D01*
X12234777Y-13900531D02*
X12244301Y-13891008D01*
X12244301Y-13891008D02*
X12263348Y-13881484D01*
X12406206Y-13900531D02*
X12415729Y-13891008D01*
X12415729Y-13891008D02*
X12434777Y-13881484D01*
X12434777Y-13881484D02*
X12482396Y-13881484D01*
X12482396Y-13881484D02*
X12501444Y-13891008D01*
X12501444Y-13891008D02*
X12510967Y-13900531D01*
X12510967Y-13900531D02*
X12520491Y-13919579D01*
X12520491Y-13919579D02*
X12520491Y-13938627D01*
X12520491Y-13938627D02*
X12510967Y-13967198D01*
X12510967Y-13967198D02*
X12396682Y-14081484D01*
X12396682Y-14081484D02*
X12520491Y-14081484D01*
X12587158Y-13881484D02*
X12710967Y-13881484D01*
X12710967Y-13881484D02*
X12644301Y-13957674D01*
X12644301Y-13957674D02*
X12672872Y-13957674D01*
X12672872Y-13957674D02*
X12691920Y-13967198D01*
X12691920Y-13967198D02*
X12701444Y-13976722D01*
X12701444Y-13976722D02*
X12710967Y-13995769D01*
X12710967Y-13995769D02*
X12710967Y-14043388D01*
X12710967Y-14043388D02*
X12701444Y-14062436D01*
X12701444Y-14062436D02*
X12691920Y-14071960D01*
X12691920Y-14071960D02*
X12672872Y-14081484D01*
X12672872Y-14081484D02*
X12615729Y-14081484D01*
X12615729Y-14081484D02*
X12596682Y-14071960D01*
X12596682Y-14071960D02*
X12587158Y-14062436D01*
X12882396Y-13881484D02*
X12844301Y-13881484D01*
X12844301Y-13881484D02*
X12825253Y-13891008D01*
X12825253Y-13891008D02*
X12815729Y-13900531D01*
X12815729Y-13900531D02*
X12796682Y-13929103D01*
X12796682Y-13929103D02*
X12787158Y-13967198D01*
X12787158Y-13967198D02*
X12787158Y-14043388D01*
X12787158Y-14043388D02*
X12796682Y-14062436D01*
X12796682Y-14062436D02*
X12806206Y-14071960D01*
X12806206Y-14071960D02*
X12825253Y-14081484D01*
X12825253Y-14081484D02*
X12863348Y-14081484D01*
X12863348Y-14081484D02*
X12882396Y-14071960D01*
X12882396Y-14071960D02*
X12891920Y-14062436D01*
X12891920Y-14062436D02*
X12901444Y-14043388D01*
X12901444Y-14043388D02*
X12901444Y-13995769D01*
X12901444Y-13995769D02*
X12891920Y-13976722D01*
X12891920Y-13976722D02*
X12882396Y-13967198D01*
X12882396Y-13967198D02*
X12863348Y-13957674D01*
X12863348Y-13957674D02*
X12825253Y-13957674D01*
X12825253Y-13957674D02*
X12806206Y-13967198D01*
X12806206Y-13967198D02*
X12796682Y-13976722D01*
X12796682Y-13976722D02*
X12787158Y-13995769D01*
X12977634Y-13881484D02*
X12977634Y-13919579D01*
X13053825Y-13881484D02*
X13053825Y-13919579D01*
X13349063Y-14157674D02*
X13339539Y-14148150D01*
X13339539Y-14148150D02*
X13320491Y-14119579D01*
X13320491Y-14119579D02*
X13310968Y-14100531D01*
X13310968Y-14100531D02*
X13301444Y-14071960D01*
X13301444Y-14071960D02*
X13291920Y-14024341D01*
X13291920Y-14024341D02*
X13291920Y-13986246D01*
X13291920Y-13986246D02*
X13301444Y-13938627D01*
X13301444Y-13938627D02*
X13310968Y-13910055D01*
X13310968Y-13910055D02*
X13320491Y-13891008D01*
X13320491Y-13891008D02*
X13339539Y-13862436D01*
X13339539Y-13862436D02*
X13349063Y-13852912D01*
X13415729Y-13900531D02*
X13425253Y-13891008D01*
X13425253Y-13891008D02*
X13444301Y-13881484D01*
X13444301Y-13881484D02*
X13491920Y-13881484D01*
X13491920Y-13881484D02*
X13510968Y-13891008D01*
X13510968Y-13891008D02*
X13520491Y-13900531D01*
X13520491Y-13900531D02*
X13530015Y-13919579D01*
X13530015Y-13919579D02*
X13530015Y-13938627D01*
X13530015Y-13938627D02*
X13520491Y-13967198D01*
X13520491Y-13967198D02*
X13406206Y-14081484D01*
X13406206Y-14081484D02*
X13530015Y-14081484D01*
X13768110Y-14081484D02*
X13768110Y-13881484D01*
X13853825Y-14081484D02*
X13853825Y-13976722D01*
X13853825Y-13976722D02*
X13844301Y-13957674D01*
X13844301Y-13957674D02*
X13825253Y-13948150D01*
X13825253Y-13948150D02*
X13796682Y-13948150D01*
X13796682Y-13948150D02*
X13777634Y-13957674D01*
X13777634Y-13957674D02*
X13768110Y-13967198D01*
X13977634Y-14081484D02*
X13958587Y-14071960D01*
X13958587Y-14071960D02*
X13949063Y-14062436D01*
X13949063Y-14062436D02*
X13939539Y-14043388D01*
X13939539Y-14043388D02*
X13939539Y-13986246D01*
X13939539Y-13986246D02*
X13949063Y-13967198D01*
X13949063Y-13967198D02*
X13958587Y-13957674D01*
X13958587Y-13957674D02*
X13977634Y-13948150D01*
X13977634Y-13948150D02*
X14006206Y-13948150D01*
X14006206Y-13948150D02*
X14025253Y-13957674D01*
X14025253Y-13957674D02*
X14034777Y-13967198D01*
X14034777Y-13967198D02*
X14044301Y-13986246D01*
X14044301Y-13986246D02*
X14044301Y-14043388D01*
X14044301Y-14043388D02*
X14034777Y-14062436D01*
X14034777Y-14062436D02*
X14025253Y-14071960D01*
X14025253Y-14071960D02*
X14006206Y-14081484D01*
X14006206Y-14081484D02*
X13977634Y-14081484D01*
X14158587Y-14081484D02*
X14139539Y-14071960D01*
X14139539Y-14071960D02*
X14130015Y-14052912D01*
X14130015Y-14052912D02*
X14130015Y-13881484D01*
X14310968Y-14071960D02*
X14291920Y-14081484D01*
X14291920Y-14081484D02*
X14253825Y-14081484D01*
X14253825Y-14081484D02*
X14234777Y-14071960D01*
X14234777Y-14071960D02*
X14225253Y-14052912D01*
X14225253Y-14052912D02*
X14225253Y-13976722D01*
X14225253Y-13976722D02*
X14234777Y-13957674D01*
X14234777Y-13957674D02*
X14253825Y-13948150D01*
X14253825Y-13948150D02*
X14291920Y-13948150D01*
X14291920Y-13948150D02*
X14310968Y-13957674D01*
X14310968Y-13957674D02*
X14320491Y-13976722D01*
X14320491Y-13976722D02*
X14320491Y-13995769D01*
X14320491Y-13995769D02*
X14225253Y-14014817D01*
X14396682Y-14071960D02*
X14415730Y-14081484D01*
X14415730Y-14081484D02*
X14453825Y-14081484D01*
X14453825Y-14081484D02*
X14472872Y-14071960D01*
X14472872Y-14071960D02*
X14482396Y-14052912D01*
X14482396Y-14052912D02*
X14482396Y-14043388D01*
X14482396Y-14043388D02*
X14472872Y-14024341D01*
X14472872Y-14024341D02*
X14453825Y-14014817D01*
X14453825Y-14014817D02*
X14425253Y-14014817D01*
X14425253Y-14014817D02*
X14406206Y-14005293D01*
X14406206Y-14005293D02*
X14396682Y-13986246D01*
X14396682Y-13986246D02*
X14396682Y-13976722D01*
X14396682Y-13976722D02*
X14406206Y-13957674D01*
X14406206Y-13957674D02*
X14425253Y-13948150D01*
X14425253Y-13948150D02*
X14453825Y-13948150D01*
X14453825Y-13948150D02*
X14472872Y-13957674D01*
X14549063Y-14157674D02*
X14558587Y-14148150D01*
X14558587Y-14148150D02*
X14577634Y-14119579D01*
X14577634Y-14119579D02*
X14587158Y-14100531D01*
X14587158Y-14100531D02*
X14596682Y-14071960D01*
X14596682Y-14071960D02*
X14606206Y-14024341D01*
X14606206Y-14024341D02*
X14606206Y-13986246D01*
X14606206Y-13986246D02*
X14596682Y-13938627D01*
X14596682Y-13938627D02*
X14587158Y-13910055D01*
X14587158Y-13910055D02*
X14577634Y-13891008D01*
X14577634Y-13891008D02*
X14558587Y-13862436D01*
X14558587Y-13862436D02*
X14549063Y-13852912D01*
D14*
X9734000Y-14214000D02*
X9734000Y-14294000D01*
X9694000Y-14254000D02*
X9774000Y-14254000D01*
D11*
X10072872Y-14145484D02*
X10091920Y-14145484D01*
X10091920Y-14145484D02*
X10110967Y-14155008D01*
X10110967Y-14155008D02*
X10120491Y-14164531D01*
X10120491Y-14164531D02*
X10130015Y-14183579D01*
X10130015Y-14183579D02*
X10139539Y-14221674D01*
X10139539Y-14221674D02*
X10139539Y-14269293D01*
X10139539Y-14269293D02*
X10130015Y-14307388D01*
X10130015Y-14307388D02*
X10120491Y-14326436D01*
X10120491Y-14326436D02*
X10110967Y-14335960D01*
X10110967Y-14335960D02*
X10091920Y-14345484D01*
X10091920Y-14345484D02*
X10072872Y-14345484D01*
X10072872Y-14345484D02*
X10053824Y-14335960D01*
X10053824Y-14335960D02*
X10044301Y-14326436D01*
X10044301Y-14326436D02*
X10034777Y-14307388D01*
X10034777Y-14307388D02*
X10025253Y-14269293D01*
X10025253Y-14269293D02*
X10025253Y-14221674D01*
X10025253Y-14221674D02*
X10034777Y-14183579D01*
X10034777Y-14183579D02*
X10044301Y-14164531D01*
X10044301Y-14164531D02*
X10053824Y-14155008D01*
X10053824Y-14155008D02*
X10072872Y-14145484D01*
X10225253Y-14326436D02*
X10234777Y-14335960D01*
X10234777Y-14335960D02*
X10225253Y-14345484D01*
X10225253Y-14345484D02*
X10215729Y-14335960D01*
X10215729Y-14335960D02*
X10225253Y-14326436D01*
X10225253Y-14326436D02*
X10225253Y-14345484D01*
X10349063Y-14231198D02*
X10330015Y-14221674D01*
X10330015Y-14221674D02*
X10320491Y-14212150D01*
X10320491Y-14212150D02*
X10310967Y-14193103D01*
X10310967Y-14193103D02*
X10310967Y-14183579D01*
X10310967Y-14183579D02*
X10320491Y-14164531D01*
X10320491Y-14164531D02*
X10330015Y-14155008D01*
X10330015Y-14155008D02*
X10349063Y-14145484D01*
X10349063Y-14145484D02*
X10387158Y-14145484D01*
X10387158Y-14145484D02*
X10406205Y-14155008D01*
X10406205Y-14155008D02*
X10415729Y-14164531D01*
X10415729Y-14164531D02*
X10425253Y-14183579D01*
X10425253Y-14183579D02*
X10425253Y-14193103D01*
X10425253Y-14193103D02*
X10415729Y-14212150D01*
X10415729Y-14212150D02*
X10406205Y-14221674D01*
X10406205Y-14221674D02*
X10387158Y-14231198D01*
X10387158Y-14231198D02*
X10349063Y-14231198D01*
X10349063Y-14231198D02*
X10330015Y-14240722D01*
X10330015Y-14240722D02*
X10320491Y-14250246D01*
X10320491Y-14250246D02*
X10310967Y-14269293D01*
X10310967Y-14269293D02*
X10310967Y-14307388D01*
X10310967Y-14307388D02*
X10320491Y-14326436D01*
X10320491Y-14326436D02*
X10330015Y-14335960D01*
X10330015Y-14335960D02*
X10349063Y-14345484D01*
X10349063Y-14345484D02*
X10387158Y-14345484D01*
X10387158Y-14345484D02*
X10406205Y-14335960D01*
X10406205Y-14335960D02*
X10415729Y-14326436D01*
X10415729Y-14326436D02*
X10425253Y-14307388D01*
X10425253Y-14307388D02*
X10425253Y-14269293D01*
X10425253Y-14269293D02*
X10415729Y-14250246D01*
X10415729Y-14250246D02*
X10406205Y-14240722D01*
X10406205Y-14240722D02*
X10387158Y-14231198D01*
X10549063Y-14145484D02*
X10568110Y-14145484D01*
X10568110Y-14145484D02*
X10587158Y-14155008D01*
X10587158Y-14155008D02*
X10596682Y-14164531D01*
X10596682Y-14164531D02*
X10606205Y-14183579D01*
X10606205Y-14183579D02*
X10615729Y-14221674D01*
X10615729Y-14221674D02*
X10615729Y-14269293D01*
X10615729Y-14269293D02*
X10606205Y-14307388D01*
X10606205Y-14307388D02*
X10596682Y-14326436D01*
X10596682Y-14326436D02*
X10587158Y-14335960D01*
X10587158Y-14335960D02*
X10568110Y-14345484D01*
X10568110Y-14345484D02*
X10549063Y-14345484D01*
X10549063Y-14345484D02*
X10530015Y-14335960D01*
X10530015Y-14335960D02*
X10520491Y-14326436D01*
X10520491Y-14326436D02*
X10510967Y-14307388D01*
X10510967Y-14307388D02*
X10501444Y-14269293D01*
X10501444Y-14269293D02*
X10501444Y-14221674D01*
X10501444Y-14221674D02*
X10510967Y-14183579D01*
X10510967Y-14183579D02*
X10520491Y-14164531D01*
X10520491Y-14164531D02*
X10530015Y-14155008D01*
X10530015Y-14155008D02*
X10549063Y-14145484D01*
X10739539Y-14145484D02*
X10758586Y-14145484D01*
X10758586Y-14145484D02*
X10777634Y-14155008D01*
X10777634Y-14155008D02*
X10787158Y-14164531D01*
X10787158Y-14164531D02*
X10796682Y-14183579D01*
X10796682Y-14183579D02*
X10806205Y-14221674D01*
X10806205Y-14221674D02*
X10806205Y-14269293D01*
X10806205Y-14269293D02*
X10796682Y-14307388D01*
X10796682Y-14307388D02*
X10787158Y-14326436D01*
X10787158Y-14326436D02*
X10777634Y-14335960D01*
X10777634Y-14335960D02*
X10758586Y-14345484D01*
X10758586Y-14345484D02*
X10739539Y-14345484D01*
X10739539Y-14345484D02*
X10720491Y-14335960D01*
X10720491Y-14335960D02*
X10710967Y-14326436D01*
X10710967Y-14326436D02*
X10701444Y-14307388D01*
X10701444Y-14307388D02*
X10691920Y-14269293D01*
X10691920Y-14269293D02*
X10691920Y-14221674D01*
X10691920Y-14221674D02*
X10701444Y-14183579D01*
X10701444Y-14183579D02*
X10710967Y-14164531D01*
X10710967Y-14164531D02*
X10720491Y-14155008D01*
X10720491Y-14155008D02*
X10739539Y-14145484D01*
X10891920Y-14345484D02*
X10891920Y-14212150D01*
X10891920Y-14231198D02*
X10901444Y-14221674D01*
X10901444Y-14221674D02*
X10920491Y-14212150D01*
X10920491Y-14212150D02*
X10949063Y-14212150D01*
X10949063Y-14212150D02*
X10968110Y-14221674D01*
X10968110Y-14221674D02*
X10977634Y-14240722D01*
X10977634Y-14240722D02*
X10977634Y-14345484D01*
X10977634Y-14240722D02*
X10987158Y-14221674D01*
X10987158Y-14221674D02*
X11006205Y-14212150D01*
X11006205Y-14212150D02*
X11034777Y-14212150D01*
X11034777Y-14212150D02*
X11053825Y-14221674D01*
X11053825Y-14221674D02*
X11063348Y-14240722D01*
X11063348Y-14240722D02*
X11063348Y-14345484D01*
X11158586Y-14345484D02*
X11158586Y-14212150D01*
X11158586Y-14231198D02*
X11168110Y-14221674D01*
X11168110Y-14221674D02*
X11187158Y-14212150D01*
X11187158Y-14212150D02*
X11215729Y-14212150D01*
X11215729Y-14212150D02*
X11234777Y-14221674D01*
X11234777Y-14221674D02*
X11244301Y-14240722D01*
X11244301Y-14240722D02*
X11244301Y-14345484D01*
X11244301Y-14240722D02*
X11253824Y-14221674D01*
X11253824Y-14221674D02*
X11272872Y-14212150D01*
X11272872Y-14212150D02*
X11301443Y-14212150D01*
X11301443Y-14212150D02*
X11320491Y-14221674D01*
X11320491Y-14221674D02*
X11330015Y-14240722D01*
X11330015Y-14240722D02*
X11330015Y-14345484D01*
X11720491Y-14135960D02*
X11549063Y-14393103D01*
X11977634Y-14145484D02*
X11996682Y-14145484D01*
X11996682Y-14145484D02*
X12015729Y-14155008D01*
X12015729Y-14155008D02*
X12025253Y-14164531D01*
X12025253Y-14164531D02*
X12034777Y-14183579D01*
X12034777Y-14183579D02*
X12044301Y-14221674D01*
X12044301Y-14221674D02*
X12044301Y-14269293D01*
X12044301Y-14269293D02*
X12034777Y-14307388D01*
X12034777Y-14307388D02*
X12025253Y-14326436D01*
X12025253Y-14326436D02*
X12015729Y-14335960D01*
X12015729Y-14335960D02*
X11996682Y-14345484D01*
X11996682Y-14345484D02*
X11977634Y-14345484D01*
X11977634Y-14345484D02*
X11958586Y-14335960D01*
X11958586Y-14335960D02*
X11949063Y-14326436D01*
X11949063Y-14326436D02*
X11939539Y-14307388D01*
X11939539Y-14307388D02*
X11930015Y-14269293D01*
X11930015Y-14269293D02*
X11930015Y-14221674D01*
X11930015Y-14221674D02*
X11939539Y-14183579D01*
X11939539Y-14183579D02*
X11949063Y-14164531D01*
X11949063Y-14164531D02*
X11958586Y-14155008D01*
X11958586Y-14155008D02*
X11977634Y-14145484D01*
X12130015Y-14326436D02*
X12139539Y-14335960D01*
X12139539Y-14335960D02*
X12130015Y-14345484D01*
X12130015Y-14345484D02*
X12120491Y-14335960D01*
X12120491Y-14335960D02*
X12130015Y-14326436D01*
X12130015Y-14326436D02*
X12130015Y-14345484D01*
X12263348Y-14145484D02*
X12282396Y-14145484D01*
X12282396Y-14145484D02*
X12301444Y-14155008D01*
X12301444Y-14155008D02*
X12310967Y-14164531D01*
X12310967Y-14164531D02*
X12320491Y-14183579D01*
X12320491Y-14183579D02*
X12330015Y-14221674D01*
X12330015Y-14221674D02*
X12330015Y-14269293D01*
X12330015Y-14269293D02*
X12320491Y-14307388D01*
X12320491Y-14307388D02*
X12310967Y-14326436D01*
X12310967Y-14326436D02*
X12301444Y-14335960D01*
X12301444Y-14335960D02*
X12282396Y-14345484D01*
X12282396Y-14345484D02*
X12263348Y-14345484D01*
X12263348Y-14345484D02*
X12244301Y-14335960D01*
X12244301Y-14335960D02*
X12234777Y-14326436D01*
X12234777Y-14326436D02*
X12225253Y-14307388D01*
X12225253Y-14307388D02*
X12215729Y-14269293D01*
X12215729Y-14269293D02*
X12215729Y-14221674D01*
X12215729Y-14221674D02*
X12225253Y-14183579D01*
X12225253Y-14183579D02*
X12234777Y-14164531D01*
X12234777Y-14164531D02*
X12244301Y-14155008D01*
X12244301Y-14155008D02*
X12263348Y-14145484D01*
X12396682Y-14145484D02*
X12520491Y-14145484D01*
X12520491Y-14145484D02*
X12453825Y-14221674D01*
X12453825Y-14221674D02*
X12482396Y-14221674D01*
X12482396Y-14221674D02*
X12501444Y-14231198D01*
X12501444Y-14231198D02*
X12510967Y-14240722D01*
X12510967Y-14240722D02*
X12520491Y-14259769D01*
X12520491Y-14259769D02*
X12520491Y-14307388D01*
X12520491Y-14307388D02*
X12510967Y-14326436D01*
X12510967Y-14326436D02*
X12501444Y-14335960D01*
X12501444Y-14335960D02*
X12482396Y-14345484D01*
X12482396Y-14345484D02*
X12425253Y-14345484D01*
X12425253Y-14345484D02*
X12406206Y-14335960D01*
X12406206Y-14335960D02*
X12396682Y-14326436D01*
X12710967Y-14345484D02*
X12596682Y-14345484D01*
X12653825Y-14345484D02*
X12653825Y-14145484D01*
X12653825Y-14145484D02*
X12634777Y-14174055D01*
X12634777Y-14174055D02*
X12615729Y-14193103D01*
X12615729Y-14193103D02*
X12596682Y-14202627D01*
X12891920Y-14145484D02*
X12796682Y-14145484D01*
X12796682Y-14145484D02*
X12787158Y-14240722D01*
X12787158Y-14240722D02*
X12796682Y-14231198D01*
X12796682Y-14231198D02*
X12815729Y-14221674D01*
X12815729Y-14221674D02*
X12863348Y-14221674D01*
X12863348Y-14221674D02*
X12882396Y-14231198D01*
X12882396Y-14231198D02*
X12891920Y-14240722D01*
X12891920Y-14240722D02*
X12901444Y-14259769D01*
X12901444Y-14259769D02*
X12901444Y-14307388D01*
X12901444Y-14307388D02*
X12891920Y-14326436D01*
X12891920Y-14326436D02*
X12882396Y-14335960D01*
X12882396Y-14335960D02*
X12863348Y-14345484D01*
X12863348Y-14345484D02*
X12815729Y-14345484D01*
X12815729Y-14345484D02*
X12796682Y-14335960D01*
X12796682Y-14335960D02*
X12787158Y-14326436D01*
X12977634Y-14145484D02*
X12977634Y-14183579D01*
X13053825Y-14145484D02*
X13053825Y-14183579D01*
X13349063Y-14421674D02*
X13339539Y-14412150D01*
X13339539Y-14412150D02*
X13320491Y-14383579D01*
X13320491Y-14383579D02*
X13310968Y-14364531D01*
X13310968Y-14364531D02*
X13301444Y-14335960D01*
X13301444Y-14335960D02*
X13291920Y-14288341D01*
X13291920Y-14288341D02*
X13291920Y-14250246D01*
X13291920Y-14250246D02*
X13301444Y-14202627D01*
X13301444Y-14202627D02*
X13310968Y-14174055D01*
X13310968Y-14174055D02*
X13320491Y-14155008D01*
X13320491Y-14155008D02*
X13339539Y-14126436D01*
X13339539Y-14126436D02*
X13349063Y-14116912D01*
X13530015Y-14345484D02*
X13415729Y-14345484D01*
X13472872Y-14345484D02*
X13472872Y-14145484D01*
X13472872Y-14145484D02*
X13453825Y-14174055D01*
X13453825Y-14174055D02*
X13434777Y-14193103D01*
X13434777Y-14193103D02*
X13415729Y-14202627D01*
X13644301Y-14231198D02*
X13625253Y-14221674D01*
X13625253Y-14221674D02*
X13615729Y-14212150D01*
X13615729Y-14212150D02*
X13606206Y-14193103D01*
X13606206Y-14193103D02*
X13606206Y-14183579D01*
X13606206Y-14183579D02*
X13615729Y-14164531D01*
X13615729Y-14164531D02*
X13625253Y-14155008D01*
X13625253Y-14155008D02*
X13644301Y-14145484D01*
X13644301Y-14145484D02*
X13682396Y-14145484D01*
X13682396Y-14145484D02*
X13701444Y-14155008D01*
X13701444Y-14155008D02*
X13710968Y-14164531D01*
X13710968Y-14164531D02*
X13720491Y-14183579D01*
X13720491Y-14183579D02*
X13720491Y-14193103D01*
X13720491Y-14193103D02*
X13710968Y-14212150D01*
X13710968Y-14212150D02*
X13701444Y-14221674D01*
X13701444Y-14221674D02*
X13682396Y-14231198D01*
X13682396Y-14231198D02*
X13644301Y-14231198D01*
X13644301Y-14231198D02*
X13625253Y-14240722D01*
X13625253Y-14240722D02*
X13615729Y-14250246D01*
X13615729Y-14250246D02*
X13606206Y-14269293D01*
X13606206Y-14269293D02*
X13606206Y-14307388D01*
X13606206Y-14307388D02*
X13615729Y-14326436D01*
X13615729Y-14326436D02*
X13625253Y-14335960D01*
X13625253Y-14335960D02*
X13644301Y-14345484D01*
X13644301Y-14345484D02*
X13682396Y-14345484D01*
X13682396Y-14345484D02*
X13701444Y-14335960D01*
X13701444Y-14335960D02*
X13710968Y-14326436D01*
X13710968Y-14326436D02*
X13720491Y-14307388D01*
X13720491Y-14307388D02*
X13720491Y-14269293D01*
X13720491Y-14269293D02*
X13710968Y-14250246D01*
X13710968Y-14250246D02*
X13701444Y-14240722D01*
X13701444Y-14240722D02*
X13682396Y-14231198D01*
X13958587Y-14345484D02*
X13958587Y-14145484D01*
X14044301Y-14345484D02*
X14044301Y-14240722D01*
X14044301Y-14240722D02*
X14034777Y-14221674D01*
X14034777Y-14221674D02*
X14015730Y-14212150D01*
X14015730Y-14212150D02*
X13987158Y-14212150D01*
X13987158Y-14212150D02*
X13968110Y-14221674D01*
X13968110Y-14221674D02*
X13958587Y-14231198D01*
X14168110Y-14345484D02*
X14149063Y-14335960D01*
X14149063Y-14335960D02*
X14139539Y-14326436D01*
X14139539Y-14326436D02*
X14130015Y-14307388D01*
X14130015Y-14307388D02*
X14130015Y-14250246D01*
X14130015Y-14250246D02*
X14139539Y-14231198D01*
X14139539Y-14231198D02*
X14149063Y-14221674D01*
X14149063Y-14221674D02*
X14168110Y-14212150D01*
X14168110Y-14212150D02*
X14196682Y-14212150D01*
X14196682Y-14212150D02*
X14215730Y-14221674D01*
X14215730Y-14221674D02*
X14225253Y-14231198D01*
X14225253Y-14231198D02*
X14234777Y-14250246D01*
X14234777Y-14250246D02*
X14234777Y-14307388D01*
X14234777Y-14307388D02*
X14225253Y-14326436D01*
X14225253Y-14326436D02*
X14215730Y-14335960D01*
X14215730Y-14335960D02*
X14196682Y-14345484D01*
X14196682Y-14345484D02*
X14168110Y-14345484D01*
X14349063Y-14345484D02*
X14330015Y-14335960D01*
X14330015Y-14335960D02*
X14320491Y-14316912D01*
X14320491Y-14316912D02*
X14320491Y-14145484D01*
X14501444Y-14335960D02*
X14482396Y-14345484D01*
X14482396Y-14345484D02*
X14444301Y-14345484D01*
X14444301Y-14345484D02*
X14425253Y-14335960D01*
X14425253Y-14335960D02*
X14415730Y-14316912D01*
X14415730Y-14316912D02*
X14415730Y-14240722D01*
X14415730Y-14240722D02*
X14425253Y-14221674D01*
X14425253Y-14221674D02*
X14444301Y-14212150D01*
X14444301Y-14212150D02*
X14482396Y-14212150D01*
X14482396Y-14212150D02*
X14501444Y-14221674D01*
X14501444Y-14221674D02*
X14510968Y-14240722D01*
X14510968Y-14240722D02*
X14510968Y-14259769D01*
X14510968Y-14259769D02*
X14415730Y-14278817D01*
X14587158Y-14335960D02*
X14606206Y-14345484D01*
X14606206Y-14345484D02*
X14644301Y-14345484D01*
X14644301Y-14345484D02*
X14663349Y-14335960D01*
X14663349Y-14335960D02*
X14672872Y-14316912D01*
X14672872Y-14316912D02*
X14672872Y-14307388D01*
X14672872Y-14307388D02*
X14663349Y-14288341D01*
X14663349Y-14288341D02*
X14644301Y-14278817D01*
X14644301Y-14278817D02*
X14615730Y-14278817D01*
X14615730Y-14278817D02*
X14596682Y-14269293D01*
X14596682Y-14269293D02*
X14587158Y-14250246D01*
X14587158Y-14250246D02*
X14587158Y-14240722D01*
X14587158Y-14240722D02*
X14596682Y-14221674D01*
X14596682Y-14221674D02*
X14615730Y-14212150D01*
X14615730Y-14212150D02*
X14644301Y-14212150D01*
X14644301Y-14212150D02*
X14663349Y-14221674D01*
X14739539Y-14421674D02*
X14749063Y-14412150D01*
X14749063Y-14412150D02*
X14768111Y-14383579D01*
X14768111Y-14383579D02*
X14777634Y-14364531D01*
X14777634Y-14364531D02*
X14787158Y-14335960D01*
X14787158Y-14335960D02*
X14796682Y-14288341D01*
X14796682Y-14288341D02*
X14796682Y-14250246D01*
X14796682Y-14250246D02*
X14787158Y-14202627D01*
X14787158Y-14202627D02*
X14777634Y-14174055D01*
X14777634Y-14174055D02*
X14768111Y-14155008D01*
X14768111Y-14155008D02*
X14749063Y-14126436D01*
X14749063Y-14126436D02*
X14739539Y-14116912D01*
D10*
X9759356Y-14553356D02*
X9759356Y-14482644D01*
X9688644Y-14482644D01*
X9688644Y-14553356D01*
X9759356Y-14553356D01*
D11*
X10139539Y-14609484D02*
X10025253Y-14609484D01*
X10082396Y-14609484D02*
X10082396Y-14409484D01*
X10082396Y-14409484D02*
X10063348Y-14438055D01*
X10063348Y-14438055D02*
X10044301Y-14457103D01*
X10044301Y-14457103D02*
X10025253Y-14466627D01*
X10225253Y-14590436D02*
X10234777Y-14599960D01*
X10234777Y-14599960D02*
X10225253Y-14609484D01*
X10225253Y-14609484D02*
X10215729Y-14599960D01*
X10215729Y-14599960D02*
X10225253Y-14590436D01*
X10225253Y-14590436D02*
X10225253Y-14609484D01*
X10358586Y-14409484D02*
X10377634Y-14409484D01*
X10377634Y-14409484D02*
X10396682Y-14419008D01*
X10396682Y-14419008D02*
X10406205Y-14428531D01*
X10406205Y-14428531D02*
X10415729Y-14447579D01*
X10415729Y-14447579D02*
X10425253Y-14485674D01*
X10425253Y-14485674D02*
X10425253Y-14533293D01*
X10425253Y-14533293D02*
X10415729Y-14571388D01*
X10415729Y-14571388D02*
X10406205Y-14590436D01*
X10406205Y-14590436D02*
X10396682Y-14599960D01*
X10396682Y-14599960D02*
X10377634Y-14609484D01*
X10377634Y-14609484D02*
X10358586Y-14609484D01*
X10358586Y-14609484D02*
X10339539Y-14599960D01*
X10339539Y-14599960D02*
X10330015Y-14590436D01*
X10330015Y-14590436D02*
X10320491Y-14571388D01*
X10320491Y-14571388D02*
X10310967Y-14533293D01*
X10310967Y-14533293D02*
X10310967Y-14485674D01*
X10310967Y-14485674D02*
X10320491Y-14447579D01*
X10320491Y-14447579D02*
X10330015Y-14428531D01*
X10330015Y-14428531D02*
X10339539Y-14419008D01*
X10339539Y-14419008D02*
X10358586Y-14409484D01*
X10549063Y-14409484D02*
X10568110Y-14409484D01*
X10568110Y-14409484D02*
X10587158Y-14419008D01*
X10587158Y-14419008D02*
X10596682Y-14428531D01*
X10596682Y-14428531D02*
X10606205Y-14447579D01*
X10606205Y-14447579D02*
X10615729Y-14485674D01*
X10615729Y-14485674D02*
X10615729Y-14533293D01*
X10615729Y-14533293D02*
X10606205Y-14571388D01*
X10606205Y-14571388D02*
X10596682Y-14590436D01*
X10596682Y-14590436D02*
X10587158Y-14599960D01*
X10587158Y-14599960D02*
X10568110Y-14609484D01*
X10568110Y-14609484D02*
X10549063Y-14609484D01*
X10549063Y-14609484D02*
X10530015Y-14599960D01*
X10530015Y-14599960D02*
X10520491Y-14590436D01*
X10520491Y-14590436D02*
X10510967Y-14571388D01*
X10510967Y-14571388D02*
X10501444Y-14533293D01*
X10501444Y-14533293D02*
X10501444Y-14485674D01*
X10501444Y-14485674D02*
X10510967Y-14447579D01*
X10510967Y-14447579D02*
X10520491Y-14428531D01*
X10520491Y-14428531D02*
X10530015Y-14419008D01*
X10530015Y-14419008D02*
X10549063Y-14409484D01*
X10739539Y-14409484D02*
X10758586Y-14409484D01*
X10758586Y-14409484D02*
X10777634Y-14419008D01*
X10777634Y-14419008D02*
X10787158Y-14428531D01*
X10787158Y-14428531D02*
X10796682Y-14447579D01*
X10796682Y-14447579D02*
X10806205Y-14485674D01*
X10806205Y-14485674D02*
X10806205Y-14533293D01*
X10806205Y-14533293D02*
X10796682Y-14571388D01*
X10796682Y-14571388D02*
X10787158Y-14590436D01*
X10787158Y-14590436D02*
X10777634Y-14599960D01*
X10777634Y-14599960D02*
X10758586Y-14609484D01*
X10758586Y-14609484D02*
X10739539Y-14609484D01*
X10739539Y-14609484D02*
X10720491Y-14599960D01*
X10720491Y-14599960D02*
X10710967Y-14590436D01*
X10710967Y-14590436D02*
X10701444Y-14571388D01*
X10701444Y-14571388D02*
X10691920Y-14533293D01*
X10691920Y-14533293D02*
X10691920Y-14485674D01*
X10691920Y-14485674D02*
X10701444Y-14447579D01*
X10701444Y-14447579D02*
X10710967Y-14428531D01*
X10710967Y-14428531D02*
X10720491Y-14419008D01*
X10720491Y-14419008D02*
X10739539Y-14409484D01*
X10891920Y-14609484D02*
X10891920Y-14476150D01*
X10891920Y-14495198D02*
X10901444Y-14485674D01*
X10901444Y-14485674D02*
X10920491Y-14476150D01*
X10920491Y-14476150D02*
X10949063Y-14476150D01*
X10949063Y-14476150D02*
X10968110Y-14485674D01*
X10968110Y-14485674D02*
X10977634Y-14504722D01*
X10977634Y-14504722D02*
X10977634Y-14609484D01*
X10977634Y-14504722D02*
X10987158Y-14485674D01*
X10987158Y-14485674D02*
X11006205Y-14476150D01*
X11006205Y-14476150D02*
X11034777Y-14476150D01*
X11034777Y-14476150D02*
X11053825Y-14485674D01*
X11053825Y-14485674D02*
X11063348Y-14504722D01*
X11063348Y-14504722D02*
X11063348Y-14609484D01*
X11158586Y-14609484D02*
X11158586Y-14476150D01*
X11158586Y-14495198D02*
X11168110Y-14485674D01*
X11168110Y-14485674D02*
X11187158Y-14476150D01*
X11187158Y-14476150D02*
X11215729Y-14476150D01*
X11215729Y-14476150D02*
X11234777Y-14485674D01*
X11234777Y-14485674D02*
X11244301Y-14504722D01*
X11244301Y-14504722D02*
X11244301Y-14609484D01*
X11244301Y-14504722D02*
X11253824Y-14485674D01*
X11253824Y-14485674D02*
X11272872Y-14476150D01*
X11272872Y-14476150D02*
X11301443Y-14476150D01*
X11301443Y-14476150D02*
X11320491Y-14485674D01*
X11320491Y-14485674D02*
X11330015Y-14504722D01*
X11330015Y-14504722D02*
X11330015Y-14609484D01*
X11720491Y-14399960D02*
X11549063Y-14657103D01*
X11977634Y-14409484D02*
X11996682Y-14409484D01*
X11996682Y-14409484D02*
X12015729Y-14419008D01*
X12015729Y-14419008D02*
X12025253Y-14428531D01*
X12025253Y-14428531D02*
X12034777Y-14447579D01*
X12034777Y-14447579D02*
X12044301Y-14485674D01*
X12044301Y-14485674D02*
X12044301Y-14533293D01*
X12044301Y-14533293D02*
X12034777Y-14571388D01*
X12034777Y-14571388D02*
X12025253Y-14590436D01*
X12025253Y-14590436D02*
X12015729Y-14599960D01*
X12015729Y-14599960D02*
X11996682Y-14609484D01*
X11996682Y-14609484D02*
X11977634Y-14609484D01*
X11977634Y-14609484D02*
X11958586Y-14599960D01*
X11958586Y-14599960D02*
X11949063Y-14590436D01*
X11949063Y-14590436D02*
X11939539Y-14571388D01*
X11939539Y-14571388D02*
X11930015Y-14533293D01*
X11930015Y-14533293D02*
X11930015Y-14485674D01*
X11930015Y-14485674D02*
X11939539Y-14447579D01*
X11939539Y-14447579D02*
X11949063Y-14428531D01*
X11949063Y-14428531D02*
X11958586Y-14419008D01*
X11958586Y-14419008D02*
X11977634Y-14409484D01*
X12130015Y-14590436D02*
X12139539Y-14599960D01*
X12139539Y-14599960D02*
X12130015Y-14609484D01*
X12130015Y-14609484D02*
X12120491Y-14599960D01*
X12120491Y-14599960D02*
X12130015Y-14590436D01*
X12130015Y-14590436D02*
X12130015Y-14609484D01*
X12263348Y-14409484D02*
X12282396Y-14409484D01*
X12282396Y-14409484D02*
X12301444Y-14419008D01*
X12301444Y-14419008D02*
X12310967Y-14428531D01*
X12310967Y-14428531D02*
X12320491Y-14447579D01*
X12320491Y-14447579D02*
X12330015Y-14485674D01*
X12330015Y-14485674D02*
X12330015Y-14533293D01*
X12330015Y-14533293D02*
X12320491Y-14571388D01*
X12320491Y-14571388D02*
X12310967Y-14590436D01*
X12310967Y-14590436D02*
X12301444Y-14599960D01*
X12301444Y-14599960D02*
X12282396Y-14609484D01*
X12282396Y-14609484D02*
X12263348Y-14609484D01*
X12263348Y-14609484D02*
X12244301Y-14599960D01*
X12244301Y-14599960D02*
X12234777Y-14590436D01*
X12234777Y-14590436D02*
X12225253Y-14571388D01*
X12225253Y-14571388D02*
X12215729Y-14533293D01*
X12215729Y-14533293D02*
X12215729Y-14485674D01*
X12215729Y-14485674D02*
X12225253Y-14447579D01*
X12225253Y-14447579D02*
X12234777Y-14428531D01*
X12234777Y-14428531D02*
X12244301Y-14419008D01*
X12244301Y-14419008D02*
X12263348Y-14409484D01*
X12396682Y-14409484D02*
X12520491Y-14409484D01*
X12520491Y-14409484D02*
X12453825Y-14485674D01*
X12453825Y-14485674D02*
X12482396Y-14485674D01*
X12482396Y-14485674D02*
X12501444Y-14495198D01*
X12501444Y-14495198D02*
X12510967Y-14504722D01*
X12510967Y-14504722D02*
X12520491Y-14523769D01*
X12520491Y-14523769D02*
X12520491Y-14571388D01*
X12520491Y-14571388D02*
X12510967Y-14590436D01*
X12510967Y-14590436D02*
X12501444Y-14599960D01*
X12501444Y-14599960D02*
X12482396Y-14609484D01*
X12482396Y-14609484D02*
X12425253Y-14609484D01*
X12425253Y-14609484D02*
X12406206Y-14599960D01*
X12406206Y-14599960D02*
X12396682Y-14590436D01*
X12615729Y-14609484D02*
X12653825Y-14609484D01*
X12653825Y-14609484D02*
X12672872Y-14599960D01*
X12672872Y-14599960D02*
X12682396Y-14590436D01*
X12682396Y-14590436D02*
X12701444Y-14561865D01*
X12701444Y-14561865D02*
X12710967Y-14523769D01*
X12710967Y-14523769D02*
X12710967Y-14447579D01*
X12710967Y-14447579D02*
X12701444Y-14428531D01*
X12701444Y-14428531D02*
X12691920Y-14419008D01*
X12691920Y-14419008D02*
X12672872Y-14409484D01*
X12672872Y-14409484D02*
X12634777Y-14409484D01*
X12634777Y-14409484D02*
X12615729Y-14419008D01*
X12615729Y-14419008D02*
X12606206Y-14428531D01*
X12606206Y-14428531D02*
X12596682Y-14447579D01*
X12596682Y-14447579D02*
X12596682Y-14495198D01*
X12596682Y-14495198D02*
X12606206Y-14514246D01*
X12606206Y-14514246D02*
X12615729Y-14523769D01*
X12615729Y-14523769D02*
X12634777Y-14533293D01*
X12634777Y-14533293D02*
X12672872Y-14533293D01*
X12672872Y-14533293D02*
X12691920Y-14523769D01*
X12691920Y-14523769D02*
X12701444Y-14514246D01*
X12701444Y-14514246D02*
X12710967Y-14495198D01*
X12882396Y-14476150D02*
X12882396Y-14609484D01*
X12834777Y-14399960D02*
X12787158Y-14542817D01*
X12787158Y-14542817D02*
X12910967Y-14542817D01*
X12977634Y-14409484D02*
X12977634Y-14447579D01*
X13053825Y-14409484D02*
X13053825Y-14447579D01*
X13349063Y-14685674D02*
X13339539Y-14676150D01*
X13339539Y-14676150D02*
X13320491Y-14647579D01*
X13320491Y-14647579D02*
X13310968Y-14628531D01*
X13310968Y-14628531D02*
X13301444Y-14599960D01*
X13301444Y-14599960D02*
X13291920Y-14552341D01*
X13291920Y-14552341D02*
X13291920Y-14514246D01*
X13291920Y-14514246D02*
X13301444Y-14466627D01*
X13301444Y-14466627D02*
X13310968Y-14438055D01*
X13310968Y-14438055D02*
X13320491Y-14419008D01*
X13320491Y-14419008D02*
X13339539Y-14390436D01*
X13339539Y-14390436D02*
X13349063Y-14380912D01*
X13530015Y-14609484D02*
X13415729Y-14609484D01*
X13472872Y-14609484D02*
X13472872Y-14409484D01*
X13472872Y-14409484D02*
X13453825Y-14438055D01*
X13453825Y-14438055D02*
X13434777Y-14457103D01*
X13434777Y-14457103D02*
X13415729Y-14466627D01*
X13653825Y-14409484D02*
X13672872Y-14409484D01*
X13672872Y-14409484D02*
X13691920Y-14419008D01*
X13691920Y-14419008D02*
X13701444Y-14428531D01*
X13701444Y-14428531D02*
X13710968Y-14447579D01*
X13710968Y-14447579D02*
X13720491Y-14485674D01*
X13720491Y-14485674D02*
X13720491Y-14533293D01*
X13720491Y-14533293D02*
X13710968Y-14571388D01*
X13710968Y-14571388D02*
X13701444Y-14590436D01*
X13701444Y-14590436D02*
X13691920Y-14599960D01*
X13691920Y-14599960D02*
X13672872Y-14609484D01*
X13672872Y-14609484D02*
X13653825Y-14609484D01*
X13653825Y-14609484D02*
X13634777Y-14599960D01*
X13634777Y-14599960D02*
X13625253Y-14590436D01*
X13625253Y-14590436D02*
X13615729Y-14571388D01*
X13615729Y-14571388D02*
X13606206Y-14533293D01*
X13606206Y-14533293D02*
X13606206Y-14485674D01*
X13606206Y-14485674D02*
X13615729Y-14447579D01*
X13615729Y-14447579D02*
X13625253Y-14428531D01*
X13625253Y-14428531D02*
X13634777Y-14419008D01*
X13634777Y-14419008D02*
X13653825Y-14409484D01*
X13958587Y-14609484D02*
X13958587Y-14409484D01*
X14044301Y-14609484D02*
X14044301Y-14504722D01*
X14044301Y-14504722D02*
X14034777Y-14485674D01*
X14034777Y-14485674D02*
X14015730Y-14476150D01*
X14015730Y-14476150D02*
X13987158Y-14476150D01*
X13987158Y-14476150D02*
X13968110Y-14485674D01*
X13968110Y-14485674D02*
X13958587Y-14495198D01*
X14168110Y-14609484D02*
X14149063Y-14599960D01*
X14149063Y-14599960D02*
X14139539Y-14590436D01*
X14139539Y-14590436D02*
X14130015Y-14571388D01*
X14130015Y-14571388D02*
X14130015Y-14514246D01*
X14130015Y-14514246D02*
X14139539Y-14495198D01*
X14139539Y-14495198D02*
X14149063Y-14485674D01*
X14149063Y-14485674D02*
X14168110Y-14476150D01*
X14168110Y-14476150D02*
X14196682Y-14476150D01*
X14196682Y-14476150D02*
X14215730Y-14485674D01*
X14215730Y-14485674D02*
X14225253Y-14495198D01*
X14225253Y-14495198D02*
X14234777Y-14514246D01*
X14234777Y-14514246D02*
X14234777Y-14571388D01*
X14234777Y-14571388D02*
X14225253Y-14590436D01*
X14225253Y-14590436D02*
X14215730Y-14599960D01*
X14215730Y-14599960D02*
X14196682Y-14609484D01*
X14196682Y-14609484D02*
X14168110Y-14609484D01*
X14349063Y-14609484D02*
X14330015Y-14599960D01*
X14330015Y-14599960D02*
X14320491Y-14580912D01*
X14320491Y-14580912D02*
X14320491Y-14409484D01*
X14501444Y-14599960D02*
X14482396Y-14609484D01*
X14482396Y-14609484D02*
X14444301Y-14609484D01*
X14444301Y-14609484D02*
X14425253Y-14599960D01*
X14425253Y-14599960D02*
X14415730Y-14580912D01*
X14415730Y-14580912D02*
X14415730Y-14504722D01*
X14415730Y-14504722D02*
X14425253Y-14485674D01*
X14425253Y-14485674D02*
X14444301Y-14476150D01*
X14444301Y-14476150D02*
X14482396Y-14476150D01*
X14482396Y-14476150D02*
X14501444Y-14485674D01*
X14501444Y-14485674D02*
X14510968Y-14504722D01*
X14510968Y-14504722D02*
X14510968Y-14523769D01*
X14510968Y-14523769D02*
X14415730Y-14542817D01*
X14587158Y-14599960D02*
X14606206Y-14609484D01*
X14606206Y-14609484D02*
X14644301Y-14609484D01*
X14644301Y-14609484D02*
X14663349Y-14599960D01*
X14663349Y-14599960D02*
X14672872Y-14580912D01*
X14672872Y-14580912D02*
X14672872Y-14571388D01*
X14672872Y-14571388D02*
X14663349Y-14552341D01*
X14663349Y-14552341D02*
X14644301Y-14542817D01*
X14644301Y-14542817D02*
X14615730Y-14542817D01*
X14615730Y-14542817D02*
X14596682Y-14533293D01*
X14596682Y-14533293D02*
X14587158Y-14514246D01*
X14587158Y-14514246D02*
X14587158Y-14504722D01*
X14587158Y-14504722D02*
X14596682Y-14485674D01*
X14596682Y-14485674D02*
X14615730Y-14476150D01*
X14615730Y-14476150D02*
X14644301Y-14476150D01*
X14644301Y-14476150D02*
X14663349Y-14485674D01*
X14739539Y-14685674D02*
X14749063Y-14676150D01*
X14749063Y-14676150D02*
X14768111Y-14647579D01*
X14768111Y-14647579D02*
X14777634Y-14628531D01*
X14777634Y-14628531D02*
X14787158Y-14599960D01*
X14787158Y-14599960D02*
X14796682Y-14552341D01*
X14796682Y-14552341D02*
X14796682Y-14514246D01*
X14796682Y-14514246D02*
X14787158Y-14466627D01*
X14787158Y-14466627D02*
X14777634Y-14438055D01*
X14777634Y-14438055D02*
X14768111Y-14419008D01*
X14768111Y-14419008D02*
X14749063Y-14390436D01*
X14749063Y-14390436D02*
X14739539Y-14380912D01*
D15*
X9723000Y-14833000D02*
X9774000Y-14782000D01*
X9723000Y-14731000D01*
X9672000Y-14782000D01*
X9723000Y-14833000D01*
D11*
X10139539Y-14873484D02*
X10025253Y-14873484D01*
X10082396Y-14873484D02*
X10082396Y-14673484D01*
X10082396Y-14673484D02*
X10063348Y-14702055D01*
X10063348Y-14702055D02*
X10044301Y-14721103D01*
X10044301Y-14721103D02*
X10025253Y-14730627D01*
X10225253Y-14854436D02*
X10234777Y-14863960D01*
X10234777Y-14863960D02*
X10225253Y-14873484D01*
X10225253Y-14873484D02*
X10215729Y-14863960D01*
X10215729Y-14863960D02*
X10225253Y-14854436D01*
X10225253Y-14854436D02*
X10225253Y-14873484D01*
X10358586Y-14673484D02*
X10377634Y-14673484D01*
X10377634Y-14673484D02*
X10396682Y-14683008D01*
X10396682Y-14683008D02*
X10406205Y-14692531D01*
X10406205Y-14692531D02*
X10415729Y-14711579D01*
X10415729Y-14711579D02*
X10425253Y-14749674D01*
X10425253Y-14749674D02*
X10425253Y-14797293D01*
X10425253Y-14797293D02*
X10415729Y-14835388D01*
X10415729Y-14835388D02*
X10406205Y-14854436D01*
X10406205Y-14854436D02*
X10396682Y-14863960D01*
X10396682Y-14863960D02*
X10377634Y-14873484D01*
X10377634Y-14873484D02*
X10358586Y-14873484D01*
X10358586Y-14873484D02*
X10339539Y-14863960D01*
X10339539Y-14863960D02*
X10330015Y-14854436D01*
X10330015Y-14854436D02*
X10320491Y-14835388D01*
X10320491Y-14835388D02*
X10310967Y-14797293D01*
X10310967Y-14797293D02*
X10310967Y-14749674D01*
X10310967Y-14749674D02*
X10320491Y-14711579D01*
X10320491Y-14711579D02*
X10330015Y-14692531D01*
X10330015Y-14692531D02*
X10339539Y-14683008D01*
X10339539Y-14683008D02*
X10358586Y-14673484D01*
X10501444Y-14692531D02*
X10510967Y-14683008D01*
X10510967Y-14683008D02*
X10530015Y-14673484D01*
X10530015Y-14673484D02*
X10577634Y-14673484D01*
X10577634Y-14673484D02*
X10596682Y-14683008D01*
X10596682Y-14683008D02*
X10606205Y-14692531D01*
X10606205Y-14692531D02*
X10615729Y-14711579D01*
X10615729Y-14711579D02*
X10615729Y-14730627D01*
X10615729Y-14730627D02*
X10606205Y-14759198D01*
X10606205Y-14759198D02*
X10491920Y-14873484D01*
X10491920Y-14873484D02*
X10615729Y-14873484D01*
X10739539Y-14673484D02*
X10758586Y-14673484D01*
X10758586Y-14673484D02*
X10777634Y-14683008D01*
X10777634Y-14683008D02*
X10787158Y-14692531D01*
X10787158Y-14692531D02*
X10796682Y-14711579D01*
X10796682Y-14711579D02*
X10806205Y-14749674D01*
X10806205Y-14749674D02*
X10806205Y-14797293D01*
X10806205Y-14797293D02*
X10796682Y-14835388D01*
X10796682Y-14835388D02*
X10787158Y-14854436D01*
X10787158Y-14854436D02*
X10777634Y-14863960D01*
X10777634Y-14863960D02*
X10758586Y-14873484D01*
X10758586Y-14873484D02*
X10739539Y-14873484D01*
X10739539Y-14873484D02*
X10720491Y-14863960D01*
X10720491Y-14863960D02*
X10710967Y-14854436D01*
X10710967Y-14854436D02*
X10701444Y-14835388D01*
X10701444Y-14835388D02*
X10691920Y-14797293D01*
X10691920Y-14797293D02*
X10691920Y-14749674D01*
X10691920Y-14749674D02*
X10701444Y-14711579D01*
X10701444Y-14711579D02*
X10710967Y-14692531D01*
X10710967Y-14692531D02*
X10720491Y-14683008D01*
X10720491Y-14683008D02*
X10739539Y-14673484D01*
X10891920Y-14873484D02*
X10891920Y-14740150D01*
X10891920Y-14759198D02*
X10901444Y-14749674D01*
X10901444Y-14749674D02*
X10920491Y-14740150D01*
X10920491Y-14740150D02*
X10949063Y-14740150D01*
X10949063Y-14740150D02*
X10968110Y-14749674D01*
X10968110Y-14749674D02*
X10977634Y-14768722D01*
X10977634Y-14768722D02*
X10977634Y-14873484D01*
X10977634Y-14768722D02*
X10987158Y-14749674D01*
X10987158Y-14749674D02*
X11006205Y-14740150D01*
X11006205Y-14740150D02*
X11034777Y-14740150D01*
X11034777Y-14740150D02*
X11053825Y-14749674D01*
X11053825Y-14749674D02*
X11063348Y-14768722D01*
X11063348Y-14768722D02*
X11063348Y-14873484D01*
X11158586Y-14873484D02*
X11158586Y-14740150D01*
X11158586Y-14759198D02*
X11168110Y-14749674D01*
X11168110Y-14749674D02*
X11187158Y-14740150D01*
X11187158Y-14740150D02*
X11215729Y-14740150D01*
X11215729Y-14740150D02*
X11234777Y-14749674D01*
X11234777Y-14749674D02*
X11244301Y-14768722D01*
X11244301Y-14768722D02*
X11244301Y-14873484D01*
X11244301Y-14768722D02*
X11253824Y-14749674D01*
X11253824Y-14749674D02*
X11272872Y-14740150D01*
X11272872Y-14740150D02*
X11301443Y-14740150D01*
X11301443Y-14740150D02*
X11320491Y-14749674D01*
X11320491Y-14749674D02*
X11330015Y-14768722D01*
X11330015Y-14768722D02*
X11330015Y-14873484D01*
X11720491Y-14663960D02*
X11549063Y-14921103D01*
X11977634Y-14673484D02*
X11996682Y-14673484D01*
X11996682Y-14673484D02*
X12015729Y-14683008D01*
X12015729Y-14683008D02*
X12025253Y-14692531D01*
X12025253Y-14692531D02*
X12034777Y-14711579D01*
X12034777Y-14711579D02*
X12044301Y-14749674D01*
X12044301Y-14749674D02*
X12044301Y-14797293D01*
X12044301Y-14797293D02*
X12034777Y-14835388D01*
X12034777Y-14835388D02*
X12025253Y-14854436D01*
X12025253Y-14854436D02*
X12015729Y-14863960D01*
X12015729Y-14863960D02*
X11996682Y-14873484D01*
X11996682Y-14873484D02*
X11977634Y-14873484D01*
X11977634Y-14873484D02*
X11958586Y-14863960D01*
X11958586Y-14863960D02*
X11949063Y-14854436D01*
X11949063Y-14854436D02*
X11939539Y-14835388D01*
X11939539Y-14835388D02*
X11930015Y-14797293D01*
X11930015Y-14797293D02*
X11930015Y-14749674D01*
X11930015Y-14749674D02*
X11939539Y-14711579D01*
X11939539Y-14711579D02*
X11949063Y-14692531D01*
X11949063Y-14692531D02*
X11958586Y-14683008D01*
X11958586Y-14683008D02*
X11977634Y-14673484D01*
X12130015Y-14854436D02*
X12139539Y-14863960D01*
X12139539Y-14863960D02*
X12130015Y-14873484D01*
X12130015Y-14873484D02*
X12120491Y-14863960D01*
X12120491Y-14863960D02*
X12130015Y-14854436D01*
X12130015Y-14854436D02*
X12130015Y-14873484D01*
X12263348Y-14673484D02*
X12282396Y-14673484D01*
X12282396Y-14673484D02*
X12301444Y-14683008D01*
X12301444Y-14683008D02*
X12310967Y-14692531D01*
X12310967Y-14692531D02*
X12320491Y-14711579D01*
X12320491Y-14711579D02*
X12330015Y-14749674D01*
X12330015Y-14749674D02*
X12330015Y-14797293D01*
X12330015Y-14797293D02*
X12320491Y-14835388D01*
X12320491Y-14835388D02*
X12310967Y-14854436D01*
X12310967Y-14854436D02*
X12301444Y-14863960D01*
X12301444Y-14863960D02*
X12282396Y-14873484D01*
X12282396Y-14873484D02*
X12263348Y-14873484D01*
X12263348Y-14873484D02*
X12244301Y-14863960D01*
X12244301Y-14863960D02*
X12234777Y-14854436D01*
X12234777Y-14854436D02*
X12225253Y-14835388D01*
X12225253Y-14835388D02*
X12215729Y-14797293D01*
X12215729Y-14797293D02*
X12215729Y-14749674D01*
X12215729Y-14749674D02*
X12225253Y-14711579D01*
X12225253Y-14711579D02*
X12234777Y-14692531D01*
X12234777Y-14692531D02*
X12244301Y-14683008D01*
X12244301Y-14683008D02*
X12263348Y-14673484D01*
X12501444Y-14740150D02*
X12501444Y-14873484D01*
X12453825Y-14663960D02*
X12406206Y-14806817D01*
X12406206Y-14806817D02*
X12530015Y-14806817D01*
X12644301Y-14673484D02*
X12663348Y-14673484D01*
X12663348Y-14673484D02*
X12682396Y-14683008D01*
X12682396Y-14683008D02*
X12691920Y-14692531D01*
X12691920Y-14692531D02*
X12701444Y-14711579D01*
X12701444Y-14711579D02*
X12710967Y-14749674D01*
X12710967Y-14749674D02*
X12710967Y-14797293D01*
X12710967Y-14797293D02*
X12701444Y-14835388D01*
X12701444Y-14835388D02*
X12691920Y-14854436D01*
X12691920Y-14854436D02*
X12682396Y-14863960D01*
X12682396Y-14863960D02*
X12663348Y-14873484D01*
X12663348Y-14873484D02*
X12644301Y-14873484D01*
X12644301Y-14873484D02*
X12625253Y-14863960D01*
X12625253Y-14863960D02*
X12615729Y-14854436D01*
X12615729Y-14854436D02*
X12606206Y-14835388D01*
X12606206Y-14835388D02*
X12596682Y-14797293D01*
X12596682Y-14797293D02*
X12596682Y-14749674D01*
X12596682Y-14749674D02*
X12606206Y-14711579D01*
X12606206Y-14711579D02*
X12615729Y-14692531D01*
X12615729Y-14692531D02*
X12625253Y-14683008D01*
X12625253Y-14683008D02*
X12644301Y-14673484D01*
X12787158Y-14692531D02*
X12796682Y-14683008D01*
X12796682Y-14683008D02*
X12815729Y-14673484D01*
X12815729Y-14673484D02*
X12863348Y-14673484D01*
X12863348Y-14673484D02*
X12882396Y-14683008D01*
X12882396Y-14683008D02*
X12891920Y-14692531D01*
X12891920Y-14692531D02*
X12901444Y-14711579D01*
X12901444Y-14711579D02*
X12901444Y-14730627D01*
X12901444Y-14730627D02*
X12891920Y-14759198D01*
X12891920Y-14759198D02*
X12777634Y-14873484D01*
X12777634Y-14873484D02*
X12901444Y-14873484D01*
X12977634Y-14673484D02*
X12977634Y-14711579D01*
X13053825Y-14673484D02*
X13053825Y-14711579D01*
X13349063Y-14949674D02*
X13339539Y-14940150D01*
X13339539Y-14940150D02*
X13320491Y-14911579D01*
X13320491Y-14911579D02*
X13310968Y-14892531D01*
X13310968Y-14892531D02*
X13301444Y-14863960D01*
X13301444Y-14863960D02*
X13291920Y-14816341D01*
X13291920Y-14816341D02*
X13291920Y-14778246D01*
X13291920Y-14778246D02*
X13301444Y-14730627D01*
X13301444Y-14730627D02*
X13310968Y-14702055D01*
X13310968Y-14702055D02*
X13320491Y-14683008D01*
X13320491Y-14683008D02*
X13339539Y-14654436D01*
X13339539Y-14654436D02*
X13349063Y-14644912D01*
X13406206Y-14673484D02*
X13530015Y-14673484D01*
X13530015Y-14673484D02*
X13463348Y-14749674D01*
X13463348Y-14749674D02*
X13491920Y-14749674D01*
X13491920Y-14749674D02*
X13510968Y-14759198D01*
X13510968Y-14759198D02*
X13520491Y-14768722D01*
X13520491Y-14768722D02*
X13530015Y-14787769D01*
X13530015Y-14787769D02*
X13530015Y-14835388D01*
X13530015Y-14835388D02*
X13520491Y-14854436D01*
X13520491Y-14854436D02*
X13510968Y-14863960D01*
X13510968Y-14863960D02*
X13491920Y-14873484D01*
X13491920Y-14873484D02*
X13434777Y-14873484D01*
X13434777Y-14873484D02*
X13415729Y-14863960D01*
X13415729Y-14863960D02*
X13406206Y-14854436D01*
X13653825Y-14673484D02*
X13672872Y-14673484D01*
X13672872Y-14673484D02*
X13691920Y-14683008D01*
X13691920Y-14683008D02*
X13701444Y-14692531D01*
X13701444Y-14692531D02*
X13710968Y-14711579D01*
X13710968Y-14711579D02*
X13720491Y-14749674D01*
X13720491Y-14749674D02*
X13720491Y-14797293D01*
X13720491Y-14797293D02*
X13710968Y-14835388D01*
X13710968Y-14835388D02*
X13701444Y-14854436D01*
X13701444Y-14854436D02*
X13691920Y-14863960D01*
X13691920Y-14863960D02*
X13672872Y-14873484D01*
X13672872Y-14873484D02*
X13653825Y-14873484D01*
X13653825Y-14873484D02*
X13634777Y-14863960D01*
X13634777Y-14863960D02*
X13625253Y-14854436D01*
X13625253Y-14854436D02*
X13615729Y-14835388D01*
X13615729Y-14835388D02*
X13606206Y-14797293D01*
X13606206Y-14797293D02*
X13606206Y-14749674D01*
X13606206Y-14749674D02*
X13615729Y-14711579D01*
X13615729Y-14711579D02*
X13625253Y-14692531D01*
X13625253Y-14692531D02*
X13634777Y-14683008D01*
X13634777Y-14683008D02*
X13653825Y-14673484D01*
X13958587Y-14873484D02*
X13958587Y-14673484D01*
X14044301Y-14873484D02*
X14044301Y-14768722D01*
X14044301Y-14768722D02*
X14034777Y-14749674D01*
X14034777Y-14749674D02*
X14015730Y-14740150D01*
X14015730Y-14740150D02*
X13987158Y-14740150D01*
X13987158Y-14740150D02*
X13968110Y-14749674D01*
X13968110Y-14749674D02*
X13958587Y-14759198D01*
X14168110Y-14873484D02*
X14149063Y-14863960D01*
X14149063Y-14863960D02*
X14139539Y-14854436D01*
X14139539Y-14854436D02*
X14130015Y-14835388D01*
X14130015Y-14835388D02*
X14130015Y-14778246D01*
X14130015Y-14778246D02*
X14139539Y-14759198D01*
X14139539Y-14759198D02*
X14149063Y-14749674D01*
X14149063Y-14749674D02*
X14168110Y-14740150D01*
X14168110Y-14740150D02*
X14196682Y-14740150D01*
X14196682Y-14740150D02*
X14215730Y-14749674D01*
X14215730Y-14749674D02*
X14225253Y-14759198D01*
X14225253Y-14759198D02*
X14234777Y-14778246D01*
X14234777Y-14778246D02*
X14234777Y-14835388D01*
X14234777Y-14835388D02*
X14225253Y-14854436D01*
X14225253Y-14854436D02*
X14215730Y-14863960D01*
X14215730Y-14863960D02*
X14196682Y-14873484D01*
X14196682Y-14873484D02*
X14168110Y-14873484D01*
X14349063Y-14873484D02*
X14330015Y-14863960D01*
X14330015Y-14863960D02*
X14320491Y-14844912D01*
X14320491Y-14844912D02*
X14320491Y-14673484D01*
X14501444Y-14863960D02*
X14482396Y-14873484D01*
X14482396Y-14873484D02*
X14444301Y-14873484D01*
X14444301Y-14873484D02*
X14425253Y-14863960D01*
X14425253Y-14863960D02*
X14415730Y-14844912D01*
X14415730Y-14844912D02*
X14415730Y-14768722D01*
X14415730Y-14768722D02*
X14425253Y-14749674D01*
X14425253Y-14749674D02*
X14444301Y-14740150D01*
X14444301Y-14740150D02*
X14482396Y-14740150D01*
X14482396Y-14740150D02*
X14501444Y-14749674D01*
X14501444Y-14749674D02*
X14510968Y-14768722D01*
X14510968Y-14768722D02*
X14510968Y-14787769D01*
X14510968Y-14787769D02*
X14415730Y-14806817D01*
X14587158Y-14863960D02*
X14606206Y-14873484D01*
X14606206Y-14873484D02*
X14644301Y-14873484D01*
X14644301Y-14873484D02*
X14663349Y-14863960D01*
X14663349Y-14863960D02*
X14672872Y-14844912D01*
X14672872Y-14844912D02*
X14672872Y-14835388D01*
X14672872Y-14835388D02*
X14663349Y-14816341D01*
X14663349Y-14816341D02*
X14644301Y-14806817D01*
X14644301Y-14806817D02*
X14615730Y-14806817D01*
X14615730Y-14806817D02*
X14596682Y-14797293D01*
X14596682Y-14797293D02*
X14587158Y-14778246D01*
X14587158Y-14778246D02*
X14587158Y-14768722D01*
X14587158Y-14768722D02*
X14596682Y-14749674D01*
X14596682Y-14749674D02*
X14615730Y-14740150D01*
X14615730Y-14740150D02*
X14644301Y-14740150D01*
X14644301Y-14740150D02*
X14663349Y-14749674D01*
X14739539Y-14949674D02*
X14749063Y-14940150D01*
X14749063Y-14940150D02*
X14768111Y-14911579D01*
X14768111Y-14911579D02*
X14777634Y-14892531D01*
X14777634Y-14892531D02*
X14787158Y-14863960D01*
X14787158Y-14863960D02*
X14796682Y-14816341D01*
X14796682Y-14816341D02*
X14796682Y-14778246D01*
X14796682Y-14778246D02*
X14787158Y-14730627D01*
X14787158Y-14730627D02*
X14777634Y-14702055D01*
X14777634Y-14702055D02*
X14768111Y-14683008D01*
X14768111Y-14683008D02*
X14749063Y-14654436D01*
X14749063Y-14654436D02*
X14739539Y-14644912D01*
D16*
X9664000Y-14991000D02*
X9774000Y-15101000D01*
X9774000Y-14991000D02*
X9664000Y-15101000D01*
X9774000Y-15046000D02*
G75*
G03*
X9774000Y-15046000I-55000J0D01*
G01*
D11*
X10139539Y-15137484D02*
X10025253Y-15137484D01*
X10082396Y-15137484D02*
X10082396Y-14937484D01*
X10082396Y-14937484D02*
X10063348Y-14966055D01*
X10063348Y-14966055D02*
X10044301Y-14985103D01*
X10044301Y-14985103D02*
X10025253Y-14994627D01*
X10225253Y-15118436D02*
X10234777Y-15127960D01*
X10234777Y-15127960D02*
X10225253Y-15137484D01*
X10225253Y-15137484D02*
X10215729Y-15127960D01*
X10215729Y-15127960D02*
X10225253Y-15118436D01*
X10225253Y-15118436D02*
X10225253Y-15137484D01*
X10425253Y-15137484D02*
X10310967Y-15137484D01*
X10368110Y-15137484D02*
X10368110Y-14937484D01*
X10368110Y-14937484D02*
X10349063Y-14966055D01*
X10349063Y-14966055D02*
X10330015Y-14985103D01*
X10330015Y-14985103D02*
X10310967Y-14994627D01*
X10549063Y-14937484D02*
X10568110Y-14937484D01*
X10568110Y-14937484D02*
X10587158Y-14947008D01*
X10587158Y-14947008D02*
X10596682Y-14956531D01*
X10596682Y-14956531D02*
X10606205Y-14975579D01*
X10606205Y-14975579D02*
X10615729Y-15013674D01*
X10615729Y-15013674D02*
X10615729Y-15061293D01*
X10615729Y-15061293D02*
X10606205Y-15099388D01*
X10606205Y-15099388D02*
X10596682Y-15118436D01*
X10596682Y-15118436D02*
X10587158Y-15127960D01*
X10587158Y-15127960D02*
X10568110Y-15137484D01*
X10568110Y-15137484D02*
X10549063Y-15137484D01*
X10549063Y-15137484D02*
X10530015Y-15127960D01*
X10530015Y-15127960D02*
X10520491Y-15118436D01*
X10520491Y-15118436D02*
X10510967Y-15099388D01*
X10510967Y-15099388D02*
X10501444Y-15061293D01*
X10501444Y-15061293D02*
X10501444Y-15013674D01*
X10501444Y-15013674D02*
X10510967Y-14975579D01*
X10510967Y-14975579D02*
X10520491Y-14956531D01*
X10520491Y-14956531D02*
X10530015Y-14947008D01*
X10530015Y-14947008D02*
X10549063Y-14937484D01*
X10739539Y-14937484D02*
X10758586Y-14937484D01*
X10758586Y-14937484D02*
X10777634Y-14947008D01*
X10777634Y-14947008D02*
X10787158Y-14956531D01*
X10787158Y-14956531D02*
X10796682Y-14975579D01*
X10796682Y-14975579D02*
X10806205Y-15013674D01*
X10806205Y-15013674D02*
X10806205Y-15061293D01*
X10806205Y-15061293D02*
X10796682Y-15099388D01*
X10796682Y-15099388D02*
X10787158Y-15118436D01*
X10787158Y-15118436D02*
X10777634Y-15127960D01*
X10777634Y-15127960D02*
X10758586Y-15137484D01*
X10758586Y-15137484D02*
X10739539Y-15137484D01*
X10739539Y-15137484D02*
X10720491Y-15127960D01*
X10720491Y-15127960D02*
X10710967Y-15118436D01*
X10710967Y-15118436D02*
X10701444Y-15099388D01*
X10701444Y-15099388D02*
X10691920Y-15061293D01*
X10691920Y-15061293D02*
X10691920Y-15013674D01*
X10691920Y-15013674D02*
X10701444Y-14975579D01*
X10701444Y-14975579D02*
X10710967Y-14956531D01*
X10710967Y-14956531D02*
X10720491Y-14947008D01*
X10720491Y-14947008D02*
X10739539Y-14937484D01*
X10891920Y-15137484D02*
X10891920Y-15004150D01*
X10891920Y-15023198D02*
X10901444Y-15013674D01*
X10901444Y-15013674D02*
X10920491Y-15004150D01*
X10920491Y-15004150D02*
X10949063Y-15004150D01*
X10949063Y-15004150D02*
X10968110Y-15013674D01*
X10968110Y-15013674D02*
X10977634Y-15032722D01*
X10977634Y-15032722D02*
X10977634Y-15137484D01*
X10977634Y-15032722D02*
X10987158Y-15013674D01*
X10987158Y-15013674D02*
X11006205Y-15004150D01*
X11006205Y-15004150D02*
X11034777Y-15004150D01*
X11034777Y-15004150D02*
X11053825Y-15013674D01*
X11053825Y-15013674D02*
X11063348Y-15032722D01*
X11063348Y-15032722D02*
X11063348Y-15137484D01*
X11158586Y-15137484D02*
X11158586Y-15004150D01*
X11158586Y-15023198D02*
X11168110Y-15013674D01*
X11168110Y-15013674D02*
X11187158Y-15004150D01*
X11187158Y-15004150D02*
X11215729Y-15004150D01*
X11215729Y-15004150D02*
X11234777Y-15013674D01*
X11234777Y-15013674D02*
X11244301Y-15032722D01*
X11244301Y-15032722D02*
X11244301Y-15137484D01*
X11244301Y-15032722D02*
X11253824Y-15013674D01*
X11253824Y-15013674D02*
X11272872Y-15004150D01*
X11272872Y-15004150D02*
X11301443Y-15004150D01*
X11301443Y-15004150D02*
X11320491Y-15013674D01*
X11320491Y-15013674D02*
X11330015Y-15032722D01*
X11330015Y-15032722D02*
X11330015Y-15137484D01*
X11720491Y-14927960D02*
X11549063Y-15185103D01*
X11977634Y-14937484D02*
X11996682Y-14937484D01*
X11996682Y-14937484D02*
X12015729Y-14947008D01*
X12015729Y-14947008D02*
X12025253Y-14956531D01*
X12025253Y-14956531D02*
X12034777Y-14975579D01*
X12034777Y-14975579D02*
X12044301Y-15013674D01*
X12044301Y-15013674D02*
X12044301Y-15061293D01*
X12044301Y-15061293D02*
X12034777Y-15099388D01*
X12034777Y-15099388D02*
X12025253Y-15118436D01*
X12025253Y-15118436D02*
X12015729Y-15127960D01*
X12015729Y-15127960D02*
X11996682Y-15137484D01*
X11996682Y-15137484D02*
X11977634Y-15137484D01*
X11977634Y-15137484D02*
X11958586Y-15127960D01*
X11958586Y-15127960D02*
X11949063Y-15118436D01*
X11949063Y-15118436D02*
X11939539Y-15099388D01*
X11939539Y-15099388D02*
X11930015Y-15061293D01*
X11930015Y-15061293D02*
X11930015Y-15013674D01*
X11930015Y-15013674D02*
X11939539Y-14975579D01*
X11939539Y-14975579D02*
X11949063Y-14956531D01*
X11949063Y-14956531D02*
X11958586Y-14947008D01*
X11958586Y-14947008D02*
X11977634Y-14937484D01*
X12130015Y-15118436D02*
X12139539Y-15127960D01*
X12139539Y-15127960D02*
X12130015Y-15137484D01*
X12130015Y-15137484D02*
X12120491Y-15127960D01*
X12120491Y-15127960D02*
X12130015Y-15118436D01*
X12130015Y-15118436D02*
X12130015Y-15137484D01*
X12263348Y-14937484D02*
X12282396Y-14937484D01*
X12282396Y-14937484D02*
X12301444Y-14947008D01*
X12301444Y-14947008D02*
X12310967Y-14956531D01*
X12310967Y-14956531D02*
X12320491Y-14975579D01*
X12320491Y-14975579D02*
X12330015Y-15013674D01*
X12330015Y-15013674D02*
X12330015Y-15061293D01*
X12330015Y-15061293D02*
X12320491Y-15099388D01*
X12320491Y-15099388D02*
X12310967Y-15118436D01*
X12310967Y-15118436D02*
X12301444Y-15127960D01*
X12301444Y-15127960D02*
X12282396Y-15137484D01*
X12282396Y-15137484D02*
X12263348Y-15137484D01*
X12263348Y-15137484D02*
X12244301Y-15127960D01*
X12244301Y-15127960D02*
X12234777Y-15118436D01*
X12234777Y-15118436D02*
X12225253Y-15099388D01*
X12225253Y-15099388D02*
X12215729Y-15061293D01*
X12215729Y-15061293D02*
X12215729Y-15013674D01*
X12215729Y-15013674D02*
X12225253Y-14975579D01*
X12225253Y-14975579D02*
X12234777Y-14956531D01*
X12234777Y-14956531D02*
X12244301Y-14947008D01*
X12244301Y-14947008D02*
X12263348Y-14937484D01*
X12501444Y-15004150D02*
X12501444Y-15137484D01*
X12453825Y-14927960D02*
X12406206Y-15070817D01*
X12406206Y-15070817D02*
X12530015Y-15070817D01*
X12587158Y-14937484D02*
X12710967Y-14937484D01*
X12710967Y-14937484D02*
X12644301Y-15013674D01*
X12644301Y-15013674D02*
X12672872Y-15013674D01*
X12672872Y-15013674D02*
X12691920Y-15023198D01*
X12691920Y-15023198D02*
X12701444Y-15032722D01*
X12701444Y-15032722D02*
X12710967Y-15051769D01*
X12710967Y-15051769D02*
X12710967Y-15099388D01*
X12710967Y-15099388D02*
X12701444Y-15118436D01*
X12701444Y-15118436D02*
X12691920Y-15127960D01*
X12691920Y-15127960D02*
X12672872Y-15137484D01*
X12672872Y-15137484D02*
X12615729Y-15137484D01*
X12615729Y-15137484D02*
X12596682Y-15127960D01*
X12596682Y-15127960D02*
X12587158Y-15118436D01*
X12777634Y-14937484D02*
X12901444Y-14937484D01*
X12901444Y-14937484D02*
X12834777Y-15013674D01*
X12834777Y-15013674D02*
X12863348Y-15013674D01*
X12863348Y-15013674D02*
X12882396Y-15023198D01*
X12882396Y-15023198D02*
X12891920Y-15032722D01*
X12891920Y-15032722D02*
X12901444Y-15051769D01*
X12901444Y-15051769D02*
X12901444Y-15099388D01*
X12901444Y-15099388D02*
X12891920Y-15118436D01*
X12891920Y-15118436D02*
X12882396Y-15127960D01*
X12882396Y-15127960D02*
X12863348Y-15137484D01*
X12863348Y-15137484D02*
X12806206Y-15137484D01*
X12806206Y-15137484D02*
X12787158Y-15127960D01*
X12787158Y-15127960D02*
X12777634Y-15118436D01*
X12977634Y-14937484D02*
X12977634Y-14975579D01*
X13053825Y-14937484D02*
X13053825Y-14975579D01*
X13349063Y-15213674D02*
X13339539Y-15204150D01*
X13339539Y-15204150D02*
X13320491Y-15175579D01*
X13320491Y-15175579D02*
X13310968Y-15156531D01*
X13310968Y-15156531D02*
X13301444Y-15127960D01*
X13301444Y-15127960D02*
X13291920Y-15080341D01*
X13291920Y-15080341D02*
X13291920Y-15042246D01*
X13291920Y-15042246D02*
X13301444Y-14994627D01*
X13301444Y-14994627D02*
X13310968Y-14966055D01*
X13310968Y-14966055D02*
X13320491Y-14947008D01*
X13320491Y-14947008D02*
X13339539Y-14918436D01*
X13339539Y-14918436D02*
X13349063Y-14908912D01*
X13406206Y-14937484D02*
X13530015Y-14937484D01*
X13530015Y-14937484D02*
X13463348Y-15013674D01*
X13463348Y-15013674D02*
X13491920Y-15013674D01*
X13491920Y-15013674D02*
X13510968Y-15023198D01*
X13510968Y-15023198D02*
X13520491Y-15032722D01*
X13520491Y-15032722D02*
X13530015Y-15051769D01*
X13530015Y-15051769D02*
X13530015Y-15099388D01*
X13530015Y-15099388D02*
X13520491Y-15118436D01*
X13520491Y-15118436D02*
X13510968Y-15127960D01*
X13510968Y-15127960D02*
X13491920Y-15137484D01*
X13491920Y-15137484D02*
X13434777Y-15137484D01*
X13434777Y-15137484D02*
X13415729Y-15127960D01*
X13415729Y-15127960D02*
X13406206Y-15118436D01*
X13768110Y-15137484D02*
X13768110Y-14937484D01*
X13853825Y-15137484D02*
X13853825Y-15032722D01*
X13853825Y-15032722D02*
X13844301Y-15013674D01*
X13844301Y-15013674D02*
X13825253Y-15004150D01*
X13825253Y-15004150D02*
X13796682Y-15004150D01*
X13796682Y-15004150D02*
X13777634Y-15013674D01*
X13777634Y-15013674D02*
X13768110Y-15023198D01*
X13977634Y-15137484D02*
X13958587Y-15127960D01*
X13958587Y-15127960D02*
X13949063Y-15118436D01*
X13949063Y-15118436D02*
X13939539Y-15099388D01*
X13939539Y-15099388D02*
X13939539Y-15042246D01*
X13939539Y-15042246D02*
X13949063Y-15023198D01*
X13949063Y-15023198D02*
X13958587Y-15013674D01*
X13958587Y-15013674D02*
X13977634Y-15004150D01*
X13977634Y-15004150D02*
X14006206Y-15004150D01*
X14006206Y-15004150D02*
X14025253Y-15013674D01*
X14025253Y-15013674D02*
X14034777Y-15023198D01*
X14034777Y-15023198D02*
X14044301Y-15042246D01*
X14044301Y-15042246D02*
X14044301Y-15099388D01*
X14044301Y-15099388D02*
X14034777Y-15118436D01*
X14034777Y-15118436D02*
X14025253Y-15127960D01*
X14025253Y-15127960D02*
X14006206Y-15137484D01*
X14006206Y-15137484D02*
X13977634Y-15137484D01*
X14158587Y-15137484D02*
X14139539Y-15127960D01*
X14139539Y-15127960D02*
X14130015Y-15108912D01*
X14130015Y-15108912D02*
X14130015Y-14937484D01*
X14310968Y-15127960D02*
X14291920Y-15137484D01*
X14291920Y-15137484D02*
X14253825Y-15137484D01*
X14253825Y-15137484D02*
X14234777Y-15127960D01*
X14234777Y-15127960D02*
X14225253Y-15108912D01*
X14225253Y-15108912D02*
X14225253Y-15032722D01*
X14225253Y-15032722D02*
X14234777Y-15013674D01*
X14234777Y-15013674D02*
X14253825Y-15004150D01*
X14253825Y-15004150D02*
X14291920Y-15004150D01*
X14291920Y-15004150D02*
X14310968Y-15013674D01*
X14310968Y-15013674D02*
X14320491Y-15032722D01*
X14320491Y-15032722D02*
X14320491Y-15051769D01*
X14320491Y-15051769D02*
X14225253Y-15070817D01*
X14396682Y-15127960D02*
X14415730Y-15137484D01*
X14415730Y-15137484D02*
X14453825Y-15137484D01*
X14453825Y-15137484D02*
X14472872Y-15127960D01*
X14472872Y-15127960D02*
X14482396Y-15108912D01*
X14482396Y-15108912D02*
X14482396Y-15099388D01*
X14482396Y-15099388D02*
X14472872Y-15080341D01*
X14472872Y-15080341D02*
X14453825Y-15070817D01*
X14453825Y-15070817D02*
X14425253Y-15070817D01*
X14425253Y-15070817D02*
X14406206Y-15061293D01*
X14406206Y-15061293D02*
X14396682Y-15042246D01*
X14396682Y-15042246D02*
X14396682Y-15032722D01*
X14396682Y-15032722D02*
X14406206Y-15013674D01*
X14406206Y-15013674D02*
X14425253Y-15004150D01*
X14425253Y-15004150D02*
X14453825Y-15004150D01*
X14453825Y-15004150D02*
X14472872Y-15013674D01*
X14549063Y-15213674D02*
X14558587Y-15204150D01*
X14558587Y-15204150D02*
X14577634Y-15175579D01*
X14577634Y-15175579D02*
X14587158Y-15156531D01*
X14587158Y-15156531D02*
X14596682Y-15127960D01*
X14596682Y-15127960D02*
X14606206Y-15080341D01*
X14606206Y-15080341D02*
X14606206Y-15042246D01*
X14606206Y-15042246D02*
X14596682Y-14994627D01*
X14596682Y-14994627D02*
X14587158Y-14966055D01*
X14587158Y-14966055D02*
X14577634Y-14947008D01*
X14577634Y-14947008D02*
X14558587Y-14918436D01*
X14558587Y-14918436D02*
X14549063Y-14908912D01*
D17*
X9622000Y-15234000D02*
X9774000Y-15386000D01*
X9774000Y-15234000D02*
X9622000Y-15386000D01*
X9698000Y-15234000D02*
X9698000Y-15386000D01*
X9622000Y-15310000D02*
X9774000Y-15310000D01*
D11*
X10139539Y-15401484D02*
X10025253Y-15401484D01*
X10082396Y-15401484D02*
X10082396Y-15201484D01*
X10082396Y-15201484D02*
X10063348Y-15230055D01*
X10063348Y-15230055D02*
X10044301Y-15249103D01*
X10044301Y-15249103D02*
X10025253Y-15258627D01*
X10225253Y-15382436D02*
X10234777Y-15391960D01*
X10234777Y-15391960D02*
X10225253Y-15401484D01*
X10225253Y-15401484D02*
X10215729Y-15391960D01*
X10215729Y-15391960D02*
X10225253Y-15382436D01*
X10225253Y-15382436D02*
X10225253Y-15401484D01*
X10415729Y-15201484D02*
X10320491Y-15201484D01*
X10320491Y-15201484D02*
X10310967Y-15296722D01*
X10310967Y-15296722D02*
X10320491Y-15287198D01*
X10320491Y-15287198D02*
X10339539Y-15277674D01*
X10339539Y-15277674D02*
X10387158Y-15277674D01*
X10387158Y-15277674D02*
X10406205Y-15287198D01*
X10406205Y-15287198D02*
X10415729Y-15296722D01*
X10415729Y-15296722D02*
X10425253Y-15315769D01*
X10425253Y-15315769D02*
X10425253Y-15363388D01*
X10425253Y-15363388D02*
X10415729Y-15382436D01*
X10415729Y-15382436D02*
X10406205Y-15391960D01*
X10406205Y-15391960D02*
X10387158Y-15401484D01*
X10387158Y-15401484D02*
X10339539Y-15401484D01*
X10339539Y-15401484D02*
X10320491Y-15391960D01*
X10320491Y-15391960D02*
X10310967Y-15382436D01*
X10501444Y-15220531D02*
X10510967Y-15211008D01*
X10510967Y-15211008D02*
X10530015Y-15201484D01*
X10530015Y-15201484D02*
X10577634Y-15201484D01*
X10577634Y-15201484D02*
X10596682Y-15211008D01*
X10596682Y-15211008D02*
X10606205Y-15220531D01*
X10606205Y-15220531D02*
X10615729Y-15239579D01*
X10615729Y-15239579D02*
X10615729Y-15258627D01*
X10615729Y-15258627D02*
X10606205Y-15287198D01*
X10606205Y-15287198D02*
X10491920Y-15401484D01*
X10491920Y-15401484D02*
X10615729Y-15401484D01*
X10739539Y-15201484D02*
X10758586Y-15201484D01*
X10758586Y-15201484D02*
X10777634Y-15211008D01*
X10777634Y-15211008D02*
X10787158Y-15220531D01*
X10787158Y-15220531D02*
X10796682Y-15239579D01*
X10796682Y-15239579D02*
X10806205Y-15277674D01*
X10806205Y-15277674D02*
X10806205Y-15325293D01*
X10806205Y-15325293D02*
X10796682Y-15363388D01*
X10796682Y-15363388D02*
X10787158Y-15382436D01*
X10787158Y-15382436D02*
X10777634Y-15391960D01*
X10777634Y-15391960D02*
X10758586Y-15401484D01*
X10758586Y-15401484D02*
X10739539Y-15401484D01*
X10739539Y-15401484D02*
X10720491Y-15391960D01*
X10720491Y-15391960D02*
X10710967Y-15382436D01*
X10710967Y-15382436D02*
X10701444Y-15363388D01*
X10701444Y-15363388D02*
X10691920Y-15325293D01*
X10691920Y-15325293D02*
X10691920Y-15277674D01*
X10691920Y-15277674D02*
X10701444Y-15239579D01*
X10701444Y-15239579D02*
X10710967Y-15220531D01*
X10710967Y-15220531D02*
X10720491Y-15211008D01*
X10720491Y-15211008D02*
X10739539Y-15201484D01*
X10891920Y-15401484D02*
X10891920Y-15268150D01*
X10891920Y-15287198D02*
X10901444Y-15277674D01*
X10901444Y-15277674D02*
X10920491Y-15268150D01*
X10920491Y-15268150D02*
X10949063Y-15268150D01*
X10949063Y-15268150D02*
X10968110Y-15277674D01*
X10968110Y-15277674D02*
X10977634Y-15296722D01*
X10977634Y-15296722D02*
X10977634Y-15401484D01*
X10977634Y-15296722D02*
X10987158Y-15277674D01*
X10987158Y-15277674D02*
X11006205Y-15268150D01*
X11006205Y-15268150D02*
X11034777Y-15268150D01*
X11034777Y-15268150D02*
X11053825Y-15277674D01*
X11053825Y-15277674D02*
X11063348Y-15296722D01*
X11063348Y-15296722D02*
X11063348Y-15401484D01*
X11158586Y-15401484D02*
X11158586Y-15268150D01*
X11158586Y-15287198D02*
X11168110Y-15277674D01*
X11168110Y-15277674D02*
X11187158Y-15268150D01*
X11187158Y-15268150D02*
X11215729Y-15268150D01*
X11215729Y-15268150D02*
X11234777Y-15277674D01*
X11234777Y-15277674D02*
X11244301Y-15296722D01*
X11244301Y-15296722D02*
X11244301Y-15401484D01*
X11244301Y-15296722D02*
X11253824Y-15277674D01*
X11253824Y-15277674D02*
X11272872Y-15268150D01*
X11272872Y-15268150D02*
X11301443Y-15268150D01*
X11301443Y-15268150D02*
X11320491Y-15277674D01*
X11320491Y-15277674D02*
X11330015Y-15296722D01*
X11330015Y-15296722D02*
X11330015Y-15401484D01*
X11720491Y-15191960D02*
X11549063Y-15449103D01*
X11977634Y-15201484D02*
X11996682Y-15201484D01*
X11996682Y-15201484D02*
X12015729Y-15211008D01*
X12015729Y-15211008D02*
X12025253Y-15220531D01*
X12025253Y-15220531D02*
X12034777Y-15239579D01*
X12034777Y-15239579D02*
X12044301Y-15277674D01*
X12044301Y-15277674D02*
X12044301Y-15325293D01*
X12044301Y-15325293D02*
X12034777Y-15363388D01*
X12034777Y-15363388D02*
X12025253Y-15382436D01*
X12025253Y-15382436D02*
X12015729Y-15391960D01*
X12015729Y-15391960D02*
X11996682Y-15401484D01*
X11996682Y-15401484D02*
X11977634Y-15401484D01*
X11977634Y-15401484D02*
X11958586Y-15391960D01*
X11958586Y-15391960D02*
X11949063Y-15382436D01*
X11949063Y-15382436D02*
X11939539Y-15363388D01*
X11939539Y-15363388D02*
X11930015Y-15325293D01*
X11930015Y-15325293D02*
X11930015Y-15277674D01*
X11930015Y-15277674D02*
X11939539Y-15239579D01*
X11939539Y-15239579D02*
X11949063Y-15220531D01*
X11949063Y-15220531D02*
X11958586Y-15211008D01*
X11958586Y-15211008D02*
X11977634Y-15201484D01*
X12130015Y-15382436D02*
X12139539Y-15391960D01*
X12139539Y-15391960D02*
X12130015Y-15401484D01*
X12130015Y-15401484D02*
X12120491Y-15391960D01*
X12120491Y-15391960D02*
X12130015Y-15382436D01*
X12130015Y-15382436D02*
X12130015Y-15401484D01*
X12263348Y-15201484D02*
X12282396Y-15201484D01*
X12282396Y-15201484D02*
X12301444Y-15211008D01*
X12301444Y-15211008D02*
X12310967Y-15220531D01*
X12310967Y-15220531D02*
X12320491Y-15239579D01*
X12320491Y-15239579D02*
X12330015Y-15277674D01*
X12330015Y-15277674D02*
X12330015Y-15325293D01*
X12330015Y-15325293D02*
X12320491Y-15363388D01*
X12320491Y-15363388D02*
X12310967Y-15382436D01*
X12310967Y-15382436D02*
X12301444Y-15391960D01*
X12301444Y-15391960D02*
X12282396Y-15401484D01*
X12282396Y-15401484D02*
X12263348Y-15401484D01*
X12263348Y-15401484D02*
X12244301Y-15391960D01*
X12244301Y-15391960D02*
X12234777Y-15382436D01*
X12234777Y-15382436D02*
X12225253Y-15363388D01*
X12225253Y-15363388D02*
X12215729Y-15325293D01*
X12215729Y-15325293D02*
X12215729Y-15277674D01*
X12215729Y-15277674D02*
X12225253Y-15239579D01*
X12225253Y-15239579D02*
X12234777Y-15220531D01*
X12234777Y-15220531D02*
X12244301Y-15211008D01*
X12244301Y-15211008D02*
X12263348Y-15201484D01*
X12510967Y-15201484D02*
X12415729Y-15201484D01*
X12415729Y-15201484D02*
X12406206Y-15296722D01*
X12406206Y-15296722D02*
X12415729Y-15287198D01*
X12415729Y-15287198D02*
X12434777Y-15277674D01*
X12434777Y-15277674D02*
X12482396Y-15277674D01*
X12482396Y-15277674D02*
X12501444Y-15287198D01*
X12501444Y-15287198D02*
X12510967Y-15296722D01*
X12510967Y-15296722D02*
X12520491Y-15315769D01*
X12520491Y-15315769D02*
X12520491Y-15363388D01*
X12520491Y-15363388D02*
X12510967Y-15382436D01*
X12510967Y-15382436D02*
X12501444Y-15391960D01*
X12501444Y-15391960D02*
X12482396Y-15401484D01*
X12482396Y-15401484D02*
X12434777Y-15401484D01*
X12434777Y-15401484D02*
X12415729Y-15391960D01*
X12415729Y-15391960D02*
X12406206Y-15382436D01*
X12615729Y-15401484D02*
X12653825Y-15401484D01*
X12653825Y-15401484D02*
X12672872Y-15391960D01*
X12672872Y-15391960D02*
X12682396Y-15382436D01*
X12682396Y-15382436D02*
X12701444Y-15353865D01*
X12701444Y-15353865D02*
X12710967Y-15315769D01*
X12710967Y-15315769D02*
X12710967Y-15239579D01*
X12710967Y-15239579D02*
X12701444Y-15220531D01*
X12701444Y-15220531D02*
X12691920Y-15211008D01*
X12691920Y-15211008D02*
X12672872Y-15201484D01*
X12672872Y-15201484D02*
X12634777Y-15201484D01*
X12634777Y-15201484D02*
X12615729Y-15211008D01*
X12615729Y-15211008D02*
X12606206Y-15220531D01*
X12606206Y-15220531D02*
X12596682Y-15239579D01*
X12596682Y-15239579D02*
X12596682Y-15287198D01*
X12596682Y-15287198D02*
X12606206Y-15306246D01*
X12606206Y-15306246D02*
X12615729Y-15315769D01*
X12615729Y-15315769D02*
X12634777Y-15325293D01*
X12634777Y-15325293D02*
X12672872Y-15325293D01*
X12672872Y-15325293D02*
X12691920Y-15315769D01*
X12691920Y-15315769D02*
X12701444Y-15306246D01*
X12701444Y-15306246D02*
X12710967Y-15287198D01*
X12825253Y-15287198D02*
X12806206Y-15277674D01*
X12806206Y-15277674D02*
X12796682Y-15268150D01*
X12796682Y-15268150D02*
X12787158Y-15249103D01*
X12787158Y-15249103D02*
X12787158Y-15239579D01*
X12787158Y-15239579D02*
X12796682Y-15220531D01*
X12796682Y-15220531D02*
X12806206Y-15211008D01*
X12806206Y-15211008D02*
X12825253Y-15201484D01*
X12825253Y-15201484D02*
X12863348Y-15201484D01*
X12863348Y-15201484D02*
X12882396Y-15211008D01*
X12882396Y-15211008D02*
X12891920Y-15220531D01*
X12891920Y-15220531D02*
X12901444Y-15239579D01*
X12901444Y-15239579D02*
X12901444Y-15249103D01*
X12901444Y-15249103D02*
X12891920Y-15268150D01*
X12891920Y-15268150D02*
X12882396Y-15277674D01*
X12882396Y-15277674D02*
X12863348Y-15287198D01*
X12863348Y-15287198D02*
X12825253Y-15287198D01*
X12825253Y-15287198D02*
X12806206Y-15296722D01*
X12806206Y-15296722D02*
X12796682Y-15306246D01*
X12796682Y-15306246D02*
X12787158Y-15325293D01*
X12787158Y-15325293D02*
X12787158Y-15363388D01*
X12787158Y-15363388D02*
X12796682Y-15382436D01*
X12796682Y-15382436D02*
X12806206Y-15391960D01*
X12806206Y-15391960D02*
X12825253Y-15401484D01*
X12825253Y-15401484D02*
X12863348Y-15401484D01*
X12863348Y-15401484D02*
X12882396Y-15391960D01*
X12882396Y-15391960D02*
X12891920Y-15382436D01*
X12891920Y-15382436D02*
X12901444Y-15363388D01*
X12901444Y-15363388D02*
X12901444Y-15325293D01*
X12901444Y-15325293D02*
X12891920Y-15306246D01*
X12891920Y-15306246D02*
X12882396Y-15296722D01*
X12882396Y-15296722D02*
X12863348Y-15287198D01*
X12977634Y-15201484D02*
X12977634Y-15239579D01*
X13053825Y-15201484D02*
X13053825Y-15239579D01*
X13349063Y-15477674D02*
X13339539Y-15468150D01*
X13339539Y-15468150D02*
X13320491Y-15439579D01*
X13320491Y-15439579D02*
X13310968Y-15420531D01*
X13310968Y-15420531D02*
X13301444Y-15391960D01*
X13301444Y-15391960D02*
X13291920Y-15344341D01*
X13291920Y-15344341D02*
X13291920Y-15306246D01*
X13291920Y-15306246D02*
X13301444Y-15258627D01*
X13301444Y-15258627D02*
X13310968Y-15230055D01*
X13310968Y-15230055D02*
X13320491Y-15211008D01*
X13320491Y-15211008D02*
X13339539Y-15182436D01*
X13339539Y-15182436D02*
X13349063Y-15172912D01*
X13510968Y-15201484D02*
X13472872Y-15201484D01*
X13472872Y-15201484D02*
X13453825Y-15211008D01*
X13453825Y-15211008D02*
X13444301Y-15220531D01*
X13444301Y-15220531D02*
X13425253Y-15249103D01*
X13425253Y-15249103D02*
X13415729Y-15287198D01*
X13415729Y-15287198D02*
X13415729Y-15363388D01*
X13415729Y-15363388D02*
X13425253Y-15382436D01*
X13425253Y-15382436D02*
X13434777Y-15391960D01*
X13434777Y-15391960D02*
X13453825Y-15401484D01*
X13453825Y-15401484D02*
X13491920Y-15401484D01*
X13491920Y-15401484D02*
X13510968Y-15391960D01*
X13510968Y-15391960D02*
X13520491Y-15382436D01*
X13520491Y-15382436D02*
X13530015Y-15363388D01*
X13530015Y-15363388D02*
X13530015Y-15315769D01*
X13530015Y-15315769D02*
X13520491Y-15296722D01*
X13520491Y-15296722D02*
X13510968Y-15287198D01*
X13510968Y-15287198D02*
X13491920Y-15277674D01*
X13491920Y-15277674D02*
X13453825Y-15277674D01*
X13453825Y-15277674D02*
X13434777Y-15287198D01*
X13434777Y-15287198D02*
X13425253Y-15296722D01*
X13425253Y-15296722D02*
X13415729Y-15315769D01*
X13768110Y-15401484D02*
X13768110Y-15201484D01*
X13853825Y-15401484D02*
X13853825Y-15296722D01*
X13853825Y-15296722D02*
X13844301Y-15277674D01*
X13844301Y-15277674D02*
X13825253Y-15268150D01*
X13825253Y-15268150D02*
X13796682Y-15268150D01*
X13796682Y-15268150D02*
X13777634Y-15277674D01*
X13777634Y-15277674D02*
X13768110Y-15287198D01*
X13977634Y-15401484D02*
X13958587Y-15391960D01*
X13958587Y-15391960D02*
X13949063Y-15382436D01*
X13949063Y-15382436D02*
X13939539Y-15363388D01*
X13939539Y-15363388D02*
X13939539Y-15306246D01*
X13939539Y-15306246D02*
X13949063Y-15287198D01*
X13949063Y-15287198D02*
X13958587Y-15277674D01*
X13958587Y-15277674D02*
X13977634Y-15268150D01*
X13977634Y-15268150D02*
X14006206Y-15268150D01*
X14006206Y-15268150D02*
X14025253Y-15277674D01*
X14025253Y-15277674D02*
X14034777Y-15287198D01*
X14034777Y-15287198D02*
X14044301Y-15306246D01*
X14044301Y-15306246D02*
X14044301Y-15363388D01*
X14044301Y-15363388D02*
X14034777Y-15382436D01*
X14034777Y-15382436D02*
X14025253Y-15391960D01*
X14025253Y-15391960D02*
X14006206Y-15401484D01*
X14006206Y-15401484D02*
X13977634Y-15401484D01*
X14158587Y-15401484D02*
X14139539Y-15391960D01*
X14139539Y-15391960D02*
X14130015Y-15372912D01*
X14130015Y-15372912D02*
X14130015Y-15201484D01*
X14310968Y-15391960D02*
X14291920Y-15401484D01*
X14291920Y-15401484D02*
X14253825Y-15401484D01*
X14253825Y-15401484D02*
X14234777Y-15391960D01*
X14234777Y-15391960D02*
X14225253Y-15372912D01*
X14225253Y-15372912D02*
X14225253Y-15296722D01*
X14225253Y-15296722D02*
X14234777Y-15277674D01*
X14234777Y-15277674D02*
X14253825Y-15268150D01*
X14253825Y-15268150D02*
X14291920Y-15268150D01*
X14291920Y-15268150D02*
X14310968Y-15277674D01*
X14310968Y-15277674D02*
X14320491Y-15296722D01*
X14320491Y-15296722D02*
X14320491Y-15315769D01*
X14320491Y-15315769D02*
X14225253Y-15334817D01*
X14396682Y-15391960D02*
X14415730Y-15401484D01*
X14415730Y-15401484D02*
X14453825Y-15401484D01*
X14453825Y-15401484D02*
X14472872Y-15391960D01*
X14472872Y-15391960D02*
X14482396Y-15372912D01*
X14482396Y-15372912D02*
X14482396Y-15363388D01*
X14482396Y-15363388D02*
X14472872Y-15344341D01*
X14472872Y-15344341D02*
X14453825Y-15334817D01*
X14453825Y-15334817D02*
X14425253Y-15334817D01*
X14425253Y-15334817D02*
X14406206Y-15325293D01*
X14406206Y-15325293D02*
X14396682Y-15306246D01*
X14396682Y-15306246D02*
X14396682Y-15296722D01*
X14396682Y-15296722D02*
X14406206Y-15277674D01*
X14406206Y-15277674D02*
X14425253Y-15268150D01*
X14425253Y-15268150D02*
X14453825Y-15268150D01*
X14453825Y-15268150D02*
X14472872Y-15277674D01*
X14549063Y-15477674D02*
X14558587Y-15468150D01*
X14558587Y-15468150D02*
X14577634Y-15439579D01*
X14577634Y-15439579D02*
X14587158Y-15420531D01*
X14587158Y-15420531D02*
X14596682Y-15391960D01*
X14596682Y-15391960D02*
X14606206Y-15344341D01*
X14606206Y-15344341D02*
X14606206Y-15306246D01*
X14606206Y-15306246D02*
X14596682Y-15258627D01*
X14596682Y-15258627D02*
X14587158Y-15230055D01*
X14587158Y-15230055D02*
X14577634Y-15211008D01*
X14577634Y-15211008D02*
X14558587Y-15182436D01*
X14558587Y-15182436D02*
X14549063Y-15172912D01*
M02*
