G04 MADE WITH FRITZING*
G04 WWW.FRITZING.ORG*
G04 DOUBLE SIDED*
G04 HOLES PLATED*
G04 CONTOUR ON CENTER OF CONTOUR VECTOR*
%ASAXBY*%
%FSLAX23Y23*%
%MOIN*%
%OFA0B0*%
%SFA1.0B1.0*%
%ADD10C,0.080000*%
%ADD11C,0.084000*%
%ADD12C,0.085000*%
%ADD13C,0.072992*%
%ADD14C,0.088000*%
%ADD15R,0.079972X0.080000*%
%ADD16R,0.072992X0.072992*%
%ADD17R,0.088000X0.088000*%
%ADD18R,0.001000X0.001000*%
%LNMASK0*%
G90*
G70*
G54D10*
X1138Y296D03*
X1138Y396D03*
X1138Y496D03*
X1138Y596D03*
X1138Y696D03*
X1138Y796D03*
X1138Y896D03*
X1138Y996D03*
X1138Y1096D03*
X1138Y1196D03*
X1138Y1296D03*
X1138Y1396D03*
X1138Y1496D03*
X1138Y1596D03*
X1138Y1696D03*
X538Y296D03*
X538Y396D03*
X538Y496D03*
X538Y596D03*
X538Y696D03*
X538Y796D03*
X538Y896D03*
X538Y996D03*
X538Y1096D03*
X538Y1196D03*
X538Y1296D03*
X538Y1396D03*
X538Y1496D03*
X538Y1596D03*
X538Y1696D03*
G54D11*
X2138Y696D03*
X2038Y696D03*
X1938Y696D03*
X1838Y696D03*
X1738Y696D03*
X1638Y696D03*
X1538Y696D03*
X1438Y696D03*
X1438Y1296D03*
X1538Y1296D03*
X1638Y1296D03*
X1738Y1296D03*
X1838Y1296D03*
X1938Y1296D03*
X2038Y1296D03*
X2138Y1296D03*
G54D12*
X138Y1596D03*
X138Y1196D03*
G54D13*
X338Y1596D03*
X338Y1695D03*
G54D14*
X2338Y696D03*
X2338Y596D03*
X2338Y1596D03*
X2338Y1496D03*
X338Y1296D03*
X338Y1396D03*
X338Y896D03*
X338Y996D03*
X338Y1096D03*
X338Y1196D03*
X338Y296D03*
X338Y396D03*
X338Y696D03*
X338Y796D03*
X338Y496D03*
X338Y596D03*
G54D10*
X1438Y1596D03*
X1338Y1596D03*
X1538Y296D03*
X1538Y196D03*
G54D12*
X1338Y1696D03*
X1738Y1696D03*
G54D10*
X1738Y196D03*
X1738Y296D03*
G54D15*
X1138Y296D03*
G54D16*
X338Y1596D03*
G54D17*
X2338Y696D03*
X2338Y1596D03*
X338Y1296D03*
X338Y896D03*
X338Y1096D03*
X338Y296D03*
X338Y696D03*
X338Y496D03*
G54D18*
X1404Y1367D02*
X1470Y1367D01*
X1504Y1367D02*
X1570Y1367D01*
X1604Y1367D02*
X1670Y1367D01*
X1704Y1367D02*
X1770Y1367D01*
X1804Y1367D02*
X1870Y1367D01*
X1904Y1367D02*
X1970Y1367D01*
X2004Y1367D02*
X2070Y1367D01*
X2104Y1367D02*
X2170Y1367D01*
X1404Y1366D02*
X1470Y1366D01*
X1504Y1366D02*
X1570Y1366D01*
X1604Y1366D02*
X1670Y1366D01*
X1704Y1366D02*
X1770Y1366D01*
X1804Y1366D02*
X1870Y1366D01*
X1904Y1366D02*
X1970Y1366D01*
X2004Y1366D02*
X2070Y1366D01*
X2104Y1366D02*
X2170Y1366D01*
X1404Y1365D02*
X1470Y1365D01*
X1504Y1365D02*
X1570Y1365D01*
X1604Y1365D02*
X1670Y1365D01*
X1704Y1365D02*
X1770Y1365D01*
X1804Y1365D02*
X1870Y1365D01*
X1904Y1365D02*
X1970Y1365D01*
X2004Y1365D02*
X2070Y1365D01*
X2104Y1365D02*
X2170Y1365D01*
X1404Y1364D02*
X1470Y1364D01*
X1504Y1364D02*
X1570Y1364D01*
X1604Y1364D02*
X1670Y1364D01*
X1704Y1364D02*
X1770Y1364D01*
X1804Y1364D02*
X1870Y1364D01*
X1904Y1364D02*
X1970Y1364D01*
X2004Y1364D02*
X2070Y1364D01*
X2104Y1364D02*
X2170Y1364D01*
X1404Y1363D02*
X1470Y1363D01*
X1504Y1363D02*
X1570Y1363D01*
X1604Y1363D02*
X1670Y1363D01*
X1704Y1363D02*
X1770Y1363D01*
X1804Y1363D02*
X1870Y1363D01*
X1904Y1363D02*
X1970Y1363D01*
X2004Y1363D02*
X2070Y1363D01*
X2104Y1363D02*
X2170Y1363D01*
X1404Y1362D02*
X1470Y1362D01*
X1504Y1362D02*
X1570Y1362D01*
X1604Y1362D02*
X1670Y1362D01*
X1704Y1362D02*
X1770Y1362D01*
X1804Y1362D02*
X1870Y1362D01*
X1904Y1362D02*
X1970Y1362D01*
X2004Y1362D02*
X2070Y1362D01*
X2104Y1362D02*
X2170Y1362D01*
X1404Y1361D02*
X1470Y1361D01*
X1504Y1361D02*
X1570Y1361D01*
X1604Y1361D02*
X1670Y1361D01*
X1704Y1361D02*
X1770Y1361D01*
X1804Y1361D02*
X1870Y1361D01*
X1904Y1361D02*
X1970Y1361D01*
X2004Y1361D02*
X2070Y1361D01*
X2104Y1361D02*
X2170Y1361D01*
X1404Y1360D02*
X1470Y1360D01*
X1504Y1360D02*
X1570Y1360D01*
X1604Y1360D02*
X1670Y1360D01*
X1704Y1360D02*
X1770Y1360D01*
X1804Y1360D02*
X1870Y1360D01*
X1904Y1360D02*
X1970Y1360D01*
X2004Y1360D02*
X2070Y1360D01*
X2104Y1360D02*
X2170Y1360D01*
X1404Y1359D02*
X1470Y1359D01*
X1504Y1359D02*
X1570Y1359D01*
X1604Y1359D02*
X1670Y1359D01*
X1704Y1359D02*
X1770Y1359D01*
X1804Y1359D02*
X1870Y1359D01*
X1904Y1359D02*
X1970Y1359D01*
X2004Y1359D02*
X2070Y1359D01*
X2104Y1359D02*
X2170Y1359D01*
X1404Y1358D02*
X1470Y1358D01*
X1504Y1358D02*
X1570Y1358D01*
X1604Y1358D02*
X1670Y1358D01*
X1704Y1358D02*
X1770Y1358D01*
X1804Y1358D02*
X1870Y1358D01*
X1904Y1358D02*
X1970Y1358D01*
X2004Y1358D02*
X2070Y1358D01*
X2104Y1358D02*
X2170Y1358D01*
X1404Y1357D02*
X1470Y1357D01*
X1504Y1357D02*
X1570Y1357D01*
X1604Y1357D02*
X1670Y1357D01*
X1704Y1357D02*
X1770Y1357D01*
X1804Y1357D02*
X1870Y1357D01*
X1904Y1357D02*
X1970Y1357D01*
X2004Y1357D02*
X2070Y1357D01*
X2104Y1357D02*
X2170Y1357D01*
X1404Y1356D02*
X1470Y1356D01*
X1504Y1356D02*
X1570Y1356D01*
X1604Y1356D02*
X1670Y1356D01*
X1704Y1356D02*
X1770Y1356D01*
X1804Y1356D02*
X1870Y1356D01*
X1904Y1356D02*
X1970Y1356D01*
X2004Y1356D02*
X2070Y1356D01*
X2104Y1356D02*
X2170Y1356D01*
X1404Y1355D02*
X1470Y1355D01*
X1504Y1355D02*
X1570Y1355D01*
X1604Y1355D02*
X1670Y1355D01*
X1704Y1355D02*
X1770Y1355D01*
X1804Y1355D02*
X1870Y1355D01*
X1904Y1355D02*
X1970Y1355D01*
X2004Y1355D02*
X2070Y1355D01*
X2104Y1355D02*
X2170Y1355D01*
X1404Y1354D02*
X1470Y1354D01*
X1504Y1354D02*
X1570Y1354D01*
X1604Y1354D02*
X1670Y1354D01*
X1704Y1354D02*
X1770Y1354D01*
X1804Y1354D02*
X1870Y1354D01*
X1904Y1354D02*
X1970Y1354D01*
X2004Y1354D02*
X2070Y1354D01*
X2104Y1354D02*
X2170Y1354D01*
X1404Y1353D02*
X1470Y1353D01*
X1504Y1353D02*
X1570Y1353D01*
X1604Y1353D02*
X1670Y1353D01*
X1704Y1353D02*
X1770Y1353D01*
X1804Y1353D02*
X1870Y1353D01*
X1904Y1353D02*
X1970Y1353D01*
X2004Y1353D02*
X2070Y1353D01*
X2104Y1353D02*
X2170Y1353D01*
X1404Y1352D02*
X1470Y1352D01*
X1504Y1352D02*
X1570Y1352D01*
X1604Y1352D02*
X1670Y1352D01*
X1704Y1352D02*
X1770Y1352D01*
X1804Y1352D02*
X1870Y1352D01*
X1904Y1352D02*
X1970Y1352D01*
X2004Y1352D02*
X2070Y1352D01*
X2104Y1352D02*
X2170Y1352D01*
X1404Y1351D02*
X1470Y1351D01*
X1504Y1351D02*
X1570Y1351D01*
X1604Y1351D02*
X1670Y1351D01*
X1704Y1351D02*
X1770Y1351D01*
X1804Y1351D02*
X1870Y1351D01*
X1904Y1351D02*
X1970Y1351D01*
X2004Y1351D02*
X2070Y1351D01*
X2104Y1351D02*
X2170Y1351D01*
X1404Y1350D02*
X1470Y1350D01*
X1504Y1350D02*
X1570Y1350D01*
X1604Y1350D02*
X1670Y1350D01*
X1704Y1350D02*
X1770Y1350D01*
X1804Y1350D02*
X1870Y1350D01*
X1904Y1350D02*
X1970Y1350D01*
X2004Y1350D02*
X2070Y1350D01*
X2104Y1350D02*
X2170Y1350D01*
X1404Y1349D02*
X1470Y1349D01*
X1504Y1349D02*
X1570Y1349D01*
X1604Y1349D02*
X1670Y1349D01*
X1704Y1349D02*
X1770Y1349D01*
X1804Y1349D02*
X1870Y1349D01*
X1904Y1349D02*
X1970Y1349D01*
X2004Y1349D02*
X2070Y1349D01*
X2104Y1349D02*
X2170Y1349D01*
X1404Y1348D02*
X1470Y1348D01*
X1504Y1348D02*
X1570Y1348D01*
X1604Y1348D02*
X1670Y1348D01*
X1704Y1348D02*
X1770Y1348D01*
X1804Y1348D02*
X1870Y1348D01*
X1904Y1348D02*
X1970Y1348D01*
X2004Y1348D02*
X2070Y1348D01*
X2104Y1348D02*
X2170Y1348D01*
X1404Y1347D02*
X1470Y1347D01*
X1504Y1347D02*
X1570Y1347D01*
X1604Y1347D02*
X1670Y1347D01*
X1704Y1347D02*
X1770Y1347D01*
X1804Y1347D02*
X1870Y1347D01*
X1904Y1347D02*
X1970Y1347D01*
X2004Y1347D02*
X2070Y1347D01*
X2104Y1347D02*
X2170Y1347D01*
X1404Y1346D02*
X1470Y1346D01*
X1504Y1346D02*
X1570Y1346D01*
X1604Y1346D02*
X1670Y1346D01*
X1704Y1346D02*
X1770Y1346D01*
X1804Y1346D02*
X1870Y1346D01*
X1904Y1346D02*
X1970Y1346D01*
X2004Y1346D02*
X2070Y1346D01*
X2104Y1346D02*
X2170Y1346D01*
X1404Y1345D02*
X1470Y1345D01*
X1504Y1345D02*
X1570Y1345D01*
X1604Y1345D02*
X1670Y1345D01*
X1704Y1345D02*
X1770Y1345D01*
X1804Y1345D02*
X1870Y1345D01*
X1904Y1345D02*
X1970Y1345D01*
X2004Y1345D02*
X2070Y1345D01*
X2104Y1345D02*
X2170Y1345D01*
X1404Y1344D02*
X1470Y1344D01*
X1504Y1344D02*
X1570Y1344D01*
X1604Y1344D02*
X1670Y1344D01*
X1704Y1344D02*
X1770Y1344D01*
X1804Y1344D02*
X1870Y1344D01*
X1904Y1344D02*
X1970Y1344D01*
X2004Y1344D02*
X2070Y1344D01*
X2104Y1344D02*
X2170Y1344D01*
X1404Y1343D02*
X1470Y1343D01*
X1504Y1343D02*
X1570Y1343D01*
X1604Y1343D02*
X1670Y1343D01*
X1704Y1343D02*
X1770Y1343D01*
X1804Y1343D02*
X1870Y1343D01*
X1904Y1343D02*
X1970Y1343D01*
X2004Y1343D02*
X2070Y1343D01*
X2104Y1343D02*
X2170Y1343D01*
X1404Y1342D02*
X1470Y1342D01*
X1504Y1342D02*
X1570Y1342D01*
X1604Y1342D02*
X1670Y1342D01*
X1704Y1342D02*
X1770Y1342D01*
X1804Y1342D02*
X1870Y1342D01*
X1904Y1342D02*
X1970Y1342D01*
X2004Y1342D02*
X2070Y1342D01*
X2104Y1342D02*
X2170Y1342D01*
X1404Y1341D02*
X1470Y1341D01*
X1504Y1341D02*
X1570Y1341D01*
X1604Y1341D02*
X1670Y1341D01*
X1704Y1341D02*
X1770Y1341D01*
X1804Y1341D02*
X1870Y1341D01*
X1904Y1341D02*
X1970Y1341D01*
X2004Y1341D02*
X2070Y1341D01*
X2104Y1341D02*
X2170Y1341D01*
X1404Y1340D02*
X1470Y1340D01*
X1504Y1340D02*
X1570Y1340D01*
X1604Y1340D02*
X1670Y1340D01*
X1704Y1340D02*
X1770Y1340D01*
X1804Y1340D02*
X1870Y1340D01*
X1904Y1340D02*
X1970Y1340D01*
X2004Y1340D02*
X2070Y1340D01*
X2104Y1340D02*
X2170Y1340D01*
X1404Y1339D02*
X1470Y1339D01*
X1504Y1339D02*
X1570Y1339D01*
X1604Y1339D02*
X1670Y1339D01*
X1704Y1339D02*
X1770Y1339D01*
X1804Y1339D02*
X1870Y1339D01*
X1904Y1339D02*
X1970Y1339D01*
X2004Y1339D02*
X2070Y1339D01*
X2104Y1339D02*
X2170Y1339D01*
X1404Y1338D02*
X1470Y1338D01*
X1504Y1338D02*
X1570Y1338D01*
X1604Y1338D02*
X1670Y1338D01*
X1704Y1338D02*
X1770Y1338D01*
X1804Y1338D02*
X1870Y1338D01*
X1904Y1338D02*
X1970Y1338D01*
X2004Y1338D02*
X2070Y1338D01*
X2104Y1338D02*
X2170Y1338D01*
X1404Y1337D02*
X1470Y1337D01*
X1504Y1337D02*
X1570Y1337D01*
X1604Y1337D02*
X1670Y1337D01*
X1704Y1337D02*
X1770Y1337D01*
X1804Y1337D02*
X1870Y1337D01*
X1904Y1337D02*
X1970Y1337D01*
X2004Y1337D02*
X2070Y1337D01*
X2104Y1337D02*
X2170Y1337D01*
X1404Y1336D02*
X1470Y1336D01*
X1504Y1336D02*
X1570Y1336D01*
X1604Y1336D02*
X1670Y1336D01*
X1704Y1336D02*
X1770Y1336D01*
X1804Y1336D02*
X1870Y1336D01*
X1904Y1336D02*
X1970Y1336D01*
X2004Y1336D02*
X2070Y1336D01*
X2104Y1336D02*
X2170Y1336D01*
X1404Y1335D02*
X1470Y1335D01*
X1504Y1335D02*
X1570Y1335D01*
X1604Y1335D02*
X1670Y1335D01*
X1704Y1335D02*
X1770Y1335D01*
X1804Y1335D02*
X1870Y1335D01*
X1904Y1335D02*
X1970Y1335D01*
X2004Y1335D02*
X2070Y1335D01*
X2104Y1335D02*
X2170Y1335D01*
X1404Y1334D02*
X1470Y1334D01*
X1504Y1334D02*
X1570Y1334D01*
X1604Y1334D02*
X1670Y1334D01*
X1704Y1334D02*
X1770Y1334D01*
X1804Y1334D02*
X1870Y1334D01*
X1904Y1334D02*
X1970Y1334D01*
X2004Y1334D02*
X2070Y1334D01*
X2104Y1334D02*
X2170Y1334D01*
X1404Y1333D02*
X1470Y1333D01*
X1504Y1333D02*
X1570Y1333D01*
X1604Y1333D02*
X1670Y1333D01*
X1704Y1333D02*
X1770Y1333D01*
X1804Y1333D02*
X1870Y1333D01*
X1904Y1333D02*
X1970Y1333D01*
X2004Y1333D02*
X2070Y1333D01*
X2104Y1333D02*
X2170Y1333D01*
X1404Y1332D02*
X1470Y1332D01*
X1504Y1332D02*
X1570Y1332D01*
X1604Y1332D02*
X1670Y1332D01*
X1704Y1332D02*
X1770Y1332D01*
X1804Y1332D02*
X1870Y1332D01*
X1904Y1332D02*
X1970Y1332D01*
X2004Y1332D02*
X2070Y1332D01*
X2104Y1332D02*
X2170Y1332D01*
X1404Y1331D02*
X1470Y1331D01*
X1504Y1331D02*
X1570Y1331D01*
X1604Y1331D02*
X1670Y1331D01*
X1704Y1331D02*
X1770Y1331D01*
X1804Y1331D02*
X1870Y1331D01*
X1904Y1331D02*
X1970Y1331D01*
X2004Y1331D02*
X2070Y1331D01*
X2104Y1331D02*
X2170Y1331D01*
X1404Y1330D02*
X1470Y1330D01*
X1504Y1330D02*
X1570Y1330D01*
X1604Y1330D02*
X1670Y1330D01*
X1704Y1330D02*
X1770Y1330D01*
X1804Y1330D02*
X1870Y1330D01*
X1904Y1330D02*
X1970Y1330D01*
X2004Y1330D02*
X2070Y1330D01*
X2104Y1330D02*
X2170Y1330D01*
X1404Y1329D02*
X1470Y1329D01*
X1504Y1329D02*
X1570Y1329D01*
X1604Y1329D02*
X1670Y1329D01*
X1704Y1329D02*
X1770Y1329D01*
X1804Y1329D02*
X1870Y1329D01*
X1904Y1329D02*
X1970Y1329D01*
X2004Y1329D02*
X2070Y1329D01*
X2104Y1329D02*
X2170Y1329D01*
X1404Y1328D02*
X1470Y1328D01*
X1504Y1328D02*
X1570Y1328D01*
X1604Y1328D02*
X1670Y1328D01*
X1704Y1328D02*
X1770Y1328D01*
X1804Y1328D02*
X1870Y1328D01*
X1904Y1328D02*
X1970Y1328D01*
X2004Y1328D02*
X2070Y1328D01*
X2104Y1328D02*
X2170Y1328D01*
X1404Y1327D02*
X1470Y1327D01*
X1504Y1327D02*
X1570Y1327D01*
X1604Y1327D02*
X1670Y1327D01*
X1704Y1327D02*
X1770Y1327D01*
X1804Y1327D02*
X1870Y1327D01*
X1904Y1327D02*
X1970Y1327D01*
X2004Y1327D02*
X2070Y1327D01*
X2104Y1327D02*
X2170Y1327D01*
X1404Y1326D02*
X1470Y1326D01*
X1504Y1326D02*
X1570Y1326D01*
X1604Y1326D02*
X1670Y1326D01*
X1704Y1326D02*
X1770Y1326D01*
X1804Y1326D02*
X1870Y1326D01*
X1904Y1326D02*
X1970Y1326D01*
X2004Y1326D02*
X2070Y1326D01*
X2104Y1326D02*
X2170Y1326D01*
X1404Y1325D02*
X1470Y1325D01*
X1504Y1325D02*
X1570Y1325D01*
X1604Y1325D02*
X1670Y1325D01*
X1704Y1325D02*
X1770Y1325D01*
X1804Y1325D02*
X1870Y1325D01*
X1904Y1325D02*
X1970Y1325D01*
X2004Y1325D02*
X2070Y1325D01*
X2104Y1325D02*
X2170Y1325D01*
X1404Y1324D02*
X1470Y1324D01*
X1504Y1324D02*
X1570Y1324D01*
X1604Y1324D02*
X1670Y1324D01*
X1704Y1324D02*
X1770Y1324D01*
X1804Y1324D02*
X1870Y1324D01*
X1904Y1324D02*
X1970Y1324D01*
X2004Y1324D02*
X2070Y1324D01*
X2104Y1324D02*
X2170Y1324D01*
X1404Y1323D02*
X1470Y1323D01*
X1504Y1323D02*
X1570Y1323D01*
X1604Y1323D02*
X1670Y1323D01*
X1704Y1323D02*
X1770Y1323D01*
X1804Y1323D02*
X1870Y1323D01*
X1904Y1323D02*
X1970Y1323D01*
X2004Y1323D02*
X2070Y1323D01*
X2104Y1323D02*
X2170Y1323D01*
X1404Y1322D02*
X1470Y1322D01*
X1504Y1322D02*
X1570Y1322D01*
X1604Y1322D02*
X1670Y1322D01*
X1704Y1322D02*
X1770Y1322D01*
X1804Y1322D02*
X1870Y1322D01*
X1904Y1322D02*
X1970Y1322D01*
X2004Y1322D02*
X2070Y1322D01*
X2104Y1322D02*
X2170Y1322D01*
X1404Y1321D02*
X1470Y1321D01*
X1504Y1321D02*
X1570Y1321D01*
X1604Y1321D02*
X1670Y1321D01*
X1704Y1321D02*
X1770Y1321D01*
X1804Y1321D02*
X1870Y1321D01*
X1904Y1321D02*
X1970Y1321D01*
X2004Y1321D02*
X2070Y1321D01*
X2104Y1321D02*
X2170Y1321D01*
X1404Y1320D02*
X1430Y1320D01*
X1443Y1320D02*
X1470Y1320D01*
X1504Y1320D02*
X1530Y1320D01*
X1543Y1320D02*
X1570Y1320D01*
X1604Y1320D02*
X1630Y1320D01*
X1643Y1320D02*
X1670Y1320D01*
X1704Y1320D02*
X1730Y1320D01*
X1743Y1320D02*
X1770Y1320D01*
X1804Y1320D02*
X1830Y1320D01*
X1843Y1320D02*
X1870Y1320D01*
X1904Y1320D02*
X1930Y1320D01*
X1943Y1320D02*
X1970Y1320D01*
X2004Y1320D02*
X2030Y1320D01*
X2043Y1320D02*
X2070Y1320D01*
X2104Y1320D02*
X2130Y1320D01*
X2143Y1320D02*
X2170Y1320D01*
X1404Y1319D02*
X1427Y1319D01*
X1446Y1319D02*
X1470Y1319D01*
X1504Y1319D02*
X1527Y1319D01*
X1546Y1319D02*
X1570Y1319D01*
X1604Y1319D02*
X1627Y1319D01*
X1646Y1319D02*
X1670Y1319D01*
X1704Y1319D02*
X1727Y1319D01*
X1746Y1319D02*
X1770Y1319D01*
X1804Y1319D02*
X1827Y1319D01*
X1846Y1319D02*
X1870Y1319D01*
X1904Y1319D02*
X1927Y1319D01*
X1946Y1319D02*
X1970Y1319D01*
X2004Y1319D02*
X2027Y1319D01*
X2046Y1319D02*
X2070Y1319D01*
X2104Y1319D02*
X2127Y1319D01*
X2146Y1319D02*
X2170Y1319D01*
X1404Y1318D02*
X1425Y1318D01*
X1448Y1318D02*
X1470Y1318D01*
X1504Y1318D02*
X1525Y1318D01*
X1548Y1318D02*
X1570Y1318D01*
X1604Y1318D02*
X1625Y1318D01*
X1648Y1318D02*
X1670Y1318D01*
X1704Y1318D02*
X1725Y1318D01*
X1748Y1318D02*
X1770Y1318D01*
X1804Y1318D02*
X1825Y1318D01*
X1848Y1318D02*
X1870Y1318D01*
X1904Y1318D02*
X1925Y1318D01*
X1948Y1318D02*
X1970Y1318D01*
X2004Y1318D02*
X2025Y1318D01*
X2048Y1318D02*
X2070Y1318D01*
X2104Y1318D02*
X2125Y1318D01*
X2148Y1318D02*
X2170Y1318D01*
X1404Y1317D02*
X1424Y1317D01*
X1450Y1317D02*
X1470Y1317D01*
X1504Y1317D02*
X1524Y1317D01*
X1550Y1317D02*
X1570Y1317D01*
X1604Y1317D02*
X1624Y1317D01*
X1650Y1317D02*
X1670Y1317D01*
X1704Y1317D02*
X1723Y1317D01*
X1750Y1317D02*
X1770Y1317D01*
X1804Y1317D02*
X1823Y1317D01*
X1850Y1317D02*
X1870Y1317D01*
X1904Y1317D02*
X1923Y1317D01*
X1950Y1317D02*
X1970Y1317D01*
X2004Y1317D02*
X2023Y1317D01*
X2050Y1317D02*
X2070Y1317D01*
X2104Y1317D02*
X2123Y1317D01*
X2150Y1317D02*
X2170Y1317D01*
X1404Y1316D02*
X1422Y1316D01*
X1451Y1316D02*
X1470Y1316D01*
X1504Y1316D02*
X1522Y1316D01*
X1551Y1316D02*
X1570Y1316D01*
X1604Y1316D02*
X1622Y1316D01*
X1651Y1316D02*
X1670Y1316D01*
X1704Y1316D02*
X1722Y1316D01*
X1751Y1316D02*
X1770Y1316D01*
X1804Y1316D02*
X1822Y1316D01*
X1851Y1316D02*
X1870Y1316D01*
X1904Y1316D02*
X1922Y1316D01*
X1951Y1316D02*
X1970Y1316D01*
X2004Y1316D02*
X2022Y1316D01*
X2051Y1316D02*
X2070Y1316D01*
X2104Y1316D02*
X2122Y1316D01*
X2151Y1316D02*
X2170Y1316D01*
X1404Y1315D02*
X1421Y1315D01*
X1453Y1315D02*
X1470Y1315D01*
X1504Y1315D02*
X1521Y1315D01*
X1552Y1315D02*
X1570Y1315D01*
X1604Y1315D02*
X1621Y1315D01*
X1652Y1315D02*
X1670Y1315D01*
X1704Y1315D02*
X1721Y1315D01*
X1752Y1315D02*
X1770Y1315D01*
X1804Y1315D02*
X1821Y1315D01*
X1852Y1315D02*
X1870Y1315D01*
X1904Y1315D02*
X1921Y1315D01*
X1952Y1315D02*
X1970Y1315D01*
X2004Y1315D02*
X2021Y1315D01*
X2052Y1315D02*
X2070Y1315D01*
X2104Y1315D02*
X2121Y1315D01*
X2152Y1315D02*
X2170Y1315D01*
X1404Y1314D02*
X1420Y1314D01*
X1454Y1314D02*
X1470Y1314D01*
X1504Y1314D02*
X1520Y1314D01*
X1554Y1314D02*
X1570Y1314D01*
X1604Y1314D02*
X1620Y1314D01*
X1654Y1314D02*
X1670Y1314D01*
X1704Y1314D02*
X1720Y1314D01*
X1754Y1314D02*
X1770Y1314D01*
X1804Y1314D02*
X1820Y1314D01*
X1854Y1314D02*
X1870Y1314D01*
X1904Y1314D02*
X1920Y1314D01*
X1954Y1314D02*
X1970Y1314D01*
X2004Y1314D02*
X2020Y1314D01*
X2053Y1314D02*
X2070Y1314D01*
X2104Y1314D02*
X2120Y1314D01*
X2153Y1314D02*
X2170Y1314D01*
X1404Y1313D02*
X1419Y1313D01*
X1455Y1313D02*
X1470Y1313D01*
X1504Y1313D02*
X1519Y1313D01*
X1555Y1313D02*
X1570Y1313D01*
X1604Y1313D02*
X1619Y1313D01*
X1655Y1313D02*
X1670Y1313D01*
X1704Y1313D02*
X1719Y1313D01*
X1755Y1313D02*
X1770Y1313D01*
X1804Y1313D02*
X1819Y1313D01*
X1854Y1313D02*
X1870Y1313D01*
X1904Y1313D02*
X1919Y1313D01*
X1954Y1313D02*
X1970Y1313D01*
X2004Y1313D02*
X2019Y1313D01*
X2054Y1313D02*
X2070Y1313D01*
X2104Y1313D02*
X2119Y1313D01*
X2154Y1313D02*
X2170Y1313D01*
X1404Y1312D02*
X1418Y1312D01*
X1455Y1312D02*
X1470Y1312D01*
X1504Y1312D02*
X1518Y1312D01*
X1555Y1312D02*
X1570Y1312D01*
X1604Y1312D02*
X1618Y1312D01*
X1655Y1312D02*
X1670Y1312D01*
X1704Y1312D02*
X1718Y1312D01*
X1755Y1312D02*
X1770Y1312D01*
X1804Y1312D02*
X1818Y1312D01*
X1855Y1312D02*
X1870Y1312D01*
X1904Y1312D02*
X1918Y1312D01*
X1955Y1312D02*
X1970Y1312D01*
X2004Y1312D02*
X2018Y1312D01*
X2055Y1312D02*
X2070Y1312D01*
X2104Y1312D02*
X2118Y1312D01*
X2155Y1312D02*
X2170Y1312D01*
X1404Y1311D02*
X1417Y1311D01*
X1456Y1311D02*
X1470Y1311D01*
X1504Y1311D02*
X1517Y1311D01*
X1556Y1311D02*
X1570Y1311D01*
X1604Y1311D02*
X1617Y1311D01*
X1656Y1311D02*
X1670Y1311D01*
X1704Y1311D02*
X1717Y1311D01*
X1756Y1311D02*
X1770Y1311D01*
X1804Y1311D02*
X1817Y1311D01*
X1856Y1311D02*
X1870Y1311D01*
X1904Y1311D02*
X1917Y1311D01*
X1956Y1311D02*
X1970Y1311D01*
X2004Y1311D02*
X2017Y1311D01*
X2056Y1311D02*
X2070Y1311D01*
X2104Y1311D02*
X2117Y1311D01*
X2156Y1311D02*
X2170Y1311D01*
X1404Y1310D02*
X1417Y1310D01*
X1457Y1310D02*
X1470Y1310D01*
X1504Y1310D02*
X1517Y1310D01*
X1557Y1310D02*
X1570Y1310D01*
X1604Y1310D02*
X1617Y1310D01*
X1657Y1310D02*
X1670Y1310D01*
X1704Y1310D02*
X1716Y1310D01*
X1757Y1310D02*
X1770Y1310D01*
X1804Y1310D02*
X1816Y1310D01*
X1857Y1310D02*
X1870Y1310D01*
X1904Y1310D02*
X1916Y1310D01*
X1957Y1310D02*
X1970Y1310D01*
X2004Y1310D02*
X2016Y1310D01*
X2057Y1310D02*
X2070Y1310D01*
X2104Y1310D02*
X2116Y1310D01*
X2157Y1310D02*
X2170Y1310D01*
X1404Y1309D02*
X1416Y1309D01*
X1458Y1309D02*
X1470Y1309D01*
X1504Y1309D02*
X1516Y1309D01*
X1558Y1309D02*
X1570Y1309D01*
X1604Y1309D02*
X1616Y1309D01*
X1658Y1309D02*
X1670Y1309D01*
X1704Y1309D02*
X1716Y1309D01*
X1758Y1309D02*
X1770Y1309D01*
X1804Y1309D02*
X1816Y1309D01*
X1857Y1309D02*
X1870Y1309D01*
X1904Y1309D02*
X1916Y1309D01*
X1957Y1309D02*
X1970Y1309D01*
X2004Y1309D02*
X2016Y1309D01*
X2057Y1309D02*
X2070Y1309D01*
X2104Y1309D02*
X2116Y1309D01*
X2157Y1309D02*
X2170Y1309D01*
X1404Y1308D02*
X1415Y1308D01*
X1458Y1308D02*
X1470Y1308D01*
X1504Y1308D02*
X1515Y1308D01*
X1558Y1308D02*
X1570Y1308D01*
X1604Y1308D02*
X1615Y1308D01*
X1658Y1308D02*
X1670Y1308D01*
X1704Y1308D02*
X1715Y1308D01*
X1758Y1308D02*
X1770Y1308D01*
X1804Y1308D02*
X1815Y1308D01*
X1858Y1308D02*
X1870Y1308D01*
X1904Y1308D02*
X1915Y1308D01*
X1958Y1308D02*
X1970Y1308D01*
X2004Y1308D02*
X2015Y1308D01*
X2058Y1308D02*
X2070Y1308D01*
X2104Y1308D02*
X2115Y1308D01*
X2158Y1308D02*
X2170Y1308D01*
X1404Y1307D02*
X1415Y1307D01*
X1459Y1307D02*
X1470Y1307D01*
X1504Y1307D02*
X1515Y1307D01*
X1559Y1307D02*
X1570Y1307D01*
X1604Y1307D02*
X1615Y1307D01*
X1659Y1307D02*
X1670Y1307D01*
X1704Y1307D02*
X1715Y1307D01*
X1759Y1307D02*
X1770Y1307D01*
X1804Y1307D02*
X1815Y1307D01*
X1859Y1307D02*
X1870Y1307D01*
X1904Y1307D02*
X1915Y1307D01*
X1959Y1307D02*
X1970Y1307D01*
X2004Y1307D02*
X2015Y1307D01*
X2059Y1307D02*
X2070Y1307D01*
X2104Y1307D02*
X2115Y1307D01*
X2158Y1307D02*
X2170Y1307D01*
X1404Y1306D02*
X1414Y1306D01*
X1459Y1306D02*
X1470Y1306D01*
X1504Y1306D02*
X1514Y1306D01*
X1559Y1306D02*
X1570Y1306D01*
X1604Y1306D02*
X1614Y1306D01*
X1659Y1306D02*
X1670Y1306D01*
X1704Y1306D02*
X1714Y1306D01*
X1759Y1306D02*
X1770Y1306D01*
X1804Y1306D02*
X1814Y1306D01*
X1859Y1306D02*
X1870Y1306D01*
X1904Y1306D02*
X1914Y1306D01*
X1959Y1306D02*
X1970Y1306D01*
X2004Y1306D02*
X2014Y1306D01*
X2059Y1306D02*
X2070Y1306D01*
X2104Y1306D02*
X2114Y1306D01*
X2159Y1306D02*
X2170Y1306D01*
X1404Y1305D02*
X1414Y1305D01*
X1460Y1305D02*
X1470Y1305D01*
X1504Y1305D02*
X1514Y1305D01*
X1560Y1305D02*
X1570Y1305D01*
X1604Y1305D02*
X1614Y1305D01*
X1659Y1305D02*
X1670Y1305D01*
X1704Y1305D02*
X1714Y1305D01*
X1759Y1305D02*
X1770Y1305D01*
X1804Y1305D02*
X1814Y1305D01*
X1859Y1305D02*
X1870Y1305D01*
X1904Y1305D02*
X1914Y1305D01*
X1959Y1305D02*
X1970Y1305D01*
X2004Y1305D02*
X2014Y1305D01*
X2059Y1305D02*
X2070Y1305D01*
X2104Y1305D02*
X2114Y1305D01*
X2159Y1305D02*
X2170Y1305D01*
X1404Y1304D02*
X1414Y1304D01*
X1460Y1304D02*
X1470Y1304D01*
X1504Y1304D02*
X1514Y1304D01*
X1560Y1304D02*
X1570Y1304D01*
X1604Y1304D02*
X1614Y1304D01*
X1660Y1304D02*
X1670Y1304D01*
X1704Y1304D02*
X1714Y1304D01*
X1760Y1304D02*
X1770Y1304D01*
X1804Y1304D02*
X1814Y1304D01*
X1860Y1304D02*
X1870Y1304D01*
X1904Y1304D02*
X1914Y1304D01*
X1960Y1304D02*
X1970Y1304D01*
X2004Y1304D02*
X2014Y1304D01*
X2060Y1304D02*
X2070Y1304D01*
X2104Y1304D02*
X2114Y1304D01*
X2160Y1304D02*
X2170Y1304D01*
X1404Y1303D02*
X1414Y1303D01*
X1460Y1303D02*
X1470Y1303D01*
X1504Y1303D02*
X1513Y1303D01*
X1560Y1303D02*
X1570Y1303D01*
X1604Y1303D02*
X1613Y1303D01*
X1660Y1303D02*
X1670Y1303D01*
X1704Y1303D02*
X1713Y1303D01*
X1760Y1303D02*
X1770Y1303D01*
X1804Y1303D02*
X1813Y1303D01*
X1860Y1303D02*
X1870Y1303D01*
X1904Y1303D02*
X1913Y1303D01*
X1960Y1303D02*
X1970Y1303D01*
X2004Y1303D02*
X2013Y1303D01*
X2060Y1303D02*
X2070Y1303D01*
X2104Y1303D02*
X2113Y1303D01*
X2160Y1303D02*
X2170Y1303D01*
X1404Y1302D02*
X1413Y1302D01*
X1460Y1302D02*
X1470Y1302D01*
X1504Y1302D02*
X1513Y1302D01*
X1560Y1302D02*
X1570Y1302D01*
X1604Y1302D02*
X1613Y1302D01*
X1660Y1302D02*
X1670Y1302D01*
X1704Y1302D02*
X1713Y1302D01*
X1760Y1302D02*
X1770Y1302D01*
X1804Y1302D02*
X1813Y1302D01*
X1860Y1302D02*
X1870Y1302D01*
X1904Y1302D02*
X1913Y1302D01*
X1960Y1302D02*
X1970Y1302D01*
X2004Y1302D02*
X2013Y1302D01*
X2060Y1302D02*
X2070Y1302D01*
X2104Y1302D02*
X2113Y1302D01*
X2160Y1302D02*
X2170Y1302D01*
X1404Y1301D02*
X1413Y1301D01*
X1460Y1301D02*
X1470Y1301D01*
X1504Y1301D02*
X1513Y1301D01*
X1560Y1301D02*
X1570Y1301D01*
X1604Y1301D02*
X1613Y1301D01*
X1660Y1301D02*
X1670Y1301D01*
X1704Y1301D02*
X1713Y1301D01*
X1760Y1301D02*
X1770Y1301D01*
X1804Y1301D02*
X1813Y1301D01*
X1860Y1301D02*
X1870Y1301D01*
X1904Y1301D02*
X1913Y1301D01*
X1960Y1301D02*
X1970Y1301D01*
X2003Y1301D02*
X2013Y1301D01*
X2060Y1301D02*
X2070Y1301D01*
X2103Y1301D02*
X2113Y1301D01*
X2160Y1301D02*
X2170Y1301D01*
X1404Y1300D02*
X1413Y1300D01*
X1460Y1300D02*
X1470Y1300D01*
X1504Y1300D02*
X1513Y1300D01*
X1560Y1300D02*
X1570Y1300D01*
X1604Y1300D02*
X1613Y1300D01*
X1660Y1300D02*
X1670Y1300D01*
X1704Y1300D02*
X1713Y1300D01*
X1760Y1300D02*
X1770Y1300D01*
X1804Y1300D02*
X1813Y1300D01*
X1860Y1300D02*
X1870Y1300D01*
X1903Y1300D02*
X1913Y1300D01*
X1960Y1300D02*
X1970Y1300D01*
X2003Y1300D02*
X2013Y1300D01*
X2060Y1300D02*
X2070Y1300D01*
X2103Y1300D02*
X2113Y1300D01*
X2160Y1300D02*
X2170Y1300D01*
X1404Y1299D02*
X1413Y1299D01*
X1461Y1299D02*
X1470Y1299D01*
X1504Y1299D02*
X1513Y1299D01*
X1560Y1299D02*
X1570Y1299D01*
X1604Y1299D02*
X1613Y1299D01*
X1660Y1299D02*
X1670Y1299D01*
X1704Y1299D02*
X1713Y1299D01*
X1760Y1299D02*
X1770Y1299D01*
X1803Y1299D02*
X1813Y1299D01*
X1860Y1299D02*
X1870Y1299D01*
X1903Y1299D02*
X1913Y1299D01*
X1960Y1299D02*
X1970Y1299D01*
X2003Y1299D02*
X2013Y1299D01*
X2060Y1299D02*
X2070Y1299D01*
X2103Y1299D02*
X2113Y1299D01*
X2160Y1299D02*
X2170Y1299D01*
X1404Y1298D02*
X1413Y1298D01*
X1461Y1298D02*
X1470Y1298D01*
X1504Y1298D02*
X1513Y1298D01*
X1560Y1298D02*
X1570Y1298D01*
X1604Y1298D02*
X1613Y1298D01*
X1660Y1298D02*
X1670Y1298D01*
X1703Y1298D02*
X1713Y1298D01*
X1760Y1298D02*
X1770Y1298D01*
X1803Y1298D02*
X1813Y1298D01*
X1860Y1298D02*
X1870Y1298D01*
X1903Y1298D02*
X1913Y1298D01*
X1960Y1298D02*
X1970Y1298D01*
X2003Y1298D02*
X2013Y1298D01*
X2060Y1298D02*
X2070Y1298D01*
X2103Y1298D02*
X2113Y1298D01*
X2160Y1298D02*
X2170Y1298D01*
X1404Y1297D02*
X1413Y1297D01*
X1461Y1297D02*
X1470Y1297D01*
X1504Y1297D02*
X1513Y1297D01*
X1561Y1297D02*
X1570Y1297D01*
X1604Y1297D02*
X1613Y1297D01*
X1660Y1297D02*
X1670Y1297D01*
X1703Y1297D02*
X1713Y1297D01*
X1760Y1297D02*
X1770Y1297D01*
X1803Y1297D02*
X1813Y1297D01*
X1860Y1297D02*
X1870Y1297D01*
X1903Y1297D02*
X1913Y1297D01*
X1960Y1297D02*
X1970Y1297D01*
X2003Y1297D02*
X2013Y1297D01*
X2060Y1297D02*
X2070Y1297D01*
X2103Y1297D02*
X2113Y1297D01*
X2160Y1297D02*
X2170Y1297D01*
X1404Y1296D02*
X1413Y1296D01*
X1461Y1296D02*
X1470Y1296D01*
X1504Y1296D02*
X1513Y1296D01*
X1560Y1296D02*
X1570Y1296D01*
X1604Y1296D02*
X1613Y1296D01*
X1660Y1296D02*
X1670Y1296D01*
X1704Y1296D02*
X1713Y1296D01*
X1760Y1296D02*
X1770Y1296D01*
X1803Y1296D02*
X1813Y1296D01*
X1860Y1296D02*
X1870Y1296D01*
X1903Y1296D02*
X1913Y1296D01*
X1960Y1296D02*
X1970Y1296D01*
X2003Y1296D02*
X2013Y1296D01*
X2060Y1296D02*
X2070Y1296D01*
X2103Y1296D02*
X2113Y1296D01*
X2160Y1296D02*
X2170Y1296D01*
X1404Y1295D02*
X1413Y1295D01*
X1461Y1295D02*
X1470Y1295D01*
X1504Y1295D02*
X1513Y1295D01*
X1560Y1295D02*
X1570Y1295D01*
X1604Y1295D02*
X1613Y1295D01*
X1660Y1295D02*
X1670Y1295D01*
X1704Y1295D02*
X1713Y1295D01*
X1760Y1295D02*
X1770Y1295D01*
X1803Y1295D02*
X1813Y1295D01*
X1860Y1295D02*
X1870Y1295D01*
X1903Y1295D02*
X1913Y1295D01*
X1960Y1295D02*
X1970Y1295D01*
X2003Y1295D02*
X2013Y1295D01*
X2060Y1295D02*
X2070Y1295D01*
X2103Y1295D02*
X2113Y1295D01*
X2160Y1295D02*
X2170Y1295D01*
X1404Y1294D02*
X1413Y1294D01*
X1460Y1294D02*
X1470Y1294D01*
X1504Y1294D02*
X1513Y1294D01*
X1560Y1294D02*
X1570Y1294D01*
X1604Y1294D02*
X1613Y1294D01*
X1660Y1294D02*
X1670Y1294D01*
X1704Y1294D02*
X1713Y1294D01*
X1760Y1294D02*
X1770Y1294D01*
X1804Y1294D02*
X1813Y1294D01*
X1860Y1294D02*
X1870Y1294D01*
X1903Y1294D02*
X1913Y1294D01*
X1960Y1294D02*
X1970Y1294D01*
X2003Y1294D02*
X2013Y1294D01*
X2060Y1294D02*
X2070Y1294D01*
X2103Y1294D02*
X2113Y1294D01*
X2160Y1294D02*
X2170Y1294D01*
X1404Y1293D02*
X1413Y1293D01*
X1460Y1293D02*
X1470Y1293D01*
X1504Y1293D02*
X1513Y1293D01*
X1560Y1293D02*
X1570Y1293D01*
X1604Y1293D02*
X1613Y1293D01*
X1660Y1293D02*
X1670Y1293D01*
X1704Y1293D02*
X1713Y1293D01*
X1760Y1293D02*
X1770Y1293D01*
X1804Y1293D02*
X1813Y1293D01*
X1860Y1293D02*
X1870Y1293D01*
X1904Y1293D02*
X1913Y1293D01*
X1960Y1293D02*
X1970Y1293D01*
X2004Y1293D02*
X2013Y1293D01*
X2060Y1293D02*
X2070Y1293D01*
X2103Y1293D02*
X2113Y1293D01*
X2160Y1293D02*
X2170Y1293D01*
X1404Y1292D02*
X1413Y1292D01*
X1460Y1292D02*
X1470Y1292D01*
X1504Y1292D02*
X1513Y1292D01*
X1560Y1292D02*
X1570Y1292D01*
X1604Y1292D02*
X1613Y1292D01*
X1660Y1292D02*
X1670Y1292D01*
X1704Y1292D02*
X1713Y1292D01*
X1760Y1292D02*
X1770Y1292D01*
X1804Y1292D02*
X1813Y1292D01*
X1860Y1292D02*
X1870Y1292D01*
X1904Y1292D02*
X1913Y1292D01*
X1960Y1292D02*
X1970Y1292D01*
X2004Y1292D02*
X2013Y1292D01*
X2060Y1292D02*
X2070Y1292D01*
X2104Y1292D02*
X2113Y1292D01*
X2160Y1292D02*
X2170Y1292D01*
X1404Y1291D02*
X1414Y1291D01*
X1460Y1291D02*
X1470Y1291D01*
X1504Y1291D02*
X1514Y1291D01*
X1560Y1291D02*
X1570Y1291D01*
X1604Y1291D02*
X1614Y1291D01*
X1660Y1291D02*
X1670Y1291D01*
X1704Y1291D02*
X1714Y1291D01*
X1760Y1291D02*
X1770Y1291D01*
X1804Y1291D02*
X1813Y1291D01*
X1860Y1291D02*
X1870Y1291D01*
X1904Y1291D02*
X1913Y1291D01*
X1960Y1291D02*
X1970Y1291D01*
X2004Y1291D02*
X2013Y1291D01*
X2060Y1291D02*
X2070Y1291D01*
X2104Y1291D02*
X2113Y1291D01*
X2160Y1291D02*
X2170Y1291D01*
X1404Y1290D02*
X1414Y1290D01*
X1460Y1290D02*
X1470Y1290D01*
X1504Y1290D02*
X1514Y1290D01*
X1560Y1290D02*
X1570Y1290D01*
X1604Y1290D02*
X1614Y1290D01*
X1660Y1290D02*
X1670Y1290D01*
X1704Y1290D02*
X1714Y1290D01*
X1760Y1290D02*
X1770Y1290D01*
X1804Y1290D02*
X1814Y1290D01*
X1860Y1290D02*
X1870Y1290D01*
X1904Y1290D02*
X1914Y1290D01*
X1960Y1290D02*
X1970Y1290D01*
X2004Y1290D02*
X2014Y1290D01*
X2060Y1290D02*
X2070Y1290D01*
X2104Y1290D02*
X2114Y1290D01*
X2160Y1290D02*
X2170Y1290D01*
X1404Y1289D02*
X1414Y1289D01*
X1459Y1289D02*
X1470Y1289D01*
X1504Y1289D02*
X1514Y1289D01*
X1559Y1289D02*
X1570Y1289D01*
X1604Y1289D02*
X1614Y1289D01*
X1659Y1289D02*
X1670Y1289D01*
X1704Y1289D02*
X1714Y1289D01*
X1759Y1289D02*
X1770Y1289D01*
X1804Y1289D02*
X1814Y1289D01*
X1859Y1289D02*
X1870Y1289D01*
X1904Y1289D02*
X1914Y1289D01*
X1959Y1289D02*
X1970Y1289D01*
X2004Y1289D02*
X2014Y1289D01*
X2059Y1289D02*
X2070Y1289D01*
X2104Y1289D02*
X2114Y1289D01*
X2159Y1289D02*
X2170Y1289D01*
X1404Y1288D02*
X1415Y1288D01*
X1459Y1288D02*
X1470Y1288D01*
X1504Y1288D02*
X1515Y1288D01*
X1559Y1288D02*
X1570Y1288D01*
X1604Y1288D02*
X1615Y1288D01*
X1659Y1288D02*
X1670Y1288D01*
X1704Y1288D02*
X1715Y1288D01*
X1759Y1288D02*
X1770Y1288D01*
X1804Y1288D02*
X1814Y1288D01*
X1859Y1288D02*
X1870Y1288D01*
X1904Y1288D02*
X1914Y1288D01*
X1959Y1288D02*
X1970Y1288D01*
X2004Y1288D02*
X2014Y1288D01*
X2059Y1288D02*
X2070Y1288D01*
X2104Y1288D02*
X2114Y1288D01*
X2159Y1288D02*
X2170Y1288D01*
X1404Y1287D02*
X1415Y1287D01*
X1458Y1287D02*
X1470Y1287D01*
X1504Y1287D02*
X1515Y1287D01*
X1558Y1287D02*
X1570Y1287D01*
X1604Y1287D02*
X1615Y1287D01*
X1658Y1287D02*
X1670Y1287D01*
X1704Y1287D02*
X1715Y1287D01*
X1758Y1287D02*
X1770Y1287D01*
X1804Y1287D02*
X1815Y1287D01*
X1858Y1287D02*
X1870Y1287D01*
X1904Y1287D02*
X1915Y1287D01*
X1958Y1287D02*
X1970Y1287D01*
X2004Y1287D02*
X2015Y1287D01*
X2058Y1287D02*
X2070Y1287D01*
X2104Y1287D02*
X2115Y1287D01*
X2158Y1287D02*
X2170Y1287D01*
X1404Y1286D02*
X1416Y1286D01*
X1458Y1286D02*
X1470Y1286D01*
X1504Y1286D02*
X1516Y1286D01*
X1558Y1286D02*
X1570Y1286D01*
X1604Y1286D02*
X1616Y1286D01*
X1658Y1286D02*
X1670Y1286D01*
X1704Y1286D02*
X1716Y1286D01*
X1758Y1286D02*
X1770Y1286D01*
X1804Y1286D02*
X1816Y1286D01*
X1858Y1286D02*
X1870Y1286D01*
X1904Y1286D02*
X1916Y1286D01*
X1958Y1286D02*
X1970Y1286D01*
X2004Y1286D02*
X2015Y1286D01*
X2058Y1286D02*
X2070Y1286D01*
X2104Y1286D02*
X2115Y1286D01*
X2158Y1286D02*
X2170Y1286D01*
X1404Y1285D02*
X1416Y1285D01*
X1457Y1285D02*
X1470Y1285D01*
X1504Y1285D02*
X1516Y1285D01*
X1557Y1285D02*
X1570Y1285D01*
X1604Y1285D02*
X1616Y1285D01*
X1657Y1285D02*
X1670Y1285D01*
X1704Y1285D02*
X1716Y1285D01*
X1757Y1285D02*
X1770Y1285D01*
X1804Y1285D02*
X1816Y1285D01*
X1857Y1285D02*
X1870Y1285D01*
X1904Y1285D02*
X1916Y1285D01*
X1957Y1285D02*
X1970Y1285D01*
X2004Y1285D02*
X2016Y1285D01*
X2057Y1285D02*
X2070Y1285D01*
X2104Y1285D02*
X2116Y1285D01*
X2157Y1285D02*
X2170Y1285D01*
X1404Y1284D02*
X1417Y1284D01*
X1457Y1284D02*
X1470Y1284D01*
X1504Y1284D02*
X1517Y1284D01*
X1557Y1284D02*
X1570Y1284D01*
X1604Y1284D02*
X1617Y1284D01*
X1657Y1284D02*
X1670Y1284D01*
X1704Y1284D02*
X1717Y1284D01*
X1757Y1284D02*
X1770Y1284D01*
X1804Y1284D02*
X1817Y1284D01*
X1857Y1284D02*
X1870Y1284D01*
X1904Y1284D02*
X1917Y1284D01*
X1957Y1284D02*
X1970Y1284D01*
X2004Y1284D02*
X2017Y1284D01*
X2057Y1284D02*
X2070Y1284D01*
X2104Y1284D02*
X2117Y1284D01*
X2157Y1284D02*
X2170Y1284D01*
X1404Y1283D02*
X1418Y1283D01*
X1456Y1283D02*
X1470Y1283D01*
X1504Y1283D02*
X1518Y1283D01*
X1556Y1283D02*
X1570Y1283D01*
X1604Y1283D02*
X1618Y1283D01*
X1656Y1283D02*
X1670Y1283D01*
X1704Y1283D02*
X1718Y1283D01*
X1756Y1283D02*
X1770Y1283D01*
X1804Y1283D02*
X1818Y1283D01*
X1856Y1283D02*
X1870Y1283D01*
X1904Y1283D02*
X1918Y1283D01*
X1956Y1283D02*
X1970Y1283D01*
X2004Y1283D02*
X2017Y1283D01*
X2056Y1283D02*
X2070Y1283D01*
X2104Y1283D02*
X2117Y1283D01*
X2156Y1283D02*
X2170Y1283D01*
X1404Y1282D02*
X1419Y1282D01*
X1455Y1282D02*
X1470Y1282D01*
X1504Y1282D02*
X1519Y1282D01*
X1555Y1282D02*
X1570Y1282D01*
X1604Y1282D02*
X1618Y1282D01*
X1655Y1282D02*
X1670Y1282D01*
X1704Y1282D02*
X1718Y1282D01*
X1755Y1282D02*
X1770Y1282D01*
X1804Y1282D02*
X1818Y1282D01*
X1855Y1282D02*
X1870Y1282D01*
X1904Y1282D02*
X1918Y1282D01*
X1955Y1282D02*
X1970Y1282D01*
X2004Y1282D02*
X2018Y1282D01*
X2055Y1282D02*
X2070Y1282D01*
X2104Y1282D02*
X2118Y1282D01*
X2155Y1282D02*
X2170Y1282D01*
X1404Y1281D02*
X1419Y1281D01*
X1454Y1281D02*
X1470Y1281D01*
X1504Y1281D02*
X1519Y1281D01*
X1554Y1281D02*
X1570Y1281D01*
X1604Y1281D02*
X1619Y1281D01*
X1654Y1281D02*
X1670Y1281D01*
X1704Y1281D02*
X1719Y1281D01*
X1754Y1281D02*
X1770Y1281D01*
X1804Y1281D02*
X1819Y1281D01*
X1854Y1281D02*
X1870Y1281D01*
X1904Y1281D02*
X1919Y1281D01*
X1954Y1281D02*
X1970Y1281D01*
X2004Y1281D02*
X2019Y1281D01*
X2054Y1281D02*
X2070Y1281D01*
X2104Y1281D02*
X2119Y1281D01*
X2154Y1281D02*
X2170Y1281D01*
X1404Y1280D02*
X1420Y1280D01*
X1453Y1280D02*
X1470Y1280D01*
X1504Y1280D02*
X1520Y1280D01*
X1553Y1280D02*
X1570Y1280D01*
X1604Y1280D02*
X1620Y1280D01*
X1653Y1280D02*
X1670Y1280D01*
X1704Y1280D02*
X1720Y1280D01*
X1753Y1280D02*
X1770Y1280D01*
X1804Y1280D02*
X1820Y1280D01*
X1853Y1280D02*
X1870Y1280D01*
X1904Y1280D02*
X1920Y1280D01*
X1953Y1280D02*
X1970Y1280D01*
X2004Y1280D02*
X2020Y1280D01*
X2053Y1280D02*
X2070Y1280D01*
X2104Y1280D02*
X2120Y1280D01*
X2153Y1280D02*
X2170Y1280D01*
X1404Y1279D02*
X1422Y1279D01*
X1452Y1279D02*
X1470Y1279D01*
X1504Y1279D02*
X1522Y1279D01*
X1552Y1279D02*
X1570Y1279D01*
X1604Y1279D02*
X1622Y1279D01*
X1652Y1279D02*
X1670Y1279D01*
X1704Y1279D02*
X1722Y1279D01*
X1752Y1279D02*
X1770Y1279D01*
X1804Y1279D02*
X1821Y1279D01*
X1852Y1279D02*
X1870Y1279D01*
X1904Y1279D02*
X1921Y1279D01*
X1952Y1279D02*
X1970Y1279D01*
X2004Y1279D02*
X2021Y1279D01*
X2052Y1279D02*
X2070Y1279D01*
X2104Y1279D02*
X2121Y1279D01*
X2152Y1279D02*
X2170Y1279D01*
X1404Y1278D02*
X1423Y1278D01*
X1451Y1278D02*
X1470Y1278D01*
X1504Y1278D02*
X1523Y1278D01*
X1551Y1278D02*
X1570Y1278D01*
X1604Y1278D02*
X1623Y1278D01*
X1651Y1278D02*
X1670Y1278D01*
X1704Y1278D02*
X1723Y1278D01*
X1751Y1278D02*
X1770Y1278D01*
X1804Y1278D02*
X1823Y1278D01*
X1851Y1278D02*
X1870Y1278D01*
X1904Y1278D02*
X1923Y1278D01*
X1951Y1278D02*
X1970Y1278D01*
X2004Y1278D02*
X2023Y1278D01*
X2051Y1278D02*
X2070Y1278D01*
X2104Y1278D02*
X2123Y1278D01*
X2151Y1278D02*
X2170Y1278D01*
X1404Y1277D02*
X1424Y1277D01*
X1449Y1277D02*
X1470Y1277D01*
X1504Y1277D02*
X1524Y1277D01*
X1549Y1277D02*
X1570Y1277D01*
X1604Y1277D02*
X1624Y1277D01*
X1649Y1277D02*
X1670Y1277D01*
X1704Y1277D02*
X1724Y1277D01*
X1749Y1277D02*
X1770Y1277D01*
X1804Y1277D02*
X1824Y1277D01*
X1849Y1277D02*
X1870Y1277D01*
X1904Y1277D02*
X1924Y1277D01*
X1949Y1277D02*
X1970Y1277D01*
X2004Y1277D02*
X2024Y1277D01*
X2049Y1277D02*
X2070Y1277D01*
X2104Y1277D02*
X2124Y1277D01*
X2149Y1277D02*
X2170Y1277D01*
X1404Y1276D02*
X1426Y1276D01*
X1447Y1276D02*
X1470Y1276D01*
X1504Y1276D02*
X1526Y1276D01*
X1547Y1276D02*
X1570Y1276D01*
X1604Y1276D02*
X1626Y1276D01*
X1647Y1276D02*
X1670Y1276D01*
X1704Y1276D02*
X1726Y1276D01*
X1747Y1276D02*
X1770Y1276D01*
X1804Y1276D02*
X1826Y1276D01*
X1847Y1276D02*
X1870Y1276D01*
X1904Y1276D02*
X1926Y1276D01*
X1947Y1276D02*
X1970Y1276D01*
X2004Y1276D02*
X2026Y1276D01*
X2047Y1276D02*
X2070Y1276D01*
X2104Y1276D02*
X2126Y1276D01*
X2147Y1276D02*
X2170Y1276D01*
X1404Y1275D02*
X1428Y1275D01*
X1445Y1275D02*
X1470Y1275D01*
X1504Y1275D02*
X1528Y1275D01*
X1545Y1275D02*
X1570Y1275D01*
X1604Y1275D02*
X1628Y1275D01*
X1645Y1275D02*
X1670Y1275D01*
X1704Y1275D02*
X1728Y1275D01*
X1745Y1275D02*
X1770Y1275D01*
X1804Y1275D02*
X1828Y1275D01*
X1845Y1275D02*
X1870Y1275D01*
X1904Y1275D02*
X1928Y1275D01*
X1945Y1275D02*
X1970Y1275D01*
X2004Y1275D02*
X2028Y1275D01*
X2045Y1275D02*
X2070Y1275D01*
X2104Y1275D02*
X2128Y1275D01*
X2145Y1275D02*
X2170Y1275D01*
X1404Y1274D02*
X1433Y1274D01*
X1441Y1274D02*
X1470Y1274D01*
X1504Y1274D02*
X1533Y1274D01*
X1541Y1274D02*
X1570Y1274D01*
X1604Y1274D02*
X1633Y1274D01*
X1641Y1274D02*
X1670Y1274D01*
X1704Y1274D02*
X1733Y1274D01*
X1741Y1274D02*
X1770Y1274D01*
X1804Y1274D02*
X1833Y1274D01*
X1841Y1274D02*
X1870Y1274D01*
X1904Y1274D02*
X1933Y1274D01*
X1941Y1274D02*
X1970Y1274D01*
X2004Y1274D02*
X2033Y1274D01*
X2041Y1274D02*
X2070Y1274D01*
X2104Y1274D02*
X2133Y1274D01*
X2141Y1274D02*
X2170Y1274D01*
X1404Y1273D02*
X1470Y1273D01*
X1504Y1273D02*
X1570Y1273D01*
X1604Y1273D02*
X1670Y1273D01*
X1704Y1273D02*
X1770Y1273D01*
X1804Y1273D02*
X1870Y1273D01*
X1904Y1273D02*
X1970Y1273D01*
X2004Y1273D02*
X2070Y1273D01*
X2104Y1273D02*
X2170Y1273D01*
X1404Y1272D02*
X1470Y1272D01*
X1504Y1272D02*
X1570Y1272D01*
X1604Y1272D02*
X1670Y1272D01*
X1704Y1272D02*
X1770Y1272D01*
X1804Y1272D02*
X1870Y1272D01*
X1904Y1272D02*
X1970Y1272D01*
X2004Y1272D02*
X2070Y1272D01*
X2104Y1272D02*
X2170Y1272D01*
X1404Y1271D02*
X1470Y1271D01*
X1504Y1271D02*
X1570Y1271D01*
X1604Y1271D02*
X1670Y1271D01*
X1704Y1271D02*
X1770Y1271D01*
X1804Y1271D02*
X1870Y1271D01*
X1904Y1271D02*
X1970Y1271D01*
X2004Y1271D02*
X2070Y1271D01*
X2104Y1271D02*
X2170Y1271D01*
X1404Y1270D02*
X1470Y1270D01*
X1504Y1270D02*
X1570Y1270D01*
X1604Y1270D02*
X1670Y1270D01*
X1704Y1270D02*
X1770Y1270D01*
X1804Y1270D02*
X1870Y1270D01*
X1904Y1270D02*
X1970Y1270D01*
X2004Y1270D02*
X2070Y1270D01*
X2104Y1270D02*
X2170Y1270D01*
X1404Y1269D02*
X1470Y1269D01*
X1504Y1269D02*
X1570Y1269D01*
X1604Y1269D02*
X1670Y1269D01*
X1704Y1269D02*
X1770Y1269D01*
X1804Y1269D02*
X1870Y1269D01*
X1904Y1269D02*
X1970Y1269D01*
X2004Y1269D02*
X2070Y1269D01*
X2104Y1269D02*
X2170Y1269D01*
X1404Y1268D02*
X1470Y1268D01*
X1504Y1268D02*
X1570Y1268D01*
X1604Y1268D02*
X1670Y1268D01*
X1704Y1268D02*
X1770Y1268D01*
X1804Y1268D02*
X1870Y1268D01*
X1904Y1268D02*
X1970Y1268D01*
X2004Y1268D02*
X2070Y1268D01*
X2104Y1268D02*
X2170Y1268D01*
X1404Y1267D02*
X1470Y1267D01*
X1504Y1267D02*
X1570Y1267D01*
X1604Y1267D02*
X1670Y1267D01*
X1704Y1267D02*
X1770Y1267D01*
X1804Y1267D02*
X1870Y1267D01*
X1904Y1267D02*
X1970Y1267D01*
X2004Y1267D02*
X2070Y1267D01*
X2104Y1267D02*
X2170Y1267D01*
X1404Y1266D02*
X1470Y1266D01*
X1504Y1266D02*
X1570Y1266D01*
X1604Y1266D02*
X1670Y1266D01*
X1704Y1266D02*
X1770Y1266D01*
X1804Y1266D02*
X1870Y1266D01*
X1904Y1266D02*
X1970Y1266D01*
X2004Y1266D02*
X2070Y1266D01*
X2104Y1266D02*
X2170Y1266D01*
X1404Y1265D02*
X1470Y1265D01*
X1504Y1265D02*
X1570Y1265D01*
X1604Y1265D02*
X1670Y1265D01*
X1704Y1265D02*
X1770Y1265D01*
X1804Y1265D02*
X1870Y1265D01*
X1904Y1265D02*
X1970Y1265D01*
X2004Y1265D02*
X2070Y1265D01*
X2104Y1265D02*
X2170Y1265D01*
X1404Y1264D02*
X1470Y1264D01*
X1504Y1264D02*
X1570Y1264D01*
X1604Y1264D02*
X1670Y1264D01*
X1704Y1264D02*
X1770Y1264D01*
X1804Y1264D02*
X1870Y1264D01*
X1904Y1264D02*
X1970Y1264D01*
X2004Y1264D02*
X2070Y1264D01*
X2104Y1264D02*
X2170Y1264D01*
X1404Y1263D02*
X1470Y1263D01*
X1504Y1263D02*
X1570Y1263D01*
X1604Y1263D02*
X1670Y1263D01*
X1704Y1263D02*
X1770Y1263D01*
X1804Y1263D02*
X1870Y1263D01*
X1904Y1263D02*
X1970Y1263D01*
X2004Y1263D02*
X2070Y1263D01*
X2104Y1263D02*
X2170Y1263D01*
X1404Y1262D02*
X1470Y1262D01*
X1504Y1262D02*
X1570Y1262D01*
X1604Y1262D02*
X1670Y1262D01*
X1704Y1262D02*
X1770Y1262D01*
X1804Y1262D02*
X1870Y1262D01*
X1904Y1262D02*
X1970Y1262D01*
X2004Y1262D02*
X2070Y1262D01*
X2104Y1262D02*
X2170Y1262D01*
X1404Y1261D02*
X1470Y1261D01*
X1504Y1261D02*
X1570Y1261D01*
X1604Y1261D02*
X1670Y1261D01*
X1704Y1261D02*
X1770Y1261D01*
X1804Y1261D02*
X1870Y1261D01*
X1904Y1261D02*
X1970Y1261D01*
X2004Y1261D02*
X2070Y1261D01*
X2104Y1261D02*
X2170Y1261D01*
X1404Y1260D02*
X1470Y1260D01*
X1504Y1260D02*
X1570Y1260D01*
X1604Y1260D02*
X1670Y1260D01*
X1704Y1260D02*
X1770Y1260D01*
X1804Y1260D02*
X1870Y1260D01*
X1904Y1260D02*
X1970Y1260D01*
X2004Y1260D02*
X2070Y1260D01*
X2104Y1260D02*
X2170Y1260D01*
X1404Y1259D02*
X1470Y1259D01*
X1504Y1259D02*
X1570Y1259D01*
X1604Y1259D02*
X1670Y1259D01*
X1704Y1259D02*
X1770Y1259D01*
X1804Y1259D02*
X1870Y1259D01*
X1904Y1259D02*
X1970Y1259D01*
X2004Y1259D02*
X2070Y1259D01*
X2104Y1259D02*
X2170Y1259D01*
X1404Y1258D02*
X1470Y1258D01*
X1504Y1258D02*
X1570Y1258D01*
X1604Y1258D02*
X1670Y1258D01*
X1704Y1258D02*
X1770Y1258D01*
X1804Y1258D02*
X1870Y1258D01*
X1904Y1258D02*
X1970Y1258D01*
X2004Y1258D02*
X2070Y1258D01*
X2104Y1258D02*
X2170Y1258D01*
X1404Y1257D02*
X1470Y1257D01*
X1504Y1257D02*
X1570Y1257D01*
X1604Y1257D02*
X1670Y1257D01*
X1704Y1257D02*
X1770Y1257D01*
X1804Y1257D02*
X1870Y1257D01*
X1904Y1257D02*
X1970Y1257D01*
X2004Y1257D02*
X2070Y1257D01*
X2104Y1257D02*
X2170Y1257D01*
X1404Y1256D02*
X1470Y1256D01*
X1504Y1256D02*
X1570Y1256D01*
X1604Y1256D02*
X1670Y1256D01*
X1704Y1256D02*
X1770Y1256D01*
X1804Y1256D02*
X1870Y1256D01*
X1904Y1256D02*
X1970Y1256D01*
X2004Y1256D02*
X2070Y1256D01*
X2104Y1256D02*
X2170Y1256D01*
X1404Y1255D02*
X1470Y1255D01*
X1504Y1255D02*
X1570Y1255D01*
X1604Y1255D02*
X1670Y1255D01*
X1704Y1255D02*
X1770Y1255D01*
X1804Y1255D02*
X1870Y1255D01*
X1904Y1255D02*
X1970Y1255D01*
X2004Y1255D02*
X2070Y1255D01*
X2104Y1255D02*
X2170Y1255D01*
X1404Y1254D02*
X1470Y1254D01*
X1504Y1254D02*
X1570Y1254D01*
X1604Y1254D02*
X1670Y1254D01*
X1704Y1254D02*
X1770Y1254D01*
X1804Y1254D02*
X1870Y1254D01*
X1904Y1254D02*
X1970Y1254D01*
X2004Y1254D02*
X2070Y1254D01*
X2104Y1254D02*
X2170Y1254D01*
X1404Y1253D02*
X1470Y1253D01*
X1504Y1253D02*
X1570Y1253D01*
X1604Y1253D02*
X1670Y1253D01*
X1704Y1253D02*
X1770Y1253D01*
X1804Y1253D02*
X1870Y1253D01*
X1904Y1253D02*
X1970Y1253D01*
X2004Y1253D02*
X2070Y1253D01*
X2104Y1253D02*
X2170Y1253D01*
X1404Y1252D02*
X1470Y1252D01*
X1504Y1252D02*
X1570Y1252D01*
X1604Y1252D02*
X1670Y1252D01*
X1704Y1252D02*
X1770Y1252D01*
X1804Y1252D02*
X1870Y1252D01*
X1904Y1252D02*
X1970Y1252D01*
X2004Y1252D02*
X2070Y1252D01*
X2104Y1252D02*
X2170Y1252D01*
X1404Y1251D02*
X1470Y1251D01*
X1504Y1251D02*
X1570Y1251D01*
X1604Y1251D02*
X1670Y1251D01*
X1704Y1251D02*
X1770Y1251D01*
X1804Y1251D02*
X1870Y1251D01*
X1904Y1251D02*
X1970Y1251D01*
X2004Y1251D02*
X2070Y1251D01*
X2104Y1251D02*
X2170Y1251D01*
X1404Y1250D02*
X1470Y1250D01*
X1504Y1250D02*
X1570Y1250D01*
X1604Y1250D02*
X1670Y1250D01*
X1704Y1250D02*
X1770Y1250D01*
X1804Y1250D02*
X1870Y1250D01*
X1904Y1250D02*
X1970Y1250D01*
X2004Y1250D02*
X2070Y1250D01*
X2104Y1250D02*
X2170Y1250D01*
X1404Y1249D02*
X1470Y1249D01*
X1504Y1249D02*
X1570Y1249D01*
X1604Y1249D02*
X1670Y1249D01*
X1704Y1249D02*
X1770Y1249D01*
X1804Y1249D02*
X1870Y1249D01*
X1904Y1249D02*
X1970Y1249D01*
X2004Y1249D02*
X2070Y1249D01*
X2104Y1249D02*
X2170Y1249D01*
X1404Y1248D02*
X1470Y1248D01*
X1504Y1248D02*
X1570Y1248D01*
X1604Y1248D02*
X1670Y1248D01*
X1704Y1248D02*
X1770Y1248D01*
X1804Y1248D02*
X1870Y1248D01*
X1904Y1248D02*
X1970Y1248D01*
X2004Y1248D02*
X2070Y1248D01*
X2104Y1248D02*
X2170Y1248D01*
X1404Y1247D02*
X1470Y1247D01*
X1504Y1247D02*
X1570Y1247D01*
X1604Y1247D02*
X1670Y1247D01*
X1704Y1247D02*
X1770Y1247D01*
X1804Y1247D02*
X1870Y1247D01*
X1904Y1247D02*
X1970Y1247D01*
X2004Y1247D02*
X2070Y1247D01*
X2104Y1247D02*
X2170Y1247D01*
X1404Y1246D02*
X1470Y1246D01*
X1504Y1246D02*
X1570Y1246D01*
X1604Y1246D02*
X1670Y1246D01*
X1704Y1246D02*
X1770Y1246D01*
X1804Y1246D02*
X1870Y1246D01*
X1904Y1246D02*
X1970Y1246D01*
X2004Y1246D02*
X2070Y1246D01*
X2104Y1246D02*
X2170Y1246D01*
X1404Y1245D02*
X1470Y1245D01*
X1504Y1245D02*
X1570Y1245D01*
X1604Y1245D02*
X1670Y1245D01*
X1704Y1245D02*
X1770Y1245D01*
X1804Y1245D02*
X1870Y1245D01*
X1904Y1245D02*
X1970Y1245D01*
X2004Y1245D02*
X2070Y1245D01*
X2104Y1245D02*
X2170Y1245D01*
X1404Y1244D02*
X1470Y1244D01*
X1504Y1244D02*
X1570Y1244D01*
X1604Y1244D02*
X1670Y1244D01*
X1704Y1244D02*
X1770Y1244D01*
X1804Y1244D02*
X1870Y1244D01*
X1904Y1244D02*
X1970Y1244D01*
X2004Y1244D02*
X2070Y1244D01*
X2104Y1244D02*
X2170Y1244D01*
X1404Y1243D02*
X1470Y1243D01*
X1504Y1243D02*
X1570Y1243D01*
X1604Y1243D02*
X1670Y1243D01*
X1704Y1243D02*
X1770Y1243D01*
X1804Y1243D02*
X1870Y1243D01*
X1904Y1243D02*
X1970Y1243D01*
X2004Y1243D02*
X2070Y1243D01*
X2104Y1243D02*
X2170Y1243D01*
X1404Y1242D02*
X1470Y1242D01*
X1504Y1242D02*
X1570Y1242D01*
X1604Y1242D02*
X1670Y1242D01*
X1704Y1242D02*
X1770Y1242D01*
X1804Y1242D02*
X1870Y1242D01*
X1904Y1242D02*
X1970Y1242D01*
X2004Y1242D02*
X2070Y1242D01*
X2104Y1242D02*
X2170Y1242D01*
X1404Y1241D02*
X1470Y1241D01*
X1504Y1241D02*
X1570Y1241D01*
X1604Y1241D02*
X1670Y1241D01*
X1704Y1241D02*
X1770Y1241D01*
X1804Y1241D02*
X1870Y1241D01*
X1904Y1241D02*
X1970Y1241D01*
X2004Y1241D02*
X2070Y1241D01*
X2104Y1241D02*
X2170Y1241D01*
X1404Y1240D02*
X1470Y1240D01*
X1504Y1240D02*
X1570Y1240D01*
X1604Y1240D02*
X1670Y1240D01*
X1704Y1240D02*
X1770Y1240D01*
X1804Y1240D02*
X1870Y1240D01*
X1904Y1240D02*
X1970Y1240D01*
X2004Y1240D02*
X2070Y1240D01*
X2104Y1240D02*
X2170Y1240D01*
X1404Y1239D02*
X1470Y1239D01*
X1504Y1239D02*
X1570Y1239D01*
X1604Y1239D02*
X1670Y1239D01*
X1704Y1239D02*
X1770Y1239D01*
X1804Y1239D02*
X1870Y1239D01*
X1904Y1239D02*
X1970Y1239D01*
X2004Y1239D02*
X2070Y1239D01*
X2104Y1239D02*
X2170Y1239D01*
X1404Y1238D02*
X1470Y1238D01*
X1504Y1238D02*
X1570Y1238D01*
X1604Y1238D02*
X1670Y1238D01*
X1704Y1238D02*
X1770Y1238D01*
X1804Y1238D02*
X1870Y1238D01*
X1904Y1238D02*
X1970Y1238D01*
X2004Y1238D02*
X2070Y1238D01*
X2104Y1238D02*
X2170Y1238D01*
X1404Y1237D02*
X1470Y1237D01*
X1504Y1237D02*
X1570Y1237D01*
X1604Y1237D02*
X1670Y1237D01*
X1704Y1237D02*
X1770Y1237D01*
X1804Y1237D02*
X1870Y1237D01*
X1904Y1237D02*
X1970Y1237D01*
X2004Y1237D02*
X2070Y1237D01*
X2104Y1237D02*
X2170Y1237D01*
X1404Y1236D02*
X1470Y1236D01*
X1504Y1236D02*
X1570Y1236D01*
X1604Y1236D02*
X1670Y1236D01*
X1704Y1236D02*
X1770Y1236D01*
X1804Y1236D02*
X1870Y1236D01*
X1904Y1236D02*
X1970Y1236D01*
X2004Y1236D02*
X2070Y1236D01*
X2104Y1236D02*
X2170Y1236D01*
X1404Y1235D02*
X1470Y1235D01*
X1504Y1235D02*
X1570Y1235D01*
X1604Y1235D02*
X1670Y1235D01*
X1704Y1235D02*
X1770Y1235D01*
X1804Y1235D02*
X1870Y1235D01*
X1904Y1235D02*
X1970Y1235D01*
X2004Y1235D02*
X2070Y1235D01*
X2104Y1235D02*
X2170Y1235D01*
X1404Y1234D02*
X1470Y1234D01*
X1504Y1234D02*
X1570Y1234D01*
X1604Y1234D02*
X1670Y1234D01*
X1704Y1234D02*
X1770Y1234D01*
X1804Y1234D02*
X1870Y1234D01*
X1904Y1234D02*
X1970Y1234D01*
X2004Y1234D02*
X2070Y1234D01*
X2104Y1234D02*
X2170Y1234D01*
X1404Y1233D02*
X1470Y1233D01*
X1504Y1233D02*
X1570Y1233D01*
X1604Y1233D02*
X1670Y1233D01*
X1704Y1233D02*
X1770Y1233D01*
X1804Y1233D02*
X1870Y1233D01*
X1904Y1233D02*
X1970Y1233D01*
X2004Y1233D02*
X2070Y1233D01*
X2104Y1233D02*
X2170Y1233D01*
X1404Y1232D02*
X1470Y1232D01*
X1504Y1232D02*
X1570Y1232D01*
X1604Y1232D02*
X1670Y1232D01*
X1704Y1232D02*
X1770Y1232D01*
X1804Y1232D02*
X1870Y1232D01*
X1904Y1232D02*
X1970Y1232D01*
X2004Y1232D02*
X2070Y1232D01*
X2104Y1232D02*
X2170Y1232D01*
X1404Y1231D02*
X1470Y1231D01*
X1504Y1231D02*
X1570Y1231D01*
X1604Y1231D02*
X1670Y1231D01*
X1704Y1231D02*
X1770Y1231D01*
X1804Y1231D02*
X1870Y1231D01*
X1904Y1231D02*
X1970Y1231D01*
X2004Y1231D02*
X2070Y1231D01*
X2104Y1231D02*
X2170Y1231D01*
X1404Y1230D02*
X1470Y1230D01*
X1504Y1230D02*
X1570Y1230D01*
X1604Y1230D02*
X1670Y1230D01*
X1704Y1230D02*
X1770Y1230D01*
X1804Y1230D02*
X1870Y1230D01*
X1904Y1230D02*
X1970Y1230D01*
X2004Y1230D02*
X2070Y1230D01*
X2104Y1230D02*
X2170Y1230D01*
X1404Y1229D02*
X1470Y1229D01*
X1504Y1229D02*
X1570Y1229D01*
X1604Y1229D02*
X1670Y1229D01*
X1704Y1229D02*
X1770Y1229D01*
X1804Y1229D02*
X1870Y1229D01*
X1904Y1229D02*
X1970Y1229D01*
X2004Y1229D02*
X2070Y1229D01*
X2104Y1229D02*
X2170Y1229D01*
X1404Y1228D02*
X1470Y1228D01*
X1504Y1228D02*
X1570Y1228D01*
X1604Y1228D02*
X1670Y1228D01*
X1704Y1228D02*
X1770Y1228D01*
X1804Y1228D02*
X1870Y1228D01*
X1904Y1228D02*
X1970Y1228D01*
X2004Y1228D02*
X2070Y1228D01*
X2104Y1228D02*
X2170Y1228D01*
X1404Y1227D02*
X1470Y1227D01*
X1504Y1227D02*
X1570Y1227D01*
X1604Y1227D02*
X1670Y1227D01*
X1704Y1227D02*
X1770Y1227D01*
X1804Y1227D02*
X1870Y1227D01*
X1904Y1227D02*
X1970Y1227D01*
X2004Y1227D02*
X2069Y1227D01*
X2104Y1227D02*
X2169Y1227D01*
X1404Y768D02*
X1469Y768D01*
X1504Y768D02*
X1569Y768D01*
X1604Y768D02*
X1669Y768D01*
X1704Y768D02*
X1769Y768D01*
X1804Y768D02*
X1869Y768D01*
X1904Y768D02*
X1969Y768D01*
X2004Y768D02*
X2069Y768D01*
X2104Y768D02*
X2169Y768D01*
X1404Y767D02*
X1470Y767D01*
X1504Y767D02*
X1570Y767D01*
X1604Y767D02*
X1670Y767D01*
X1704Y767D02*
X1770Y767D01*
X1804Y767D02*
X1870Y767D01*
X1904Y767D02*
X1970Y767D01*
X2004Y767D02*
X2070Y767D01*
X2104Y767D02*
X2170Y767D01*
X1404Y766D02*
X1470Y766D01*
X1504Y766D02*
X1570Y766D01*
X1604Y766D02*
X1670Y766D01*
X1704Y766D02*
X1770Y766D01*
X1804Y766D02*
X1870Y766D01*
X1904Y766D02*
X1970Y766D01*
X2004Y766D02*
X2070Y766D01*
X2104Y766D02*
X2170Y766D01*
X1404Y765D02*
X1470Y765D01*
X1504Y765D02*
X1570Y765D01*
X1604Y765D02*
X1670Y765D01*
X1704Y765D02*
X1770Y765D01*
X1804Y765D02*
X1870Y765D01*
X1904Y765D02*
X1970Y765D01*
X2004Y765D02*
X2070Y765D01*
X2104Y765D02*
X2170Y765D01*
X1404Y764D02*
X1470Y764D01*
X1504Y764D02*
X1570Y764D01*
X1604Y764D02*
X1670Y764D01*
X1704Y764D02*
X1770Y764D01*
X1804Y764D02*
X1870Y764D01*
X1904Y764D02*
X1970Y764D01*
X2004Y764D02*
X2070Y764D01*
X2104Y764D02*
X2170Y764D01*
X1404Y763D02*
X1470Y763D01*
X1504Y763D02*
X1570Y763D01*
X1604Y763D02*
X1670Y763D01*
X1704Y763D02*
X1770Y763D01*
X1804Y763D02*
X1870Y763D01*
X1904Y763D02*
X1970Y763D01*
X2004Y763D02*
X2070Y763D01*
X2104Y763D02*
X2170Y763D01*
X1404Y762D02*
X1470Y762D01*
X1504Y762D02*
X1570Y762D01*
X1604Y762D02*
X1670Y762D01*
X1704Y762D02*
X1770Y762D01*
X1804Y762D02*
X1870Y762D01*
X1904Y762D02*
X1970Y762D01*
X2004Y762D02*
X2070Y762D01*
X2104Y762D02*
X2170Y762D01*
X1404Y761D02*
X1470Y761D01*
X1504Y761D02*
X1570Y761D01*
X1604Y761D02*
X1670Y761D01*
X1704Y761D02*
X1770Y761D01*
X1804Y761D02*
X1870Y761D01*
X1904Y761D02*
X1970Y761D01*
X2004Y761D02*
X2070Y761D01*
X2104Y761D02*
X2170Y761D01*
X1404Y760D02*
X1470Y760D01*
X1504Y760D02*
X1570Y760D01*
X1604Y760D02*
X1670Y760D01*
X1704Y760D02*
X1770Y760D01*
X1804Y760D02*
X1870Y760D01*
X1904Y760D02*
X1970Y760D01*
X2004Y760D02*
X2070Y760D01*
X2104Y760D02*
X2170Y760D01*
X1404Y759D02*
X1470Y759D01*
X1504Y759D02*
X1570Y759D01*
X1604Y759D02*
X1670Y759D01*
X1704Y759D02*
X1770Y759D01*
X1804Y759D02*
X1870Y759D01*
X1904Y759D02*
X1970Y759D01*
X2004Y759D02*
X2070Y759D01*
X2104Y759D02*
X2170Y759D01*
X1404Y758D02*
X1470Y758D01*
X1504Y758D02*
X1570Y758D01*
X1604Y758D02*
X1670Y758D01*
X1704Y758D02*
X1770Y758D01*
X1804Y758D02*
X1870Y758D01*
X1904Y758D02*
X1970Y758D01*
X2004Y758D02*
X2070Y758D01*
X2104Y758D02*
X2170Y758D01*
X1404Y757D02*
X1470Y757D01*
X1504Y757D02*
X1570Y757D01*
X1604Y757D02*
X1670Y757D01*
X1704Y757D02*
X1770Y757D01*
X1804Y757D02*
X1870Y757D01*
X1904Y757D02*
X1970Y757D01*
X2004Y757D02*
X2070Y757D01*
X2104Y757D02*
X2170Y757D01*
X1404Y756D02*
X1470Y756D01*
X1504Y756D02*
X1570Y756D01*
X1604Y756D02*
X1670Y756D01*
X1704Y756D02*
X1770Y756D01*
X1804Y756D02*
X1870Y756D01*
X1904Y756D02*
X1970Y756D01*
X2004Y756D02*
X2070Y756D01*
X2104Y756D02*
X2170Y756D01*
X1404Y755D02*
X1470Y755D01*
X1504Y755D02*
X1570Y755D01*
X1604Y755D02*
X1670Y755D01*
X1704Y755D02*
X1770Y755D01*
X1804Y755D02*
X1870Y755D01*
X1904Y755D02*
X1970Y755D01*
X2004Y755D02*
X2070Y755D01*
X2104Y755D02*
X2170Y755D01*
X1404Y754D02*
X1470Y754D01*
X1504Y754D02*
X1570Y754D01*
X1604Y754D02*
X1670Y754D01*
X1704Y754D02*
X1770Y754D01*
X1804Y754D02*
X1870Y754D01*
X1904Y754D02*
X1970Y754D01*
X2004Y754D02*
X2070Y754D01*
X2104Y754D02*
X2170Y754D01*
X1404Y753D02*
X1470Y753D01*
X1504Y753D02*
X1570Y753D01*
X1604Y753D02*
X1670Y753D01*
X1704Y753D02*
X1770Y753D01*
X1804Y753D02*
X1870Y753D01*
X1904Y753D02*
X1970Y753D01*
X2004Y753D02*
X2070Y753D01*
X2104Y753D02*
X2170Y753D01*
X1404Y752D02*
X1470Y752D01*
X1504Y752D02*
X1570Y752D01*
X1604Y752D02*
X1670Y752D01*
X1704Y752D02*
X1770Y752D01*
X1804Y752D02*
X1870Y752D01*
X1904Y752D02*
X1970Y752D01*
X2004Y752D02*
X2070Y752D01*
X2104Y752D02*
X2170Y752D01*
X1404Y751D02*
X1470Y751D01*
X1504Y751D02*
X1570Y751D01*
X1604Y751D02*
X1670Y751D01*
X1704Y751D02*
X1770Y751D01*
X1804Y751D02*
X1870Y751D01*
X1904Y751D02*
X1970Y751D01*
X2004Y751D02*
X2070Y751D01*
X2104Y751D02*
X2170Y751D01*
X1404Y750D02*
X1470Y750D01*
X1504Y750D02*
X1570Y750D01*
X1604Y750D02*
X1670Y750D01*
X1704Y750D02*
X1770Y750D01*
X1804Y750D02*
X1870Y750D01*
X1904Y750D02*
X1970Y750D01*
X2004Y750D02*
X2070Y750D01*
X2104Y750D02*
X2170Y750D01*
X1404Y749D02*
X1470Y749D01*
X1504Y749D02*
X1570Y749D01*
X1604Y749D02*
X1670Y749D01*
X1704Y749D02*
X1770Y749D01*
X1804Y749D02*
X1870Y749D01*
X1904Y749D02*
X1970Y749D01*
X2004Y749D02*
X2070Y749D01*
X2104Y749D02*
X2170Y749D01*
X1404Y748D02*
X1470Y748D01*
X1504Y748D02*
X1570Y748D01*
X1604Y748D02*
X1670Y748D01*
X1704Y748D02*
X1770Y748D01*
X1804Y748D02*
X1870Y748D01*
X1904Y748D02*
X1970Y748D01*
X2004Y748D02*
X2070Y748D01*
X2104Y748D02*
X2170Y748D01*
X1404Y747D02*
X1470Y747D01*
X1504Y747D02*
X1570Y747D01*
X1604Y747D02*
X1670Y747D01*
X1704Y747D02*
X1770Y747D01*
X1804Y747D02*
X1870Y747D01*
X1904Y747D02*
X1970Y747D01*
X2004Y747D02*
X2070Y747D01*
X2104Y747D02*
X2170Y747D01*
X1404Y746D02*
X1470Y746D01*
X1504Y746D02*
X1570Y746D01*
X1604Y746D02*
X1670Y746D01*
X1704Y746D02*
X1770Y746D01*
X1804Y746D02*
X1870Y746D01*
X1904Y746D02*
X1970Y746D01*
X2004Y746D02*
X2070Y746D01*
X2104Y746D02*
X2170Y746D01*
X1404Y745D02*
X1470Y745D01*
X1504Y745D02*
X1570Y745D01*
X1604Y745D02*
X1670Y745D01*
X1704Y745D02*
X1770Y745D01*
X1804Y745D02*
X1870Y745D01*
X1904Y745D02*
X1970Y745D01*
X2004Y745D02*
X2070Y745D01*
X2104Y745D02*
X2170Y745D01*
X1404Y744D02*
X1470Y744D01*
X1504Y744D02*
X1570Y744D01*
X1604Y744D02*
X1670Y744D01*
X1704Y744D02*
X1770Y744D01*
X1804Y744D02*
X1870Y744D01*
X1904Y744D02*
X1970Y744D01*
X2004Y744D02*
X2070Y744D01*
X2104Y744D02*
X2170Y744D01*
X1404Y743D02*
X1470Y743D01*
X1504Y743D02*
X1570Y743D01*
X1604Y743D02*
X1670Y743D01*
X1704Y743D02*
X1770Y743D01*
X1804Y743D02*
X1870Y743D01*
X1904Y743D02*
X1970Y743D01*
X2004Y743D02*
X2070Y743D01*
X2104Y743D02*
X2170Y743D01*
X1404Y742D02*
X1470Y742D01*
X1504Y742D02*
X1570Y742D01*
X1604Y742D02*
X1670Y742D01*
X1704Y742D02*
X1770Y742D01*
X1804Y742D02*
X1870Y742D01*
X1904Y742D02*
X1970Y742D01*
X2004Y742D02*
X2070Y742D01*
X2104Y742D02*
X2170Y742D01*
X1404Y741D02*
X1470Y741D01*
X1504Y741D02*
X1570Y741D01*
X1604Y741D02*
X1670Y741D01*
X1704Y741D02*
X1770Y741D01*
X1804Y741D02*
X1870Y741D01*
X1904Y741D02*
X1970Y741D01*
X2004Y741D02*
X2070Y741D01*
X2104Y741D02*
X2170Y741D01*
X1404Y740D02*
X1470Y740D01*
X1504Y740D02*
X1570Y740D01*
X1604Y740D02*
X1670Y740D01*
X1704Y740D02*
X1770Y740D01*
X1804Y740D02*
X1870Y740D01*
X1904Y740D02*
X1970Y740D01*
X2004Y740D02*
X2070Y740D01*
X2104Y740D02*
X2170Y740D01*
X1404Y739D02*
X1470Y739D01*
X1504Y739D02*
X1570Y739D01*
X1604Y739D02*
X1670Y739D01*
X1704Y739D02*
X1770Y739D01*
X1804Y739D02*
X1870Y739D01*
X1904Y739D02*
X1970Y739D01*
X2004Y739D02*
X2070Y739D01*
X2104Y739D02*
X2170Y739D01*
X1404Y738D02*
X1470Y738D01*
X1504Y738D02*
X1570Y738D01*
X1604Y738D02*
X1670Y738D01*
X1704Y738D02*
X1770Y738D01*
X1804Y738D02*
X1870Y738D01*
X1904Y738D02*
X1970Y738D01*
X2004Y738D02*
X2070Y738D01*
X2104Y738D02*
X2170Y738D01*
X1404Y737D02*
X1470Y737D01*
X1504Y737D02*
X1570Y737D01*
X1604Y737D02*
X1670Y737D01*
X1704Y737D02*
X1770Y737D01*
X1804Y737D02*
X1870Y737D01*
X1904Y737D02*
X1970Y737D01*
X2004Y737D02*
X2070Y737D01*
X2104Y737D02*
X2170Y737D01*
X1404Y736D02*
X1470Y736D01*
X1504Y736D02*
X1570Y736D01*
X1604Y736D02*
X1670Y736D01*
X1704Y736D02*
X1770Y736D01*
X1804Y736D02*
X1870Y736D01*
X1904Y736D02*
X1970Y736D01*
X2004Y736D02*
X2070Y736D01*
X2104Y736D02*
X2170Y736D01*
X1404Y735D02*
X1470Y735D01*
X1504Y735D02*
X1570Y735D01*
X1604Y735D02*
X1670Y735D01*
X1704Y735D02*
X1770Y735D01*
X1804Y735D02*
X1870Y735D01*
X1904Y735D02*
X1970Y735D01*
X2004Y735D02*
X2070Y735D01*
X2104Y735D02*
X2170Y735D01*
X1404Y734D02*
X1470Y734D01*
X1504Y734D02*
X1570Y734D01*
X1604Y734D02*
X1670Y734D01*
X1704Y734D02*
X1770Y734D01*
X1804Y734D02*
X1870Y734D01*
X1904Y734D02*
X1970Y734D01*
X2004Y734D02*
X2070Y734D01*
X2104Y734D02*
X2170Y734D01*
X1404Y733D02*
X1470Y733D01*
X1504Y733D02*
X1570Y733D01*
X1604Y733D02*
X1670Y733D01*
X1704Y733D02*
X1770Y733D01*
X1804Y733D02*
X1870Y733D01*
X1904Y733D02*
X1970Y733D01*
X2004Y733D02*
X2070Y733D01*
X2104Y733D02*
X2170Y733D01*
X1404Y732D02*
X1470Y732D01*
X1504Y732D02*
X1570Y732D01*
X1604Y732D02*
X1670Y732D01*
X1704Y732D02*
X1770Y732D01*
X1804Y732D02*
X1870Y732D01*
X1904Y732D02*
X1970Y732D01*
X2004Y732D02*
X2070Y732D01*
X2104Y732D02*
X2170Y732D01*
X1404Y731D02*
X1470Y731D01*
X1504Y731D02*
X1570Y731D01*
X1604Y731D02*
X1670Y731D01*
X1704Y731D02*
X1770Y731D01*
X1804Y731D02*
X1870Y731D01*
X1904Y731D02*
X1970Y731D01*
X2004Y731D02*
X2070Y731D01*
X2104Y731D02*
X2170Y731D01*
X1404Y730D02*
X1470Y730D01*
X1504Y730D02*
X1570Y730D01*
X1604Y730D02*
X1670Y730D01*
X1704Y730D02*
X1770Y730D01*
X1804Y730D02*
X1870Y730D01*
X1904Y730D02*
X1970Y730D01*
X2004Y730D02*
X2070Y730D01*
X2104Y730D02*
X2170Y730D01*
X1404Y729D02*
X1470Y729D01*
X1504Y729D02*
X1570Y729D01*
X1604Y729D02*
X1670Y729D01*
X1704Y729D02*
X1770Y729D01*
X1804Y729D02*
X1870Y729D01*
X1904Y729D02*
X1970Y729D01*
X2004Y729D02*
X2070Y729D01*
X2104Y729D02*
X2170Y729D01*
X1404Y728D02*
X1470Y728D01*
X1504Y728D02*
X1570Y728D01*
X1604Y728D02*
X1670Y728D01*
X1704Y728D02*
X1770Y728D01*
X1804Y728D02*
X1870Y728D01*
X1904Y728D02*
X1970Y728D01*
X2004Y728D02*
X2070Y728D01*
X2104Y728D02*
X2170Y728D01*
X1404Y727D02*
X1470Y727D01*
X1504Y727D02*
X1570Y727D01*
X1604Y727D02*
X1670Y727D01*
X1704Y727D02*
X1770Y727D01*
X1804Y727D02*
X1870Y727D01*
X1904Y727D02*
X1970Y727D01*
X2004Y727D02*
X2070Y727D01*
X2104Y727D02*
X2170Y727D01*
X1404Y726D02*
X1470Y726D01*
X1504Y726D02*
X1570Y726D01*
X1604Y726D02*
X1670Y726D01*
X1704Y726D02*
X1770Y726D01*
X1804Y726D02*
X1870Y726D01*
X1904Y726D02*
X1970Y726D01*
X2004Y726D02*
X2070Y726D01*
X2104Y726D02*
X2170Y726D01*
X1404Y725D02*
X1470Y725D01*
X1504Y725D02*
X1570Y725D01*
X1604Y725D02*
X1670Y725D01*
X1704Y725D02*
X1770Y725D01*
X1804Y725D02*
X1870Y725D01*
X1904Y725D02*
X1970Y725D01*
X2004Y725D02*
X2070Y725D01*
X2104Y725D02*
X2170Y725D01*
X1404Y724D02*
X1470Y724D01*
X1504Y724D02*
X1570Y724D01*
X1604Y724D02*
X1670Y724D01*
X1704Y724D02*
X1770Y724D01*
X1804Y724D02*
X1870Y724D01*
X1904Y724D02*
X1970Y724D01*
X2004Y724D02*
X2070Y724D01*
X2104Y724D02*
X2170Y724D01*
X1404Y723D02*
X1470Y723D01*
X1504Y723D02*
X1570Y723D01*
X1604Y723D02*
X1670Y723D01*
X1704Y723D02*
X1770Y723D01*
X1804Y723D02*
X1870Y723D01*
X1904Y723D02*
X1970Y723D01*
X2004Y723D02*
X2070Y723D01*
X2104Y723D02*
X2170Y723D01*
X1404Y722D02*
X1470Y722D01*
X1504Y722D02*
X1570Y722D01*
X1604Y722D02*
X1670Y722D01*
X1704Y722D02*
X1770Y722D01*
X1804Y722D02*
X1870Y722D01*
X1904Y722D02*
X1970Y722D01*
X2004Y722D02*
X2070Y722D01*
X2104Y722D02*
X2170Y722D01*
X1404Y721D02*
X1470Y721D01*
X1504Y721D02*
X1570Y721D01*
X1604Y721D02*
X1670Y721D01*
X1704Y721D02*
X1770Y721D01*
X1804Y721D02*
X1870Y721D01*
X1904Y721D02*
X1970Y721D01*
X2004Y721D02*
X2070Y721D01*
X2104Y721D02*
X2170Y721D01*
X1404Y720D02*
X1429Y720D01*
X1444Y720D02*
X1470Y720D01*
X1504Y720D02*
X1529Y720D01*
X1544Y720D02*
X1570Y720D01*
X1604Y720D02*
X1629Y720D01*
X1644Y720D02*
X1670Y720D01*
X1704Y720D02*
X1729Y720D01*
X1744Y720D02*
X1770Y720D01*
X1804Y720D02*
X1829Y720D01*
X1844Y720D02*
X1870Y720D01*
X1904Y720D02*
X1929Y720D01*
X1944Y720D02*
X1970Y720D01*
X2004Y720D02*
X2029Y720D01*
X2044Y720D02*
X2070Y720D01*
X2104Y720D02*
X2129Y720D01*
X2144Y720D02*
X2170Y720D01*
X1404Y719D02*
X1427Y719D01*
X1447Y719D02*
X1470Y719D01*
X1504Y719D02*
X1527Y719D01*
X1547Y719D02*
X1570Y719D01*
X1604Y719D02*
X1627Y719D01*
X1647Y719D02*
X1670Y719D01*
X1704Y719D02*
X1727Y719D01*
X1747Y719D02*
X1770Y719D01*
X1804Y719D02*
X1827Y719D01*
X1847Y719D02*
X1870Y719D01*
X1904Y719D02*
X1927Y719D01*
X1947Y719D02*
X1970Y719D01*
X2004Y719D02*
X2027Y719D01*
X2047Y719D02*
X2070Y719D01*
X2104Y719D02*
X2127Y719D01*
X2147Y719D02*
X2170Y719D01*
X1404Y718D02*
X1425Y718D01*
X1449Y718D02*
X1470Y718D01*
X1504Y718D02*
X1525Y718D01*
X1549Y718D02*
X1570Y718D01*
X1604Y718D02*
X1625Y718D01*
X1649Y718D02*
X1670Y718D01*
X1704Y718D02*
X1725Y718D01*
X1749Y718D02*
X1770Y718D01*
X1804Y718D02*
X1825Y718D01*
X1849Y718D02*
X1870Y718D01*
X1904Y718D02*
X1925Y718D01*
X1949Y718D02*
X1970Y718D01*
X2004Y718D02*
X2025Y718D01*
X2048Y718D02*
X2070Y718D01*
X2104Y718D02*
X2125Y718D01*
X2148Y718D02*
X2170Y718D01*
X1404Y717D02*
X1423Y717D01*
X1450Y717D02*
X1470Y717D01*
X1504Y717D02*
X1523Y717D01*
X1550Y717D02*
X1570Y717D01*
X1604Y717D02*
X1623Y717D01*
X1650Y717D02*
X1670Y717D01*
X1704Y717D02*
X1723Y717D01*
X1750Y717D02*
X1770Y717D01*
X1804Y717D02*
X1823Y717D01*
X1850Y717D02*
X1870Y717D01*
X1904Y717D02*
X1923Y717D01*
X1950Y717D02*
X1970Y717D01*
X2004Y717D02*
X2023Y717D01*
X2050Y717D02*
X2070Y717D01*
X2104Y717D02*
X2123Y717D01*
X2150Y717D02*
X2170Y717D01*
X1404Y716D02*
X1422Y716D01*
X1452Y716D02*
X1470Y716D01*
X1504Y716D02*
X1522Y716D01*
X1552Y716D02*
X1570Y716D01*
X1604Y716D02*
X1622Y716D01*
X1652Y716D02*
X1670Y716D01*
X1704Y716D02*
X1722Y716D01*
X1752Y716D02*
X1770Y716D01*
X1804Y716D02*
X1822Y716D01*
X1852Y716D02*
X1870Y716D01*
X1904Y716D02*
X1922Y716D01*
X1951Y716D02*
X1970Y716D01*
X2004Y716D02*
X2022Y716D01*
X2051Y716D02*
X2070Y716D01*
X2104Y716D02*
X2122Y716D01*
X2151Y716D02*
X2170Y716D01*
X1404Y715D02*
X1421Y715D01*
X1453Y715D02*
X1470Y715D01*
X1504Y715D02*
X1521Y715D01*
X1553Y715D02*
X1570Y715D01*
X1604Y715D02*
X1621Y715D01*
X1653Y715D02*
X1670Y715D01*
X1704Y715D02*
X1721Y715D01*
X1753Y715D02*
X1770Y715D01*
X1804Y715D02*
X1821Y715D01*
X1853Y715D02*
X1870Y715D01*
X1904Y715D02*
X1921Y715D01*
X1953Y715D02*
X1970Y715D01*
X2004Y715D02*
X2021Y715D01*
X2053Y715D02*
X2070Y715D01*
X2104Y715D02*
X2121Y715D01*
X2153Y715D02*
X2170Y715D01*
X1404Y714D02*
X1420Y714D01*
X1454Y714D02*
X1470Y714D01*
X1504Y714D02*
X1520Y714D01*
X1554Y714D02*
X1570Y714D01*
X1604Y714D02*
X1620Y714D01*
X1654Y714D02*
X1670Y714D01*
X1704Y714D02*
X1720Y714D01*
X1754Y714D02*
X1770Y714D01*
X1804Y714D02*
X1820Y714D01*
X1854Y714D02*
X1870Y714D01*
X1904Y714D02*
X1919Y714D01*
X1954Y714D02*
X1970Y714D01*
X2004Y714D02*
X2019Y714D01*
X2054Y714D02*
X2070Y714D01*
X2104Y714D02*
X2119Y714D01*
X2154Y714D02*
X2170Y714D01*
X1404Y713D02*
X1419Y713D01*
X1455Y713D02*
X1470Y713D01*
X1504Y713D02*
X1519Y713D01*
X1555Y713D02*
X1570Y713D01*
X1604Y713D02*
X1619Y713D01*
X1655Y713D02*
X1670Y713D01*
X1704Y713D02*
X1719Y713D01*
X1755Y713D02*
X1770Y713D01*
X1804Y713D02*
X1819Y713D01*
X1855Y713D02*
X1870Y713D01*
X1904Y713D02*
X1919Y713D01*
X1955Y713D02*
X1970Y713D01*
X2004Y713D02*
X2019Y713D01*
X2055Y713D02*
X2070Y713D01*
X2104Y713D02*
X2119Y713D01*
X2155Y713D02*
X2170Y713D01*
X1404Y712D02*
X1418Y712D01*
X1456Y712D02*
X1470Y712D01*
X1504Y712D02*
X1518Y712D01*
X1556Y712D02*
X1570Y712D01*
X1604Y712D02*
X1618Y712D01*
X1656Y712D02*
X1670Y712D01*
X1704Y712D02*
X1718Y712D01*
X1756Y712D02*
X1770Y712D01*
X1804Y712D02*
X1818Y712D01*
X1856Y712D02*
X1870Y712D01*
X1904Y712D02*
X1918Y712D01*
X1955Y712D02*
X1970Y712D01*
X2004Y712D02*
X2018Y712D01*
X2055Y712D02*
X2070Y712D01*
X2104Y712D02*
X2118Y712D01*
X2155Y712D02*
X2170Y712D01*
X1404Y711D02*
X1417Y711D01*
X1457Y711D02*
X1470Y711D01*
X1504Y711D02*
X1517Y711D01*
X1556Y711D02*
X1570Y711D01*
X1604Y711D02*
X1617Y711D01*
X1656Y711D02*
X1670Y711D01*
X1704Y711D02*
X1717Y711D01*
X1756Y711D02*
X1770Y711D01*
X1804Y711D02*
X1817Y711D01*
X1856Y711D02*
X1870Y711D01*
X1904Y711D02*
X1917Y711D01*
X1956Y711D02*
X1970Y711D01*
X2004Y711D02*
X2017Y711D01*
X2056Y711D02*
X2070Y711D01*
X2104Y711D02*
X2117Y711D01*
X2156Y711D02*
X2170Y711D01*
X1404Y710D02*
X1416Y710D01*
X1457Y710D02*
X1470Y710D01*
X1504Y710D02*
X1516Y710D01*
X1557Y710D02*
X1570Y710D01*
X1604Y710D02*
X1616Y710D01*
X1657Y710D02*
X1670Y710D01*
X1704Y710D02*
X1716Y710D01*
X1757Y710D02*
X1770Y710D01*
X1804Y710D02*
X1816Y710D01*
X1857Y710D02*
X1870Y710D01*
X1904Y710D02*
X1916Y710D01*
X1957Y710D02*
X1970Y710D01*
X2004Y710D02*
X2016Y710D01*
X2057Y710D02*
X2070Y710D01*
X2104Y710D02*
X2116Y710D01*
X2157Y710D02*
X2170Y710D01*
X1404Y709D02*
X1416Y709D01*
X1458Y709D02*
X1470Y709D01*
X1504Y709D02*
X1516Y709D01*
X1558Y709D02*
X1570Y709D01*
X1604Y709D02*
X1616Y709D01*
X1658Y709D02*
X1670Y709D01*
X1704Y709D02*
X1716Y709D01*
X1758Y709D02*
X1770Y709D01*
X1804Y709D02*
X1816Y709D01*
X1858Y709D02*
X1870Y709D01*
X1904Y709D02*
X1916Y709D01*
X1958Y709D02*
X1970Y709D01*
X2004Y709D02*
X2016Y709D01*
X2058Y709D02*
X2070Y709D01*
X2104Y709D02*
X2116Y709D01*
X2158Y709D02*
X2170Y709D01*
X1404Y708D02*
X1415Y708D01*
X1458Y708D02*
X1470Y708D01*
X1504Y708D02*
X1515Y708D01*
X1558Y708D02*
X1570Y708D01*
X1604Y708D02*
X1615Y708D01*
X1658Y708D02*
X1670Y708D01*
X1704Y708D02*
X1715Y708D01*
X1758Y708D02*
X1770Y708D01*
X1804Y708D02*
X1815Y708D01*
X1858Y708D02*
X1870Y708D01*
X1904Y708D02*
X1915Y708D01*
X1958Y708D02*
X1970Y708D01*
X2004Y708D02*
X2015Y708D01*
X2058Y708D02*
X2070Y708D01*
X2104Y708D02*
X2115Y708D01*
X2158Y708D02*
X2170Y708D01*
X1404Y707D02*
X1415Y707D01*
X1459Y707D02*
X1470Y707D01*
X1504Y707D02*
X1515Y707D01*
X1559Y707D02*
X1570Y707D01*
X1604Y707D02*
X1615Y707D01*
X1659Y707D02*
X1670Y707D01*
X1704Y707D02*
X1715Y707D01*
X1759Y707D02*
X1770Y707D01*
X1804Y707D02*
X1815Y707D01*
X1859Y707D02*
X1870Y707D01*
X1904Y707D02*
X1915Y707D01*
X1959Y707D02*
X1970Y707D01*
X2004Y707D02*
X2015Y707D01*
X2059Y707D02*
X2070Y707D01*
X2104Y707D02*
X2115Y707D01*
X2159Y707D02*
X2170Y707D01*
X1404Y706D02*
X1414Y706D01*
X1459Y706D02*
X1470Y706D01*
X1504Y706D02*
X1514Y706D01*
X1559Y706D02*
X1570Y706D01*
X1604Y706D02*
X1614Y706D01*
X1659Y706D02*
X1670Y706D01*
X1704Y706D02*
X1714Y706D01*
X1759Y706D02*
X1770Y706D01*
X1804Y706D02*
X1814Y706D01*
X1859Y706D02*
X1870Y706D01*
X1904Y706D02*
X1914Y706D01*
X1959Y706D02*
X1970Y706D01*
X2004Y706D02*
X2014Y706D01*
X2059Y706D02*
X2070Y706D01*
X2104Y706D02*
X2114Y706D01*
X2159Y706D02*
X2170Y706D01*
X1404Y705D02*
X1414Y705D01*
X1460Y705D02*
X1470Y705D01*
X1504Y705D02*
X1514Y705D01*
X1560Y705D02*
X1570Y705D01*
X1604Y705D02*
X1614Y705D01*
X1660Y705D02*
X1670Y705D01*
X1704Y705D02*
X1714Y705D01*
X1760Y705D02*
X1770Y705D01*
X1804Y705D02*
X1814Y705D01*
X1859Y705D02*
X1870Y705D01*
X1904Y705D02*
X1914Y705D01*
X1959Y705D02*
X1970Y705D01*
X2004Y705D02*
X2014Y705D01*
X2059Y705D02*
X2070Y705D01*
X2104Y705D02*
X2114Y705D01*
X2159Y705D02*
X2170Y705D01*
X1404Y704D02*
X1414Y704D01*
X1460Y704D02*
X1470Y704D01*
X1504Y704D02*
X1514Y704D01*
X1560Y704D02*
X1570Y704D01*
X1604Y704D02*
X1614Y704D01*
X1660Y704D02*
X1670Y704D01*
X1704Y704D02*
X1714Y704D01*
X1760Y704D02*
X1770Y704D01*
X1804Y704D02*
X1814Y704D01*
X1860Y704D02*
X1870Y704D01*
X1904Y704D02*
X1914Y704D01*
X1960Y704D02*
X1970Y704D01*
X2004Y704D02*
X2013Y704D01*
X2060Y704D02*
X2070Y704D01*
X2104Y704D02*
X2113Y704D01*
X2160Y704D02*
X2170Y704D01*
X1404Y703D02*
X1413Y703D01*
X1460Y703D02*
X1470Y703D01*
X1504Y703D02*
X1513Y703D01*
X1560Y703D02*
X1570Y703D01*
X1604Y703D02*
X1613Y703D01*
X1660Y703D02*
X1670Y703D01*
X1704Y703D02*
X1713Y703D01*
X1760Y703D02*
X1770Y703D01*
X1804Y703D02*
X1813Y703D01*
X1860Y703D02*
X1870Y703D01*
X1904Y703D02*
X1913Y703D01*
X1960Y703D02*
X1970Y703D01*
X2004Y703D02*
X2013Y703D01*
X2060Y703D02*
X2070Y703D01*
X2104Y703D02*
X2113Y703D01*
X2160Y703D02*
X2170Y703D01*
X1404Y702D02*
X1413Y702D01*
X1460Y702D02*
X1470Y702D01*
X1504Y702D02*
X1513Y702D01*
X1560Y702D02*
X1570Y702D01*
X1604Y702D02*
X1613Y702D01*
X1660Y702D02*
X1670Y702D01*
X1704Y702D02*
X1713Y702D01*
X1760Y702D02*
X1770Y702D01*
X1804Y702D02*
X1813Y702D01*
X1860Y702D02*
X1870Y702D01*
X1904Y702D02*
X1913Y702D01*
X1960Y702D02*
X1970Y702D01*
X2004Y702D02*
X2013Y702D01*
X2060Y702D02*
X2070Y702D01*
X2104Y702D02*
X2113Y702D01*
X2160Y702D02*
X2170Y702D01*
X1404Y701D02*
X1413Y701D01*
X1460Y701D02*
X1470Y701D01*
X1504Y701D02*
X1513Y701D01*
X1560Y701D02*
X1570Y701D01*
X1604Y701D02*
X1613Y701D01*
X1660Y701D02*
X1670Y701D01*
X1704Y701D02*
X1713Y701D01*
X1760Y701D02*
X1770Y701D01*
X1804Y701D02*
X1813Y701D01*
X1860Y701D02*
X1870Y701D01*
X1904Y701D02*
X1913Y701D01*
X1960Y701D02*
X1970Y701D01*
X2003Y701D02*
X2013Y701D01*
X2060Y701D02*
X2070Y701D01*
X2103Y701D02*
X2113Y701D01*
X2160Y701D02*
X2170Y701D01*
X1404Y700D02*
X1413Y700D01*
X1460Y700D02*
X1470Y700D01*
X1504Y700D02*
X1513Y700D01*
X1560Y700D02*
X1570Y700D01*
X1604Y700D02*
X1613Y700D01*
X1660Y700D02*
X1670Y700D01*
X1704Y700D02*
X1713Y700D01*
X1760Y700D02*
X1770Y700D01*
X1804Y700D02*
X1813Y700D01*
X1860Y700D02*
X1870Y700D01*
X1903Y700D02*
X1913Y700D01*
X1960Y700D02*
X1970Y700D01*
X2003Y700D02*
X2013Y700D01*
X2060Y700D02*
X2070Y700D01*
X2103Y700D02*
X2113Y700D01*
X2160Y700D02*
X2170Y700D01*
X1404Y699D02*
X1413Y699D01*
X1461Y699D02*
X1470Y699D01*
X1504Y699D02*
X1513Y699D01*
X1560Y699D02*
X1570Y699D01*
X1604Y699D02*
X1613Y699D01*
X1660Y699D02*
X1670Y699D01*
X1704Y699D02*
X1713Y699D01*
X1760Y699D02*
X1770Y699D01*
X1803Y699D02*
X1813Y699D01*
X1860Y699D02*
X1870Y699D01*
X1903Y699D02*
X1913Y699D01*
X1960Y699D02*
X1970Y699D01*
X2003Y699D02*
X2013Y699D01*
X2060Y699D02*
X2070Y699D01*
X2103Y699D02*
X2113Y699D01*
X2160Y699D02*
X2170Y699D01*
X1404Y698D02*
X1413Y698D01*
X1461Y698D02*
X1470Y698D01*
X1504Y698D02*
X1513Y698D01*
X1561Y698D02*
X1570Y698D01*
X1604Y698D02*
X1613Y698D01*
X1660Y698D02*
X1670Y698D01*
X1703Y698D02*
X1713Y698D01*
X1760Y698D02*
X1770Y698D01*
X1803Y698D02*
X1813Y698D01*
X1860Y698D02*
X1870Y698D01*
X1903Y698D02*
X1913Y698D01*
X1960Y698D02*
X1970Y698D01*
X2003Y698D02*
X2013Y698D01*
X2060Y698D02*
X2070Y698D01*
X2103Y698D02*
X2113Y698D01*
X2160Y698D02*
X2170Y698D01*
X1404Y697D02*
X1413Y697D01*
X1461Y697D02*
X1470Y697D01*
X1504Y697D02*
X1513Y697D01*
X1561Y697D02*
X1570Y697D01*
X1604Y697D02*
X1613Y697D01*
X1660Y697D02*
X1670Y697D01*
X1703Y697D02*
X1713Y697D01*
X1760Y697D02*
X1770Y697D01*
X1803Y697D02*
X1813Y697D01*
X1860Y697D02*
X1870Y697D01*
X1903Y697D02*
X1913Y697D01*
X1960Y697D02*
X1970Y697D01*
X2003Y697D02*
X2013Y697D01*
X2060Y697D02*
X2070Y697D01*
X2103Y697D02*
X2113Y697D01*
X2160Y697D02*
X2170Y697D01*
X1404Y696D02*
X1413Y696D01*
X1461Y696D02*
X1470Y696D01*
X1504Y696D02*
X1513Y696D01*
X1560Y696D02*
X1570Y696D01*
X1604Y696D02*
X1613Y696D01*
X1660Y696D02*
X1670Y696D01*
X1704Y696D02*
X1713Y696D01*
X1760Y696D02*
X1770Y696D01*
X1803Y696D02*
X1813Y696D01*
X1860Y696D02*
X1870Y696D01*
X1903Y696D02*
X1913Y696D01*
X1960Y696D02*
X1970Y696D01*
X2003Y696D02*
X2013Y696D01*
X2060Y696D02*
X2070Y696D01*
X2103Y696D02*
X2113Y696D01*
X2160Y696D02*
X2170Y696D01*
X1404Y695D02*
X1413Y695D01*
X1460Y695D02*
X1470Y695D01*
X1504Y695D02*
X1513Y695D01*
X1560Y695D02*
X1570Y695D01*
X1604Y695D02*
X1613Y695D01*
X1660Y695D02*
X1670Y695D01*
X1704Y695D02*
X1713Y695D01*
X1760Y695D02*
X1770Y695D01*
X1804Y695D02*
X1813Y695D01*
X1860Y695D02*
X1870Y695D01*
X1903Y695D02*
X1913Y695D01*
X1960Y695D02*
X1970Y695D01*
X2003Y695D02*
X2013Y695D01*
X2060Y695D02*
X2070Y695D01*
X2103Y695D02*
X2113Y695D01*
X2160Y695D02*
X2170Y695D01*
X1404Y694D02*
X1413Y694D01*
X1460Y694D02*
X1470Y694D01*
X1504Y694D02*
X1513Y694D01*
X1560Y694D02*
X1570Y694D01*
X1604Y694D02*
X1613Y694D01*
X1660Y694D02*
X1670Y694D01*
X1704Y694D02*
X1713Y694D01*
X1760Y694D02*
X1770Y694D01*
X1804Y694D02*
X1813Y694D01*
X1860Y694D02*
X1870Y694D01*
X1904Y694D02*
X1913Y694D01*
X1960Y694D02*
X1970Y694D01*
X2003Y694D02*
X2013Y694D01*
X2060Y694D02*
X2070Y694D01*
X2103Y694D02*
X2113Y694D01*
X2160Y694D02*
X2170Y694D01*
X1404Y693D02*
X1413Y693D01*
X1460Y693D02*
X1470Y693D01*
X1504Y693D02*
X1513Y693D01*
X1560Y693D02*
X1570Y693D01*
X1604Y693D02*
X1613Y693D01*
X1660Y693D02*
X1670Y693D01*
X1704Y693D02*
X1713Y693D01*
X1760Y693D02*
X1770Y693D01*
X1804Y693D02*
X1813Y693D01*
X1860Y693D02*
X1870Y693D01*
X1904Y693D02*
X1913Y693D01*
X1960Y693D02*
X1970Y693D01*
X2004Y693D02*
X2013Y693D01*
X2060Y693D02*
X2070Y693D01*
X2104Y693D02*
X2113Y693D01*
X2160Y693D02*
X2170Y693D01*
X1404Y692D02*
X1413Y692D01*
X1460Y692D02*
X1470Y692D01*
X1504Y692D02*
X1513Y692D01*
X1560Y692D02*
X1570Y692D01*
X1604Y692D02*
X1613Y692D01*
X1660Y692D02*
X1670Y692D01*
X1704Y692D02*
X1713Y692D01*
X1760Y692D02*
X1770Y692D01*
X1804Y692D02*
X1813Y692D01*
X1860Y692D02*
X1870Y692D01*
X1904Y692D02*
X1913Y692D01*
X1960Y692D02*
X1970Y692D01*
X2004Y692D02*
X2013Y692D01*
X2060Y692D02*
X2070Y692D01*
X2104Y692D02*
X2113Y692D01*
X2160Y692D02*
X2170Y692D01*
X1404Y691D02*
X1414Y691D01*
X1460Y691D02*
X1470Y691D01*
X1504Y691D02*
X1514Y691D01*
X1560Y691D02*
X1570Y691D01*
X1604Y691D02*
X1614Y691D01*
X1660Y691D02*
X1670Y691D01*
X1704Y691D02*
X1714Y691D01*
X1760Y691D02*
X1770Y691D01*
X1804Y691D02*
X1814Y691D01*
X1860Y691D02*
X1870Y691D01*
X1904Y691D02*
X1914Y691D01*
X1960Y691D02*
X1970Y691D01*
X2004Y691D02*
X2013Y691D01*
X2060Y691D02*
X2070Y691D01*
X2104Y691D02*
X2113Y691D01*
X2160Y691D02*
X2170Y691D01*
X1404Y690D02*
X1414Y690D01*
X1460Y690D02*
X1470Y690D01*
X1504Y690D02*
X1514Y690D01*
X1560Y690D02*
X1570Y690D01*
X1604Y690D02*
X1614Y690D01*
X1660Y690D02*
X1670Y690D01*
X1704Y690D02*
X1714Y690D01*
X1760Y690D02*
X1770Y690D01*
X1804Y690D02*
X1814Y690D01*
X1860Y690D02*
X1870Y690D01*
X1904Y690D02*
X1914Y690D01*
X1959Y690D02*
X1970Y690D01*
X2004Y690D02*
X2014Y690D01*
X2059Y690D02*
X2070Y690D01*
X2104Y690D02*
X2114Y690D01*
X2159Y690D02*
X2170Y690D01*
X1404Y689D02*
X1414Y689D01*
X1459Y689D02*
X1470Y689D01*
X1504Y689D02*
X1514Y689D01*
X1559Y689D02*
X1570Y689D01*
X1604Y689D02*
X1614Y689D01*
X1659Y689D02*
X1670Y689D01*
X1704Y689D02*
X1714Y689D01*
X1759Y689D02*
X1770Y689D01*
X1804Y689D02*
X1814Y689D01*
X1859Y689D02*
X1870Y689D01*
X1904Y689D02*
X1914Y689D01*
X1959Y689D02*
X1970Y689D01*
X2004Y689D02*
X2014Y689D01*
X2059Y689D02*
X2070Y689D01*
X2104Y689D02*
X2114Y689D01*
X2159Y689D02*
X2170Y689D01*
X1404Y688D02*
X1415Y688D01*
X1459Y688D02*
X1470Y688D01*
X1504Y688D02*
X1515Y688D01*
X1559Y688D02*
X1570Y688D01*
X1604Y688D02*
X1615Y688D01*
X1659Y688D02*
X1670Y688D01*
X1704Y688D02*
X1715Y688D01*
X1759Y688D02*
X1770Y688D01*
X1804Y688D02*
X1815Y688D01*
X1859Y688D02*
X1870Y688D01*
X1904Y688D02*
X1915Y688D01*
X1959Y688D02*
X1970Y688D01*
X2004Y688D02*
X2015Y688D01*
X2059Y688D02*
X2070Y688D01*
X2104Y688D02*
X2115Y688D01*
X2159Y688D02*
X2170Y688D01*
X1404Y687D02*
X1415Y687D01*
X1458Y687D02*
X1470Y687D01*
X1504Y687D02*
X1515Y687D01*
X1558Y687D02*
X1570Y687D01*
X1604Y687D02*
X1615Y687D01*
X1658Y687D02*
X1670Y687D01*
X1704Y687D02*
X1715Y687D01*
X1758Y687D02*
X1770Y687D01*
X1804Y687D02*
X1815Y687D01*
X1858Y687D02*
X1870Y687D01*
X1904Y687D02*
X1915Y687D01*
X1958Y687D02*
X1970Y687D01*
X2004Y687D02*
X2015Y687D01*
X2058Y687D02*
X2070Y687D01*
X2104Y687D02*
X2115Y687D01*
X2158Y687D02*
X2170Y687D01*
X1404Y686D02*
X1416Y686D01*
X1458Y686D02*
X1470Y686D01*
X1504Y686D02*
X1516Y686D01*
X1558Y686D02*
X1570Y686D01*
X1604Y686D02*
X1616Y686D01*
X1658Y686D02*
X1670Y686D01*
X1704Y686D02*
X1716Y686D01*
X1758Y686D02*
X1770Y686D01*
X1804Y686D02*
X1816Y686D01*
X1858Y686D02*
X1870Y686D01*
X1904Y686D02*
X1916Y686D01*
X1958Y686D02*
X1970Y686D01*
X2004Y686D02*
X2016Y686D01*
X2058Y686D02*
X2070Y686D01*
X2104Y686D02*
X2116Y686D01*
X2158Y686D02*
X2170Y686D01*
X1404Y685D02*
X1416Y685D01*
X1457Y685D02*
X1470Y685D01*
X1504Y685D02*
X1516Y685D01*
X1557Y685D02*
X1570Y685D01*
X1604Y685D02*
X1616Y685D01*
X1657Y685D02*
X1670Y685D01*
X1704Y685D02*
X1716Y685D01*
X1757Y685D02*
X1770Y685D01*
X1804Y685D02*
X1816Y685D01*
X1857Y685D02*
X1870Y685D01*
X1904Y685D02*
X1916Y685D01*
X1957Y685D02*
X1970Y685D01*
X2004Y685D02*
X2016Y685D01*
X2057Y685D02*
X2070Y685D01*
X2104Y685D02*
X2116Y685D01*
X2157Y685D02*
X2170Y685D01*
X1404Y684D02*
X1417Y684D01*
X1457Y684D02*
X1470Y684D01*
X1504Y684D02*
X1517Y684D01*
X1557Y684D02*
X1570Y684D01*
X1604Y684D02*
X1617Y684D01*
X1656Y684D02*
X1670Y684D01*
X1704Y684D02*
X1717Y684D01*
X1756Y684D02*
X1770Y684D01*
X1804Y684D02*
X1817Y684D01*
X1856Y684D02*
X1870Y684D01*
X1904Y684D02*
X1917Y684D01*
X1956Y684D02*
X1970Y684D01*
X2004Y684D02*
X2017Y684D01*
X2056Y684D02*
X2070Y684D01*
X2104Y684D02*
X2117Y684D01*
X2156Y684D02*
X2170Y684D01*
X1404Y683D02*
X1418Y683D01*
X1456Y683D02*
X1470Y683D01*
X1504Y683D02*
X1518Y683D01*
X1556Y683D02*
X1570Y683D01*
X1604Y683D02*
X1618Y683D01*
X1656Y683D02*
X1670Y683D01*
X1704Y683D02*
X1718Y683D01*
X1756Y683D02*
X1770Y683D01*
X1804Y683D02*
X1818Y683D01*
X1856Y683D02*
X1870Y683D01*
X1904Y683D02*
X1918Y683D01*
X1956Y683D02*
X1970Y683D01*
X2004Y683D02*
X2018Y683D01*
X2055Y683D02*
X2070Y683D01*
X2104Y683D02*
X2118Y683D01*
X2155Y683D02*
X2170Y683D01*
X1404Y682D02*
X1419Y682D01*
X1455Y682D02*
X1470Y682D01*
X1504Y682D02*
X1519Y682D01*
X1555Y682D02*
X1570Y682D01*
X1604Y682D02*
X1619Y682D01*
X1655Y682D02*
X1670Y682D01*
X1704Y682D02*
X1719Y682D01*
X1755Y682D02*
X1770Y682D01*
X1804Y682D02*
X1819Y682D01*
X1855Y682D02*
X1870Y682D01*
X1904Y682D02*
X1919Y682D01*
X1955Y682D02*
X1970Y682D01*
X2004Y682D02*
X2019Y682D01*
X2055Y682D02*
X2070Y682D01*
X2104Y682D02*
X2119Y682D01*
X2155Y682D02*
X2170Y682D01*
X1404Y681D02*
X1420Y681D01*
X1454Y681D02*
X1470Y681D01*
X1504Y681D02*
X1520Y681D01*
X1554Y681D02*
X1570Y681D01*
X1604Y681D02*
X1620Y681D01*
X1654Y681D02*
X1670Y681D01*
X1704Y681D02*
X1720Y681D01*
X1754Y681D02*
X1770Y681D01*
X1804Y681D02*
X1819Y681D01*
X1854Y681D02*
X1870Y681D01*
X1904Y681D02*
X1919Y681D01*
X1954Y681D02*
X1970Y681D01*
X2004Y681D02*
X2019Y681D01*
X2054Y681D02*
X2070Y681D01*
X2104Y681D02*
X2119Y681D01*
X2154Y681D02*
X2170Y681D01*
X1404Y680D02*
X1421Y680D01*
X1453Y680D02*
X1470Y680D01*
X1504Y680D02*
X1521Y680D01*
X1553Y680D02*
X1570Y680D01*
X1604Y680D02*
X1621Y680D01*
X1653Y680D02*
X1670Y680D01*
X1704Y680D02*
X1721Y680D01*
X1753Y680D02*
X1770Y680D01*
X1804Y680D02*
X1821Y680D01*
X1853Y680D02*
X1870Y680D01*
X1904Y680D02*
X1921Y680D01*
X1953Y680D02*
X1970Y680D01*
X2004Y680D02*
X2021Y680D01*
X2053Y680D02*
X2070Y680D01*
X2104Y680D02*
X2120Y680D01*
X2153Y680D02*
X2170Y680D01*
X1404Y679D02*
X1422Y679D01*
X1452Y679D02*
X1470Y679D01*
X1504Y679D02*
X1522Y679D01*
X1552Y679D02*
X1570Y679D01*
X1604Y679D02*
X1622Y679D01*
X1652Y679D02*
X1670Y679D01*
X1704Y679D02*
X1722Y679D01*
X1752Y679D02*
X1770Y679D01*
X1804Y679D02*
X1822Y679D01*
X1852Y679D02*
X1870Y679D01*
X1904Y679D02*
X1922Y679D01*
X1952Y679D02*
X1970Y679D01*
X2004Y679D02*
X2022Y679D01*
X2051Y679D02*
X2070Y679D01*
X2104Y679D02*
X2122Y679D01*
X2151Y679D02*
X2170Y679D01*
X1404Y678D02*
X1423Y678D01*
X1450Y678D02*
X1470Y678D01*
X1504Y678D02*
X1523Y678D01*
X1550Y678D02*
X1570Y678D01*
X1604Y678D02*
X1623Y678D01*
X1650Y678D02*
X1670Y678D01*
X1704Y678D02*
X1723Y678D01*
X1750Y678D02*
X1770Y678D01*
X1804Y678D02*
X1823Y678D01*
X1850Y678D02*
X1870Y678D01*
X1904Y678D02*
X1923Y678D01*
X1950Y678D02*
X1970Y678D01*
X2004Y678D02*
X2023Y678D01*
X2050Y678D02*
X2070Y678D01*
X2104Y678D02*
X2123Y678D01*
X2150Y678D02*
X2170Y678D01*
X1404Y677D02*
X1425Y677D01*
X1449Y677D02*
X1470Y677D01*
X1504Y677D02*
X1525Y677D01*
X1549Y677D02*
X1570Y677D01*
X1604Y677D02*
X1625Y677D01*
X1649Y677D02*
X1670Y677D01*
X1704Y677D02*
X1725Y677D01*
X1749Y677D02*
X1770Y677D01*
X1804Y677D02*
X1825Y677D01*
X1849Y677D02*
X1870Y677D01*
X1904Y677D02*
X1925Y677D01*
X1949Y677D02*
X1970Y677D01*
X2004Y677D02*
X2025Y677D01*
X2049Y677D02*
X2070Y677D01*
X2104Y677D02*
X2125Y677D01*
X2149Y677D02*
X2170Y677D01*
X1404Y676D02*
X1427Y676D01*
X1447Y676D02*
X1470Y676D01*
X1504Y676D02*
X1527Y676D01*
X1547Y676D02*
X1570Y676D01*
X1604Y676D02*
X1627Y676D01*
X1647Y676D02*
X1670Y676D01*
X1704Y676D02*
X1727Y676D01*
X1747Y676D02*
X1770Y676D01*
X1804Y676D02*
X1827Y676D01*
X1847Y676D02*
X1870Y676D01*
X1904Y676D02*
X1926Y676D01*
X1947Y676D02*
X1970Y676D01*
X2004Y676D02*
X2026Y676D01*
X2047Y676D02*
X2070Y676D01*
X2104Y676D02*
X2126Y676D01*
X2147Y676D02*
X2170Y676D01*
X1404Y675D02*
X1429Y675D01*
X1444Y675D02*
X1470Y675D01*
X1504Y675D02*
X1529Y675D01*
X1544Y675D02*
X1570Y675D01*
X1604Y675D02*
X1629Y675D01*
X1644Y675D02*
X1670Y675D01*
X1704Y675D02*
X1729Y675D01*
X1744Y675D02*
X1770Y675D01*
X1804Y675D02*
X1829Y675D01*
X1844Y675D02*
X1870Y675D01*
X1904Y675D02*
X1929Y675D01*
X1944Y675D02*
X1970Y675D01*
X2004Y675D02*
X2029Y675D01*
X2044Y675D02*
X2070Y675D01*
X2104Y675D02*
X2129Y675D01*
X2144Y675D02*
X2170Y675D01*
X1404Y674D02*
X1470Y674D01*
X1504Y674D02*
X1570Y674D01*
X1604Y674D02*
X1670Y674D01*
X1704Y674D02*
X1770Y674D01*
X1804Y674D02*
X1870Y674D01*
X1904Y674D02*
X1970Y674D01*
X2004Y674D02*
X2070Y674D01*
X2104Y674D02*
X2170Y674D01*
X1404Y673D02*
X1470Y673D01*
X1504Y673D02*
X1570Y673D01*
X1604Y673D02*
X1670Y673D01*
X1704Y673D02*
X1770Y673D01*
X1804Y673D02*
X1870Y673D01*
X1904Y673D02*
X1970Y673D01*
X2004Y673D02*
X2070Y673D01*
X2104Y673D02*
X2170Y673D01*
X1404Y672D02*
X1470Y672D01*
X1504Y672D02*
X1570Y672D01*
X1604Y672D02*
X1670Y672D01*
X1704Y672D02*
X1770Y672D01*
X1804Y672D02*
X1870Y672D01*
X1904Y672D02*
X1970Y672D01*
X2004Y672D02*
X2070Y672D01*
X2104Y672D02*
X2170Y672D01*
X1404Y671D02*
X1470Y671D01*
X1504Y671D02*
X1570Y671D01*
X1604Y671D02*
X1670Y671D01*
X1704Y671D02*
X1770Y671D01*
X1804Y671D02*
X1870Y671D01*
X1904Y671D02*
X1970Y671D01*
X2004Y671D02*
X2070Y671D01*
X2104Y671D02*
X2170Y671D01*
X1404Y670D02*
X1470Y670D01*
X1504Y670D02*
X1570Y670D01*
X1604Y670D02*
X1670Y670D01*
X1704Y670D02*
X1770Y670D01*
X1804Y670D02*
X1870Y670D01*
X1904Y670D02*
X1970Y670D01*
X2004Y670D02*
X2070Y670D01*
X2104Y670D02*
X2170Y670D01*
X1404Y669D02*
X1470Y669D01*
X1504Y669D02*
X1570Y669D01*
X1604Y669D02*
X1670Y669D01*
X1704Y669D02*
X1770Y669D01*
X1804Y669D02*
X1870Y669D01*
X1904Y669D02*
X1970Y669D01*
X2004Y669D02*
X2070Y669D01*
X2104Y669D02*
X2170Y669D01*
X1404Y668D02*
X1470Y668D01*
X1504Y668D02*
X1570Y668D01*
X1604Y668D02*
X1670Y668D01*
X1704Y668D02*
X1770Y668D01*
X1804Y668D02*
X1870Y668D01*
X1904Y668D02*
X1970Y668D01*
X2004Y668D02*
X2070Y668D01*
X2104Y668D02*
X2170Y668D01*
X1404Y667D02*
X1470Y667D01*
X1504Y667D02*
X1570Y667D01*
X1604Y667D02*
X1670Y667D01*
X1704Y667D02*
X1770Y667D01*
X1804Y667D02*
X1870Y667D01*
X1904Y667D02*
X1970Y667D01*
X2004Y667D02*
X2070Y667D01*
X2104Y667D02*
X2170Y667D01*
X1404Y666D02*
X1470Y666D01*
X1504Y666D02*
X1570Y666D01*
X1604Y666D02*
X1670Y666D01*
X1704Y666D02*
X1770Y666D01*
X1804Y666D02*
X1870Y666D01*
X1904Y666D02*
X1970Y666D01*
X2004Y666D02*
X2070Y666D01*
X2104Y666D02*
X2170Y666D01*
X1404Y665D02*
X1470Y665D01*
X1504Y665D02*
X1570Y665D01*
X1604Y665D02*
X1670Y665D01*
X1704Y665D02*
X1770Y665D01*
X1804Y665D02*
X1870Y665D01*
X1904Y665D02*
X1970Y665D01*
X2004Y665D02*
X2070Y665D01*
X2104Y665D02*
X2170Y665D01*
X1404Y664D02*
X1470Y664D01*
X1504Y664D02*
X1570Y664D01*
X1604Y664D02*
X1670Y664D01*
X1704Y664D02*
X1770Y664D01*
X1804Y664D02*
X1870Y664D01*
X1904Y664D02*
X1970Y664D01*
X2004Y664D02*
X2070Y664D01*
X2104Y664D02*
X2170Y664D01*
X1404Y663D02*
X1470Y663D01*
X1504Y663D02*
X1570Y663D01*
X1604Y663D02*
X1670Y663D01*
X1704Y663D02*
X1770Y663D01*
X1804Y663D02*
X1870Y663D01*
X1904Y663D02*
X1970Y663D01*
X2004Y663D02*
X2070Y663D01*
X2104Y663D02*
X2170Y663D01*
X1404Y662D02*
X1470Y662D01*
X1504Y662D02*
X1570Y662D01*
X1604Y662D02*
X1670Y662D01*
X1704Y662D02*
X1770Y662D01*
X1804Y662D02*
X1870Y662D01*
X1904Y662D02*
X1970Y662D01*
X2004Y662D02*
X2070Y662D01*
X2104Y662D02*
X2170Y662D01*
X1404Y661D02*
X1470Y661D01*
X1504Y661D02*
X1570Y661D01*
X1604Y661D02*
X1670Y661D01*
X1704Y661D02*
X1770Y661D01*
X1804Y661D02*
X1870Y661D01*
X1904Y661D02*
X1970Y661D01*
X2004Y661D02*
X2070Y661D01*
X2104Y661D02*
X2170Y661D01*
X1404Y660D02*
X1470Y660D01*
X1504Y660D02*
X1570Y660D01*
X1604Y660D02*
X1670Y660D01*
X1704Y660D02*
X1770Y660D01*
X1804Y660D02*
X1870Y660D01*
X1904Y660D02*
X1970Y660D01*
X2004Y660D02*
X2070Y660D01*
X2104Y660D02*
X2170Y660D01*
X1404Y659D02*
X1470Y659D01*
X1504Y659D02*
X1570Y659D01*
X1604Y659D02*
X1670Y659D01*
X1704Y659D02*
X1770Y659D01*
X1804Y659D02*
X1870Y659D01*
X1904Y659D02*
X1970Y659D01*
X2004Y659D02*
X2070Y659D01*
X2104Y659D02*
X2170Y659D01*
X1404Y658D02*
X1470Y658D01*
X1504Y658D02*
X1570Y658D01*
X1604Y658D02*
X1670Y658D01*
X1704Y658D02*
X1770Y658D01*
X1804Y658D02*
X1870Y658D01*
X1904Y658D02*
X1970Y658D01*
X2004Y658D02*
X2070Y658D01*
X2104Y658D02*
X2170Y658D01*
X1404Y657D02*
X1470Y657D01*
X1504Y657D02*
X1570Y657D01*
X1604Y657D02*
X1670Y657D01*
X1704Y657D02*
X1770Y657D01*
X1804Y657D02*
X1870Y657D01*
X1904Y657D02*
X1970Y657D01*
X2004Y657D02*
X2070Y657D01*
X2104Y657D02*
X2170Y657D01*
X1404Y656D02*
X1470Y656D01*
X1504Y656D02*
X1570Y656D01*
X1604Y656D02*
X1670Y656D01*
X1704Y656D02*
X1770Y656D01*
X1804Y656D02*
X1870Y656D01*
X1904Y656D02*
X1970Y656D01*
X2004Y656D02*
X2070Y656D01*
X2104Y656D02*
X2170Y656D01*
X1404Y655D02*
X1470Y655D01*
X1504Y655D02*
X1570Y655D01*
X1604Y655D02*
X1670Y655D01*
X1704Y655D02*
X1770Y655D01*
X1804Y655D02*
X1870Y655D01*
X1904Y655D02*
X1970Y655D01*
X2004Y655D02*
X2070Y655D01*
X2104Y655D02*
X2170Y655D01*
X1404Y654D02*
X1470Y654D01*
X1504Y654D02*
X1570Y654D01*
X1604Y654D02*
X1670Y654D01*
X1704Y654D02*
X1770Y654D01*
X1804Y654D02*
X1870Y654D01*
X1904Y654D02*
X1970Y654D01*
X2004Y654D02*
X2070Y654D01*
X2104Y654D02*
X2170Y654D01*
X1404Y653D02*
X1470Y653D01*
X1504Y653D02*
X1570Y653D01*
X1604Y653D02*
X1670Y653D01*
X1704Y653D02*
X1770Y653D01*
X1804Y653D02*
X1870Y653D01*
X1904Y653D02*
X1970Y653D01*
X2004Y653D02*
X2070Y653D01*
X2104Y653D02*
X2170Y653D01*
X1404Y652D02*
X1470Y652D01*
X1504Y652D02*
X1570Y652D01*
X1604Y652D02*
X1670Y652D01*
X1704Y652D02*
X1770Y652D01*
X1804Y652D02*
X1870Y652D01*
X1904Y652D02*
X1970Y652D01*
X2004Y652D02*
X2070Y652D01*
X2104Y652D02*
X2170Y652D01*
X1404Y651D02*
X1470Y651D01*
X1504Y651D02*
X1570Y651D01*
X1604Y651D02*
X1670Y651D01*
X1704Y651D02*
X1770Y651D01*
X1804Y651D02*
X1870Y651D01*
X1904Y651D02*
X1970Y651D01*
X2004Y651D02*
X2070Y651D01*
X2104Y651D02*
X2170Y651D01*
X1404Y650D02*
X1470Y650D01*
X1504Y650D02*
X1570Y650D01*
X1604Y650D02*
X1670Y650D01*
X1704Y650D02*
X1770Y650D01*
X1804Y650D02*
X1870Y650D01*
X1904Y650D02*
X1970Y650D01*
X2004Y650D02*
X2070Y650D01*
X2104Y650D02*
X2170Y650D01*
X1404Y649D02*
X1470Y649D01*
X1504Y649D02*
X1570Y649D01*
X1604Y649D02*
X1670Y649D01*
X1704Y649D02*
X1770Y649D01*
X1804Y649D02*
X1870Y649D01*
X1904Y649D02*
X1970Y649D01*
X2004Y649D02*
X2070Y649D01*
X2104Y649D02*
X2170Y649D01*
X1404Y648D02*
X1470Y648D01*
X1504Y648D02*
X1570Y648D01*
X1604Y648D02*
X1670Y648D01*
X1704Y648D02*
X1770Y648D01*
X1804Y648D02*
X1870Y648D01*
X1904Y648D02*
X1970Y648D01*
X2004Y648D02*
X2070Y648D01*
X2104Y648D02*
X2170Y648D01*
X1404Y647D02*
X1470Y647D01*
X1504Y647D02*
X1570Y647D01*
X1604Y647D02*
X1670Y647D01*
X1704Y647D02*
X1770Y647D01*
X1804Y647D02*
X1870Y647D01*
X1904Y647D02*
X1970Y647D01*
X2004Y647D02*
X2070Y647D01*
X2104Y647D02*
X2170Y647D01*
X1404Y646D02*
X1470Y646D01*
X1504Y646D02*
X1570Y646D01*
X1604Y646D02*
X1670Y646D01*
X1704Y646D02*
X1770Y646D01*
X1804Y646D02*
X1870Y646D01*
X1904Y646D02*
X1970Y646D01*
X2004Y646D02*
X2070Y646D01*
X2104Y646D02*
X2170Y646D01*
X1404Y645D02*
X1470Y645D01*
X1504Y645D02*
X1570Y645D01*
X1604Y645D02*
X1670Y645D01*
X1704Y645D02*
X1770Y645D01*
X1804Y645D02*
X1870Y645D01*
X1904Y645D02*
X1970Y645D01*
X2004Y645D02*
X2070Y645D01*
X2104Y645D02*
X2170Y645D01*
X1404Y644D02*
X1470Y644D01*
X1504Y644D02*
X1570Y644D01*
X1604Y644D02*
X1670Y644D01*
X1704Y644D02*
X1770Y644D01*
X1804Y644D02*
X1870Y644D01*
X1904Y644D02*
X1970Y644D01*
X2004Y644D02*
X2070Y644D01*
X2104Y644D02*
X2170Y644D01*
X1404Y643D02*
X1470Y643D01*
X1504Y643D02*
X1570Y643D01*
X1604Y643D02*
X1670Y643D01*
X1704Y643D02*
X1770Y643D01*
X1804Y643D02*
X1870Y643D01*
X1904Y643D02*
X1970Y643D01*
X2004Y643D02*
X2070Y643D01*
X2104Y643D02*
X2170Y643D01*
X1404Y642D02*
X1470Y642D01*
X1504Y642D02*
X1570Y642D01*
X1604Y642D02*
X1670Y642D01*
X1704Y642D02*
X1770Y642D01*
X1804Y642D02*
X1870Y642D01*
X1904Y642D02*
X1970Y642D01*
X2004Y642D02*
X2070Y642D01*
X2104Y642D02*
X2170Y642D01*
X1404Y641D02*
X1470Y641D01*
X1504Y641D02*
X1570Y641D01*
X1604Y641D02*
X1670Y641D01*
X1704Y641D02*
X1770Y641D01*
X1804Y641D02*
X1870Y641D01*
X1904Y641D02*
X1970Y641D01*
X2004Y641D02*
X2070Y641D01*
X2104Y641D02*
X2170Y641D01*
X1404Y640D02*
X1470Y640D01*
X1504Y640D02*
X1570Y640D01*
X1604Y640D02*
X1670Y640D01*
X1704Y640D02*
X1770Y640D01*
X1804Y640D02*
X1870Y640D01*
X1904Y640D02*
X1970Y640D01*
X2004Y640D02*
X2070Y640D01*
X2104Y640D02*
X2170Y640D01*
X1404Y639D02*
X1470Y639D01*
X1504Y639D02*
X1570Y639D01*
X1604Y639D02*
X1670Y639D01*
X1704Y639D02*
X1770Y639D01*
X1804Y639D02*
X1870Y639D01*
X1904Y639D02*
X1970Y639D01*
X2004Y639D02*
X2070Y639D01*
X2104Y639D02*
X2170Y639D01*
X1404Y638D02*
X1470Y638D01*
X1504Y638D02*
X1570Y638D01*
X1604Y638D02*
X1670Y638D01*
X1704Y638D02*
X1770Y638D01*
X1804Y638D02*
X1870Y638D01*
X1904Y638D02*
X1970Y638D01*
X2004Y638D02*
X2070Y638D01*
X2104Y638D02*
X2170Y638D01*
X1404Y637D02*
X1470Y637D01*
X1504Y637D02*
X1570Y637D01*
X1604Y637D02*
X1670Y637D01*
X1704Y637D02*
X1770Y637D01*
X1804Y637D02*
X1870Y637D01*
X1904Y637D02*
X1970Y637D01*
X2004Y637D02*
X2070Y637D01*
X2104Y637D02*
X2170Y637D01*
X1404Y636D02*
X1470Y636D01*
X1504Y636D02*
X1570Y636D01*
X1604Y636D02*
X1670Y636D01*
X1704Y636D02*
X1770Y636D01*
X1804Y636D02*
X1870Y636D01*
X1904Y636D02*
X1970Y636D01*
X2004Y636D02*
X2070Y636D01*
X2104Y636D02*
X2170Y636D01*
X1404Y635D02*
X1470Y635D01*
X1504Y635D02*
X1570Y635D01*
X1604Y635D02*
X1670Y635D01*
X1704Y635D02*
X1770Y635D01*
X1804Y635D02*
X1870Y635D01*
X1904Y635D02*
X1970Y635D01*
X2004Y635D02*
X2070Y635D01*
X2104Y635D02*
X2170Y635D01*
X1404Y634D02*
X1470Y634D01*
X1504Y634D02*
X1570Y634D01*
X1604Y634D02*
X1670Y634D01*
X1704Y634D02*
X1770Y634D01*
X1804Y634D02*
X1870Y634D01*
X1904Y634D02*
X1970Y634D01*
X2004Y634D02*
X2070Y634D01*
X2104Y634D02*
X2170Y634D01*
X1404Y633D02*
X1470Y633D01*
X1504Y633D02*
X1570Y633D01*
X1604Y633D02*
X1670Y633D01*
X1704Y633D02*
X1770Y633D01*
X1804Y633D02*
X1870Y633D01*
X1904Y633D02*
X1970Y633D01*
X2004Y633D02*
X2070Y633D01*
X2104Y633D02*
X2170Y633D01*
X1404Y632D02*
X1470Y632D01*
X1504Y632D02*
X1570Y632D01*
X1604Y632D02*
X1670Y632D01*
X1704Y632D02*
X1770Y632D01*
X1804Y632D02*
X1870Y632D01*
X1904Y632D02*
X1970Y632D01*
X2004Y632D02*
X2070Y632D01*
X2104Y632D02*
X2170Y632D01*
X1404Y631D02*
X1470Y631D01*
X1504Y631D02*
X1570Y631D01*
X1604Y631D02*
X1670Y631D01*
X1704Y631D02*
X1770Y631D01*
X1804Y631D02*
X1870Y631D01*
X1904Y631D02*
X1970Y631D01*
X2004Y631D02*
X2070Y631D01*
X2104Y631D02*
X2170Y631D01*
X1404Y630D02*
X1470Y630D01*
X1504Y630D02*
X1570Y630D01*
X1604Y630D02*
X1670Y630D01*
X1704Y630D02*
X1770Y630D01*
X1804Y630D02*
X1870Y630D01*
X1904Y630D02*
X1970Y630D01*
X2004Y630D02*
X2070Y630D01*
X2104Y630D02*
X2170Y630D01*
X1404Y629D02*
X1470Y629D01*
X1504Y629D02*
X1570Y629D01*
X1604Y629D02*
X1670Y629D01*
X1704Y629D02*
X1770Y629D01*
X1804Y629D02*
X1870Y629D01*
X1904Y629D02*
X1970Y629D01*
X2004Y629D02*
X2070Y629D01*
X2104Y629D02*
X2170Y629D01*
X1404Y628D02*
X1470Y628D01*
X1504Y628D02*
X1570Y628D01*
X1604Y628D02*
X1670Y628D01*
X1704Y628D02*
X1770Y628D01*
X1804Y628D02*
X1870Y628D01*
X1904Y628D02*
X1970Y628D01*
X2004Y628D02*
X2070Y628D01*
X2104Y628D02*
X2170Y628D01*
X1404Y627D02*
X1469Y627D01*
X1504Y627D02*
X1569Y627D01*
X1604Y627D02*
X1669Y627D01*
X1704Y627D02*
X1769Y627D01*
X1804Y627D02*
X1869Y627D01*
X1904Y627D02*
X1969Y627D01*
X2004Y627D02*
X2069Y627D01*
X2104Y627D02*
X2169Y627D01*
D02*
G04 End of Mask0*
M02*