; NON-PLATED HOLES START AT T1
; THROUGH (PLATED) HOLES START AT T100
M48
INCH
T100C0.036000
T101C0.030000
T102C0.038000
T103C0.031497
T104C0.040000
T105C0.035000
%
T100
X011378Y003956
X005378Y008956
X005378Y004956
X011378Y002956
X005378Y014956
X005378Y015956
X011378Y016956
X011378Y015956
X005378Y011956
X011378Y006956
X011378Y004956
X005378Y002956
X011378Y007956
X011378Y011956
X005378Y010956
X005378Y007956
X011378Y005956
X011378Y009956
X005378Y006956
X011378Y008956
X005378Y005956
X005378Y016956
X011378Y014956
X011378Y013956
X005378Y009956
X005378Y012956
X005378Y013956
X005378Y003956
X011378Y012956
X011378Y010956
T101
X015378Y002962
X013378Y015962
X014378Y015962
X017378Y001962
X015378Y001962
X017378Y002962
T102
X003378Y003962
X003378Y002962
X023378Y015962
X003378Y006962
X003378Y009962
X023378Y014962
X003378Y004962
X003378Y012962
X003378Y011962
X003378Y007962
X003378Y010962
X003378Y005962
X003378Y008962
X023378Y006962
X023378Y005962
X003378Y013962
T103
X003378Y015962
X003378Y016947
T104
X019378Y012962
X018378Y012962
X016378Y012962
X017378Y006962
X020378Y006962
X014378Y012962
X020378Y012962
X014378Y006962
X019378Y006962
X021378Y012962
X017378Y012962
X016378Y006962
X015378Y006962
X021378Y006962
X015378Y012962
X018378Y006962
T105
X017378Y016962
X001378Y015962
X001378Y011962
X013378Y016962
T00
M30
