M48
; DRILL file {KiCad 7.0.5} date Fri Jun  2 21:27:46 2023
; FORMAT={-:-/ absolute / metric / decimal}
; #@! TF.CreationDate,2023-06-02T21:27:46+04:00
; #@! TF.GenerationSoftware,Kicad,Pcbnew,7.0.5
; #@! TF.FileFunction,Plated,1,2,PTH
FMAT,2
METRIC
; #@! TA.AperFunction,Plated,PTH,ViaDrill
T1C0.400
; #@! TA.AperFunction,Plated,PTH,ComponentDrill
T2C0.600
; #@! TA.AperFunction,Plated,PTH,ComponentDrill
T3C0.800
; #@! TA.AperFunction,Plated,PTH,ComponentDrill
T4C1.000
; #@! TA.AperFunction,Plated,PTH,ComponentDrill
T5C1.020
; #@! TA.AperFunction,Plated,PTH,ComponentDrill
T6C1.100
; #@! TA.AperFunction,Plated,PTH,ComponentDrill
T7C1.520
%
G90
G05
T1
X118.364Y-85.852
X142.24Y-87.63
X142.24Y-101.6
X150.876Y-89.408
X150.876Y-100.584
X151.756Y-104.14
X152.118Y-105.517
X152.4Y-109.864
X154.94Y-99.06
X154.94Y-100.33
X154.94Y-101.6
X154.94Y-104.14
X154.94Y-106.68
X157.201Y-101.6
X158.307Y-107.507
X158.75Y-102.87
X159.004Y-88.9
T2
X143.28Y-83.82
X144.78Y-83.82
T3
X105.41Y-94.33
X105.41Y-96.33
X105.41Y-98.33
X105.41Y-100.33
X105.41Y-102.33
X105.41Y-104.33
X105.41Y-106.33
X105.41Y-108.33
X162.56Y-85.09
X162.56Y-87.59
X162.56Y-93.79
X162.56Y-95.79
X162.56Y-97.79
X162.56Y-99.79
X162.56Y-101.79
X162.56Y-103.79
X162.56Y-105.79
X162.56Y-107.79
T4
X105.41Y-76.2
X107.95Y-76.2
X144.765Y-76.2
X147.305Y-76.2
X149.845Y-76.2
X152.385Y-76.2
X154.925Y-76.2
X157.465Y-76.2
X160.005Y-76.2
X162.545Y-76.2
T5
X114.3Y-83.82
X114.3Y-86.36
X114.3Y-88.9
X114.3Y-91.44
X114.3Y-93.98
X114.3Y-96.52
X114.3Y-99.06
X114.3Y-101.6
X114.3Y-104.14
X114.3Y-106.68
X114.3Y-109.22
X114.3Y-111.76
X114.3Y-114.3
X114.3Y-116.84
X114.3Y-119.38
X139.7Y-83.82
X139.7Y-86.36
X139.7Y-88.9
X139.7Y-91.44
X139.7Y-93.98
X139.7Y-96.52
X139.7Y-99.06
X139.7Y-101.6
X139.7Y-104.14
X139.7Y-106.68
X139.7Y-109.22
X139.7Y-111.76
X139.7Y-114.3
X139.7Y-116.84
X139.7Y-119.38
T6
X149.86Y-86.36
X152.4Y-86.36
X154.94Y-86.36
T7
X104.14Y-83.82
X104.14Y-88.9
X106.68Y-115.57
X106.68Y-120.65
X160.02Y-114.3
X160.02Y-119.38
T0
M30
