%TF.GenerationSoftware,KiCad,Pcbnew,7.0.5*%
%TF.CreationDate,2023-06-02T21:27:16+04:00*%
%TF.ProjectId,Line Follower PID,4c696e65-2046-46f6-9c6c-6f7765722050,rev?*%
%TF.SameCoordinates,Original*%
%TF.FileFunction,Soldermask,Top*%
%TF.FilePolarity,Negative*%
%FSLAX46Y46*%
G04 Gerber Fmt 4.6, Leading zero omitted, Abs format (unit mm)*
G04 Created by KiCad (PCBNEW 7.0.5) date 2023-06-02 21:27:16*
%MOMM*%
%LPD*%
G01*
G04 APERTURE LIST*
G04 Aperture macros list*
%AMRoundRect*
0 Rectangle with rounded corners*
0 $1 Rounding radius*
0 $2 $3 $4 $5 $6 $7 $8 $9 X,Y pos of 4 corners*
0 Add a 4 corners polygon primitive as box body*
4,1,4,$2,$3,$4,$5,$6,$7,$8,$9,$2,$3,0*
0 Add four circle primitives for the rounded corners*
1,1,$1+$1,$2,$3*
1,1,$1+$1,$4,$5*
1,1,$1+$1,$6,$7*
1,1,$1+$1,$8,$9*
0 Add four rect primitives between the rounded corners*
20,1,$1+$1,$2,$3,$4,$5,0*
20,1,$1+$1,$4,$5,$6,$7,0*
20,1,$1+$1,$6,$7,$8,$9,0*
20,1,$1+$1,$8,$9,$2,$3,0*%
G04 Aperture macros list end*
%ADD10C,3.000000*%
%ADD11R,2.000000X2.000000*%
%ADD12C,2.000000*%
%ADD13R,1.700000X1.700000*%
%ADD14O,1.700000X1.700000*%
%ADD15C,1.600000*%
%ADD16R,1.350000X1.350000*%
%ADD17O,1.350000X1.350000*%
%ADD18R,1.200000X1.200000*%
%ADD19C,1.200000*%
%ADD20R,1.750000X0.450000*%
%ADD21RoundRect,0.250000X0.412500X0.925000X-0.412500X0.925000X-0.412500X-0.925000X0.412500X-0.925000X0*%
%ADD22RoundRect,0.250000X-0.250000X-0.475000X0.250000X-0.475000X0.250000X0.475000X-0.250000X0.475000X0*%
%ADD23R,3.000000X3.000000*%
%ADD24R,1.905000X2.000000*%
%ADD25O,1.905000X2.000000*%
%ADD26RoundRect,0.250000X0.250000X0.475000X-0.250000X0.475000X-0.250000X-0.475000X0.250000X-0.475000X0*%
G04 APERTURE END LIST*
D10*
%TO.C,U1*%
X114720000Y-75860000D03*
X114720000Y-122810000D03*
X139230000Y-75860000D03*
X139230000Y-122810000D03*
D11*
X114300000Y-83820000D03*
D12*
X114300000Y-86360000D03*
X114300000Y-88900000D03*
X114300000Y-91440000D03*
X114300000Y-93980000D03*
X114300000Y-96520000D03*
X114300000Y-99060000D03*
X114300000Y-101600000D03*
X114300000Y-104140000D03*
X114300000Y-106680000D03*
X114300000Y-109220000D03*
X114300000Y-111760000D03*
X114300000Y-114300000D03*
X114300000Y-116840000D03*
X114300000Y-119380000D03*
X139700000Y-119380000D03*
X139700000Y-116840000D03*
X139700000Y-114300000D03*
X139700000Y-111760000D03*
X139700000Y-109220000D03*
X139700000Y-106680000D03*
X139700000Y-104140000D03*
X139700000Y-101600000D03*
X139700000Y-99060000D03*
X139700000Y-96520000D03*
X139700000Y-93980000D03*
X139700000Y-91440000D03*
X139700000Y-88900000D03*
X139700000Y-86360000D03*
X139700000Y-83820000D03*
%TD*%
D13*
%TO.C,J1*%
X105410000Y-76200000D03*
D14*
X107950000Y-76200000D03*
%TD*%
D15*
%TO.C,C4*%
X162560000Y-87590000D03*
X162560000Y-85090000D03*
%TD*%
D16*
%TO.C,J6*%
X105410000Y-94330000D03*
D17*
X105410000Y-96330000D03*
X105410000Y-98330000D03*
X105410000Y-100330000D03*
X105410000Y-102330000D03*
X105410000Y-104330000D03*
X105410000Y-106330000D03*
X105410000Y-108330000D03*
%TD*%
D18*
%TO.C,C5*%
X143280000Y-83820000D03*
D19*
X144780000Y-83820000D03*
%TD*%
D20*
%TO.C,U2*%
X146260000Y-100565000D03*
X146260000Y-101215000D03*
X146260000Y-101865000D03*
X146260000Y-102515000D03*
X146260000Y-103165000D03*
X146260000Y-103815000D03*
X146260000Y-104465000D03*
X146260000Y-105115000D03*
X146260000Y-105765000D03*
X146260000Y-106415000D03*
X146260000Y-107065000D03*
X146260000Y-107715000D03*
X153460000Y-107715000D03*
X153460000Y-107065000D03*
X153460000Y-106415000D03*
X153460000Y-105765000D03*
X153460000Y-105115000D03*
X153460000Y-104465000D03*
X153460000Y-103815000D03*
X153460000Y-103165000D03*
X153460000Y-102515000D03*
X153460000Y-101865000D03*
X153460000Y-101215000D03*
X153460000Y-100565000D03*
%TD*%
D21*
%TO.C,C3*%
X151397500Y-96520000D03*
X148322500Y-96520000D03*
%TD*%
D22*
%TO.C,C1*%
X157800000Y-100330000D03*
X159700000Y-100330000D03*
%TD*%
D23*
%TO.C,J3*%
X104140000Y-88900000D03*
D10*
X104140000Y-83820000D03*
%TD*%
D24*
%TO.C,U3*%
X149860000Y-86360000D03*
D25*
X152400000Y-86360000D03*
X154940000Y-86360000D03*
%TD*%
D23*
%TO.C,J5*%
X160020000Y-119380000D03*
D10*
X160020000Y-114300000D03*
%TD*%
D23*
%TO.C,J4*%
X106680000Y-115570000D03*
D10*
X106680000Y-120650000D03*
%TD*%
D26*
%TO.C,C2*%
X157480000Y-93980000D03*
X155580000Y-93980000D03*
%TD*%
D13*
%TO.C,J7*%
X162545000Y-76200000D03*
D14*
X160005000Y-76200000D03*
X157465000Y-76200000D03*
X154925000Y-76200000D03*
X152385000Y-76200000D03*
X149845000Y-76200000D03*
X147305000Y-76200000D03*
X144765000Y-76200000D03*
%TD*%
D16*
%TO.C,J2*%
X162560000Y-93790000D03*
D17*
X162560000Y-95790000D03*
X162560000Y-97790000D03*
X162560000Y-99790000D03*
X162560000Y-101790000D03*
X162560000Y-103790000D03*
X162560000Y-105790000D03*
X162560000Y-107790000D03*
%TD*%
M02*
